<svg width="24" height="24" viewBox="0 0 24 24" fill="none" xmlns="http://www.w3.org/2000/svg">
<mask id="mask0_2342_50135" style="mask-type:alpha" maskUnits="userSpaceOnUse" x="0" y="0" width="24" height="24">
<circle cx="12" cy="12" r="12" fill="#D9D9D9"/>
</mask>
<g mask="url(#mask0_2342_50135)">
<path d="M18.8571 0H5.14286C2.30254 0 0 2.30254 0 5.14286V18.8571C0 21.6975 2.30254 24 5.14286 24H18.8571C21.6975 24 24 21.6975 24 18.8571V5.14286C24 2.30254 21.6975 0 18.8571 0Z" fill="url(#paint0_radial_2342_50135)"/>
<path d="M18.8571 0H5.14286C2.30254 0 0 2.30254 0 5.14286V18.8571C0 21.6975 2.30254 24 5.14286 24H18.8571C21.6975 24 24 21.6975 24 18.8571V5.14286C24 2.30254 21.6975 0 18.8571 0Z" fill="url(#paint1_radial_2342_50135)"/>
<path d="M18.8571 0H5.14286C2.30254 0 0 2.30254 0 5.14286V18.8571C0 21.6975 2.30254 24 5.14286 24H18.8571C21.6975 24 24 21.6975 24 18.8571V5.14286C24 2.30254 21.6975 0 18.8571 0Z" fill="url(#paint2_radial_2342_50135)"/>
</g>
<path d="M17.0019 8.07029C17.0019 8.66218 16.522 9.14204 15.9301 9.14204C15.3383 9.14204 14.8584 8.66218 14.8584 8.07029C14.8584 7.47837 15.3383 6.99854 15.9301 6.99854C16.522 6.99854 17.0019 7.47837 17.0019 8.07029Z" fill="white"/>
<path fill-rule="evenodd" clip-rule="evenodd" d="M12.0005 15.5725C13.9735 15.5725 15.573 13.973 15.573 12C15.573 10.027 13.9735 8.42749 12.0005 8.42749C10.0275 8.42749 8.42798 10.027 8.42798 12C8.42798 13.973 10.0275 15.5725 12.0005 15.5725ZM12.0005 14.1435C13.1843 14.1435 14.144 13.1838 14.144 12C14.144 10.8161 13.1843 9.85649 12.0005 9.85649C10.8166 9.85649 9.85698 10.8161 9.85698 12C9.85698 13.1838 10.8166 14.1435 12.0005 14.1435Z" fill="white"/>
<path fill-rule="evenodd" clip-rule="evenodd" d="M4.85547 11.7142C4.85547 9.31325 4.85547 8.11274 5.32272 7.19573C5.73373 6.38907 6.38956 5.73324 7.19621 5.32224C8.11323 4.85498 9.31373 4.85498 11.7147 4.85498H12.2863C14.6872 4.85498 15.8877 4.85498 16.8047 5.32224C17.6114 5.73324 18.2672 6.38907 18.6782 7.19573C19.1455 8.11274 19.1455 9.31325 19.1455 11.7142V12.2858C19.1455 14.6867 19.1455 15.8872 18.6782 16.8042C18.2672 17.6109 17.6114 18.2667 16.8047 18.6777C15.8877 19.145 14.6872 19.145 12.2863 19.145H11.7147C9.31373 19.145 8.11323 19.145 7.19621 18.6777C6.38956 18.2667 5.73373 17.6109 5.32272 16.8042C4.85547 15.8872 4.85547 14.6867 4.85547 12.2858V11.7142ZM11.7147 6.28398H12.2863C13.5104 6.28398 14.3424 6.2851 14.9856 6.33764C15.6121 6.38883 15.9325 6.4816 16.156 6.59548C16.6937 6.86949 17.1309 7.30671 17.4049 7.84445C17.5188 8.06794 17.6117 8.38833 17.6628 9.01487C17.7153 9.65806 17.7165 10.4901 17.7165 11.7142V12.2858C17.7165 13.5099 17.7153 14.3419 17.6628 14.9851C17.6117 15.6116 17.5188 15.932 17.4049 16.1555C17.1309 16.6932 16.6937 17.1304 16.156 17.4045C15.9325 17.5183 15.6121 17.6112 14.9856 17.6623C14.3424 17.7148 13.5104 17.716 12.2863 17.716H11.7147C10.4906 17.716 9.65855 17.7148 9.01536 17.6623C8.38881 17.6112 8.06843 17.5183 7.84494 17.4045C7.3072 17.1304 6.86998 16.6932 6.59597 16.1555C6.48209 15.932 6.38931 15.6116 6.33813 14.9851C6.28558 14.3419 6.28447 13.5099 6.28447 12.2858V11.7142C6.28447 10.4901 6.28558 9.65806 6.33813 9.01487C6.38931 8.38833 6.48209 8.06794 6.59597 7.84445C6.86998 7.30671 7.3072 6.86949 7.84494 6.59548C8.06843 6.4816 8.38881 6.38883 9.01536 6.33764C9.65855 6.2851 10.4906 6.28398 11.7147 6.28398Z" fill="white"/>
<defs>
<radialGradient id="paint0_radial_2342_50135" cx="0" cy="0" r="1" gradientUnits="userSpaceOnUse" gradientTransform="translate(8.57143 18) rotate(-55.3758) scale(21.8739)">
<stop stop-color="#B13589"/>
<stop offset="0.79309" stop-color="#C62F94"/>
<stop offset="1" stop-color="#8A3AC8"/>
</radialGradient>
<radialGradient id="paint1_radial_2342_50135" cx="0" cy="0" r="1" gradientUnits="userSpaceOnUse" gradientTransform="translate(7.71429 24.8571) rotate(-65.1363) scale(19.3665)">
<stop stop-color="#E0E8B7"/>
<stop offset="0.444662" stop-color="#FB8A2E"/>
<stop offset="0.71474" stop-color="#E2425C"/>
<stop offset="1" stop-color="#E2425C" stop-opacity="0"/>
</radialGradient>
<radialGradient id="paint2_radial_2342_50135" cx="0" cy="0" r="1" gradientUnits="userSpaceOnUse" gradientTransform="translate(-1.28571 0.857143) rotate(-8.1301) scale(33.3351 7.13002)">
<stop offset="0.156701" stop-color="#406ADC"/>
<stop offset="0.467799" stop-color="#6A45BE"/>
<stop offset="1" stop-color="#6A45BE" stop-opacity="0"/>
</radialGradient>
</defs>
</svg>
