<svg width="24" height="24" viewBox="0 0 24 24" fill="none" xmlns="http://www.w3.org/2000/svg">
<path d="M12 24C18.6274 24 24 18.6274 24 12C24 5.37258 18.6274 0 12 0C5.37258 0 0 5.37258 0 12C0 18.6274 5.37258 24 12 24Z" fill="#0077B5"/>
<path fill-rule="evenodd" clip-rule="evenodd" d="M8.8648 6.17039C8.8648 6.91745 8.296 7.52201 7.4065 7.52201C6.55162 7.52201 5.98276 6.91745 6.0004 6.17039C5.98276 5.38703 6.55156 4.80005 7.42354 4.80005C8.296 4.80005 8.84776 5.38703 8.8648 6.17039ZM6.07192 17.2915V8.58977H8.77624V17.2909L6.07192 17.2915Z" fill="white"/>
<path fill-rule="evenodd" clip-rule="evenodd" d="M10.9419 11.3666C10.9419 10.2813 10.9061 9.35599 10.8704 8.59081H13.2194L13.3442 9.78289H13.3976C13.7535 9.23113 14.643 8.39551 16.0844 8.39551C17.8634 8.39551 19.198 9.57001 19.198 12.1313V17.2925H16.4936V12.4702C16.4936 11.3485 16.1025 10.5838 15.1239 10.5838C14.3763 10.5838 13.9317 11.0998 13.7541 11.5977C13.6826 11.776 13.6473 12.0246 13.6473 12.2743V17.2925H10.943V11.3666H10.9419Z" fill="white"/>
</svg>
