<svg width="24" height="24" viewBox="0 0 24 24" fill="none" xmlns="http://www.w3.org/2000/svg">
<circle cx="12" cy="12" r="11.75" fill="white" stroke="#E6E6E6" stroke-width="0.5"/>
<mask id="mask0_2342_46688" style="mask-type:alpha" maskUnits="userSpaceOnUse" x="0" y="0" width="24" height="24">
<rect width="24" height="24" fill="#D9D9D9"/>
</mask>
<g mask="url(#mask0_2342_46688)">
<path d="M7.07692 16.0769C5.94897 16.0769 4.9875 15.6796 4.1925 14.8848C3.3975 14.09 3 13.1287 3 12.0011C3 10.8735 3.3975 9.91189 4.1925 9.11637C4.9875 8.32085 5.94897 7.9231 7.07692 7.9231H10.1154C10.257 7.9231 10.3758 7.97108 10.4716 8.06705C10.5675 8.163 10.6154 8.2819 10.6154 8.42377C10.6154 8.56562 10.5675 8.68431 10.4716 8.77982C10.3758 8.87534 10.257 8.9231 10.1154 8.9231H7.07465C6.23002 8.9231 5.50642 9.22438 4.90385 9.82695C4.30128 10.4295 4 11.1539 4 12C4 12.8462 4.30128 13.5705 4.90385 14.1731C5.50642 14.7757 6.23002 15.0769 7.07465 15.0769H10.1154C10.257 15.0769 10.3758 15.1249 10.4716 15.2209C10.5675 15.3168 10.6154 15.4358 10.6154 15.5776C10.6154 15.7195 10.5675 15.8382 10.4716 15.9337C10.3758 16.0292 10.257 16.0769 10.1154 16.0769H7.07692ZM9 12.5C8.85833 12.5 8.73958 12.452 8.64375 12.3561C8.54792 12.2601 8.5 12.1412 8.5 11.9993C8.5 11.8575 8.54792 11.7388 8.64375 11.6433C8.73958 11.5478 8.85833 11.5 9 11.5H15C15.1417 11.5 15.2604 11.548 15.3562 11.644C15.4521 11.7399 15.5 11.8588 15.5 12.0007C15.5 12.1426 15.4521 12.2612 15.3562 12.3567C15.2604 12.4523 15.1417 12.5 15 12.5H9ZM13.8846 16.0769C13.743 16.0769 13.6242 16.029 13.5284 15.933C13.4325 15.837 13.3846 15.7181 13.3846 15.5763C13.3846 15.4344 13.4325 15.3157 13.5284 15.2202C13.6242 15.1247 13.743 15.0769 13.8846 15.0769H16.9253C17.77 15.0769 18.4936 14.7757 19.0962 14.1731C19.6987 13.5705 20 12.8462 20 12C20 11.1539 19.6987 10.4295 19.0962 9.82695C18.4936 9.22438 17.77 8.9231 16.9253 8.9231H13.8846C13.743 8.9231 13.6242 8.87511 13.5284 8.77915C13.4325 8.6832 13.3846 8.56429 13.3846 8.42242C13.3846 8.28055 13.4325 8.16187 13.5284 8.06637C13.6242 7.97085 13.743 7.9231 13.8846 7.9231H16.9231C18.051 7.9231 19.0125 8.32049 19.8075 9.11527C20.6025 9.91007 21 10.8713 21 11.9989C21 13.1266 20.6025 14.0882 19.8075 14.8837C19.0125 15.6792 18.051 16.0769 16.9231 16.0769H13.8846Z" fill="#1A1A1A"/>
</g>
</svg>
