<svg width="24" height="24" viewBox="0 0 24 24" fill="none" xmlns="http://www.w3.org/2000/svg">
<rect x="0.25" y="0.25" width="23.5" height="23.5" rx="11.75" fill="white" stroke="#B3B3B3" stroke-width="0.5"/>
<path d="M7.75781 7.61684C8.17771 7.95796 8.33523 7.93193 9.12369 7.87933L16.5571 7.43299C16.7147 7.43299 16.5836 7.27571 16.5311 7.24957L15.2965 6.35711C15.06 6.17347 14.7448 5.96315 14.1408 6.01576L6.94308 6.54074C6.68059 6.56677 6.62815 6.69801 6.7327 6.80322L7.75781 7.61684ZM8.2041 9.34917V17.1704C8.2041 17.5907 8.41415 17.748 8.88693 17.722L17.0562 17.2493C17.5292 17.2233 17.5819 16.9341 17.5819 16.5927V8.82397C17.5819 8.48306 17.4508 8.29921 17.1612 8.32545L8.62422 8.82397C8.30918 8.85044 8.2041 9.00803 8.2041 9.34917ZM16.2688 9.76872C16.3212 10.0052 16.2688 10.2414 16.0319 10.268L15.6383 10.3464V16.1205C15.2965 16.3042 14.9814 16.4092 14.7188 16.4092C14.2983 16.4092 14.193 16.2779 13.8781 15.8844L11.3034 11.8425V15.7532L12.1182 15.937C12.1182 15.937 12.1182 16.4092 11.4609 16.4092L9.64879 16.5143C9.59615 16.4092 9.64879 16.147 9.83259 16.0944L10.3055 15.9634V10.7928L9.6489 10.7401C9.59625 10.5037 9.72739 10.1628 10.0954 10.1363L12.0393 10.0053L14.7188 14.0998V10.4777L14.0356 10.3992C13.9832 10.1102 14.193 9.90028 14.4558 9.87425L16.2688 9.76872ZM6.33874 5.83212L13.8256 5.28079C14.745 5.20193 14.9815 5.25475 15.5594 5.67452L17.9492 7.35424C18.3436 7.64309 18.475 7.72173 18.475 8.03661V17.2493C18.475 17.8266 18.2647 18.1681 17.5293 18.2203L8.83492 18.7454C8.28291 18.7717 8.02019 18.693 7.73111 18.3253L5.97116 16.0419C5.6558 15.6216 5.52466 15.3071 5.52466 14.9392V6.75041C5.52466 6.27825 5.73504 5.88441 6.33874 5.83212Z" fill="black"/>
</svg>
