<svg width="24" height="24" viewBox="0 0 24 24" fill="none" xmlns="http://www.w3.org/2000/svg">
<circle cx="12" cy="12" r="12" fill="black"/>
<path d="M17.7556 17.4735L13.2523 10.9312L12.7432 10.1913L9.52196 5.51137L9.25496 5.12354H5.29663L6.26203 6.52644L10.5452 12.7497L11.0543 13.4888L14.4957 18.489L14.7627 18.8765H18.721L17.7556 17.4736V17.4735ZM15.2332 17.9809L11.6579 12.7862L11.1488 12.0467L7.00002 6.0189H8.78465L12.1398 10.8938L12.649 11.6332L17.018 17.9809H15.2333H15.2332Z" fill="white"/>
<path d="M11.1488 12.0466L11.6579 12.7861L11.0543 13.4886L6.42326 18.8762H5.28125L10.5452 12.7494L11.1488 12.0466Z" fill="white"/>
<path d="M18.2444 5.12354L13.2524 10.9312L12.6488 11.6332L12.1396 10.8938L12.7432 10.1913L16.1248 6.25536L17.1024 5.12354H18.2444Z" fill="white"/>
</svg>
