<svg width="24" height="24" viewBox="0 0 24 24" fill="none" xmlns="http://www.w3.org/2000/svg">
<g clip-path="url(#clip0_2342_50139)">
<path fill-rule="evenodd" clip-rule="evenodd" d="M12 24C18.6274 24 24 18.6274 24 12C24 5.37258 18.6274 0 12 0C5.37258 0 0 5.37258 0 12C0 18.6274 5.37258 24 12 24Z" fill="#FF0002"/>
<path fill-rule="evenodd" clip-rule="evenodd" d="M10.3441 14.0899L10.3436 9.5625L14.6666 11.834L10.3441 14.0899ZM19.8361 8.77797C19.8361 8.77797 19.6796 7.66765 19.2001 7.17871C18.5916 6.53669 17.9096 6.53366 17.5971 6.4964C15.3581 6.33325 11.9996 6.33325 11.9996 6.33325H11.9926C11.9926 6.33325 8.63409 6.33325 6.39509 6.4964C6.08209 6.53366 5.40059 6.53669 4.79159 7.17871C4.31209 7.66765 4.15609 8.77797 4.15609 8.77797C4.15609 8.77797 3.99609 10.0822 3.99609 11.3858V12.6085C3.99609 13.9126 4.15609 15.2163 4.15609 15.2163C4.15609 15.2163 4.31209 16.3266 4.79159 16.8156C5.40059 17.4576 6.20009 17.4375 6.55609 17.5044C7.83609 17.6283 11.9961 17.6666 11.9961 17.6666C11.9961 17.6666 15.3581 17.6615 17.5971 17.4984C17.9096 17.4606 18.5916 17.4576 19.2001 16.8156C19.6796 16.3266 19.8361 15.2163 19.8361 15.2163C19.8361 15.2163 19.9961 13.9126 19.9961 12.6085V11.3858C19.9961 10.0822 19.8361 8.77797 19.8361 8.77797Z" fill="white"/>
</g>
<defs>
<clipPath id="clip0_2342_50139">
<rect width="24" height="24" fill="white"/>
</clipPath>
</defs>
</svg>
