<svg width="24" height="24" viewBox="0 0 24 24" fill="none" xmlns="http://www.w3.org/2000/svg">
<rect width="24" height="24" fill="white"/>
<path fill-rule="evenodd" clip-rule="evenodd" d="M5.73473 9.89474C5.73473 8.33136 6.39482 6.83201 7.56978 5.72653C8.74475 4.62105 10.3383 4 12 4C13.6617 4 15.2552 4.62105 16.4302 5.72653C17.6052 6.83201 18.2653 8.33136 18.2653 9.89474V13.0644L19.896 16.1331C19.9711 16.2743 20.0065 16.4312 19.999 16.589C19.9915 16.7467 19.9412 16.9001 19.8529 17.0344C19.7647 17.1687 19.6414 17.2796 19.4948 17.3565C19.3482 17.4334 19.1832 17.4737 19.0153 17.4737H4.98469C4.81685 17.4737 4.65179 17.4334 4.50519 17.3565C4.35858 17.2796 4.23531 17.1687 4.14706 17.0344C4.05882 16.9001 4.00854 16.7467 4.00099 16.589C3.99345 16.4312 4.0289 16.2743 4.10397 16.1331L5.73473 13.0644V9.89474ZM9.29644 18H14.6667C14.6667 18.4467 14.4965 19.1909 14.1608 19.5067C13.8251 19.8226 13.3698 20 12.895 20H11.105C10.6302 20 10.1749 19.8226 9.83919 19.5067C9.50348 19.1909 9.29644 18.4467 9.29644 18Z" fill="#1A1A1A"/>
</svg>
