<svg width="24" height="24" viewBox="0 0 24 24" fill="none" xmlns="http://www.w3.org/2000/svg">
<circle cx="12" cy="12" r="10" fill="#196AFF"/>
<path fill-rule="evenodd" clip-rule="evenodd" d="M7.30105 10.1579C7.30105 8.78994 7.79611 7.47801 8.67734 6.51071C9.55856 5.54342 10.7538 5 12 5C13.2462 5 14.4414 5.54342 15.3227 6.51071C16.2039 7.47801 16.699 8.78994 16.699 10.1579V12.9314L17.922 15.6164C17.9783 15.74 18.0049 15.8773 17.9993 16.0154C17.9936 16.1534 17.9559 16.2876 17.8897 16.4051C17.8235 16.5226 17.7311 16.6196 17.6211 16.6869C17.5112 16.7542 17.3874 16.7895 17.2615 16.7895H6.73852C6.61264 16.7895 6.48884 16.7542 6.37889 16.6869C6.26894 16.6196 6.17648 16.5226 6.1103 16.4051C6.04411 16.2876 6.0064 16.1534 6.00075 16.0154C5.99509 15.8773 6.02168 15.74 6.07798 15.6164L7.30105 12.9314V10.1579ZM9.97233 17.25H14C14 17.6408 13.8724 18.292 13.6206 18.5684C13.3688 18.8447 13.0273 19 12.6713 19H11.3287C10.9727 19 10.6312 18.8447 10.3794 18.5684C10.1276 18.292 9.97233 17.6408 9.97233 17.25Z" fill="white"/>
</svg>
