<svg width="20" height="20" viewBox="0 0 20 20" fill="none" xmlns="http://www.w3.org/2000/svg">
<g id="icon/alarm-line">
<rect width="20" height="20" fill="white"/>
<path id="alarm" fill-rule="evenodd" clip-rule="evenodd" d="M4.77877 8.24627C4.77877 6.94345 5.32884 5.69399 6.30798 4.77276C7.28712 3.85153 8.61511 3.33398 9.99982 3.33398C11.3845 3.33398 12.7125 3.85153 13.6917 4.77276C14.6708 5.69399 15.2209 6.94345 15.2209 8.24627V10.8877L16.5807 13.8835C16.6432 14.0012 16.6728 14.1319 16.6665 14.2634C16.6602 14.3949 16.6183 14.5226 16.5448 14.6346C16.4712 14.7465 16.3685 14.8389 16.2463 14.903C16.1242 14.967 15.9866 15.0007 15.8468 15.0007H4.15457C4.01471 15.0007 3.87716 14.967 3.75499 14.903C3.63282 14.8389 3.53009 14.7465 3.45655 14.6346C3.38301 14.5226 3.34111 14.3949 3.33483 14.2634C3.32854 14.1319 3.35808 14.0012 3.42064 13.8835L4.77877 10.8877V8.24627ZM7.74685 15.0007H12.222C12.222 15.3729 12.0803 15.993 11.8005 16.2562C11.5207 16.5194 11.1413 16.6673 10.7457 16.6673H9.25396C8.85833 16.6673 8.4789 16.5194 8.19915 16.2562C7.91939 15.993 7.74685 15.3729 7.74685 15.0007Z" stroke="#1A1A1A"/>
</g>
</svg>
