<svg width="16" height="16" viewBox="0 0 16 16" fill="none" xmlns="http://www.w3.org/2000/svg">
<path id="Vector" d="M6.95109 1.02679V12.4961L1.80561 7.48532C1.39439 7.08487 0.719571 7.08487 0.308354 7.48532C0.210607 7.58031 0.133058 7.69315 0.0801464 7.81736C0.0272349 7.94157 0 8.07473 0 8.20921C0 8.34369 0.0272349 8.47684 0.0801464 8.60106C0.133058 8.72527 0.210607 8.83811 0.308354 8.9331L7.25687 15.6997C7.66809 16.1001 8.33236 16.1001 8.74358 15.6997L15.6921 8.9331C15.7897 8.83804 15.8671 8.72518 15.92 8.60097C15.9728 8.47677 16 8.34365 16 8.20921C16 8.07477 15.9728 7.94165 15.92 7.81744C15.8671 7.69324 15.7897 7.58038 15.6921 7.48532C15.5945 7.39026 15.4786 7.31485 15.351 7.2634C15.2235 7.21196 15.0868 7.18547 14.9487 7.18547C14.8107 7.18547 14.674 7.21196 14.5464 7.2634C14.4189 7.31485 14.303 7.39026 14.2054 7.48532L9.0599 12.4961V1.02679C9.0599 0.462057 8.58542 0 8.0055 0C7.42557 0 6.95109 0.462057 6.95109 1.02679Z" fill="#1A1A1A"/>
</svg>
