<svg width="16" height="16" viewBox="0 0 16 16" fill="none" xmlns="http://www.w3.org/2000/svg">
<path id="Vector" d="M1.0268 9.05345H12.4961L7.48535 14.1955C7.0849 14.6065 7.0849 15.2808 7.48535 15.6918C7.8858 16.1027 8.53268 16.1027 8.93313 15.6918L15.6997 8.74788C15.7949 8.6504 15.8704 8.53461 15.922 8.40714C15.9735 8.27967 16 8.14302 16 8.00502C16 7.86701 15.9735 7.73037 15.922 7.6029C15.8704 7.47543 15.7949 7.35964 15.6997 7.26216L8.9434 0.307703C8.84834 0.210149 8.73548 0.132765 8.61127 0.0799692C8.48707 0.0271734 8.35395 2.0558e-09 8.21951 0C8.08507 -2.0558e-09 7.95195 0.0271734 7.82774 0.0799692C7.70353 0.132765 7.59068 0.210149 7.49562 0.307703C7.40055 0.405257 7.32514 0.521071 7.2737 0.648531C7.22225 0.775992 7.19577 0.912603 7.19577 1.05057C7.19577 1.18853 7.22225 1.32514 7.2737 1.4526C7.32514 1.58006 7.40055 1.69587 7.49562 1.79343L12.4961 6.94604H1.0268C0.462058 6.94604 0 7.42021 0 7.99975C0 8.57929 0.462058 9.05345 1.0268 9.05345Z" fill="#1A1A1A"/>
</svg>
