<svg width="16" height="16" viewBox="0 0 16 16" fill="none" xmlns="http://www.w3.org/2000/svg">
<path id="Vector" d="M9.05349 14.9732V3.50389L14.1956 8.51465C14.6065 8.9151 15.2809 8.9151 15.6918 8.51465C15.7895 8.41966 15.867 8.30683 15.9199 8.18261C15.9728 8.0584 16 7.92524 16 7.79076C16 7.65628 15.9728 7.52313 15.9199 7.39891C15.867 7.2747 15.7895 7.16186 15.6918 7.06687L8.74791 0.300281C8.65043 0.205093 8.53464 0.129575 8.40717 0.0780485C8.2797 0.0265224 8.14305 0 8.00505 0C7.86704 0 7.7304 0.0265224 7.60293 0.0780485C7.47545 0.129575 7.35966 0.205093 7.26218 0.300281L0.307704 7.0566C0.21015 7.15166 0.132766 7.26452 0.0799695 7.38873C0.0271735 7.51293 2.05581e-09 7.64605 0 7.78049C-2.0558e-09 7.91493 0.0271735 8.04806 0.0799695 8.17226C0.132766 8.29647 0.21015 8.40932 0.307704 8.50438C0.405259 8.59945 0.521073 8.67486 0.648534 8.7263C0.775994 8.77775 0.912607 8.80423 1.05057 8.80423C1.18853 8.80423 1.32514 8.77775 1.4526 8.7263C1.58007 8.67486 1.69588 8.59945 1.79343 8.50438L6.94607 3.50389V14.9732C6.94607 15.5379 7.42024 16 7.99978 16C8.57932 16 9.05349 15.5379 9.05349 14.9732Z" fill="#1A1A1A"/>
</svg>
