<svg width="305" height="349" viewBox="0 0 305 349" fill="none" xmlns="http://www.w3.org/2000/svg">
<g clip-path="url(#clip0_2165_27348)">
<path d="M168.25 267.778L165.314 265.004C163.37 263.168 163.288 260.108 165.131 258.168L176.232 246.482C178.079 244.538 181.156 244.457 183.099 246.301L201.162 263.437C203.099 265.274 203.178 268.329 201.338 270.266L170.107 303.141C168.398 304.941 165.524 305.211 163.956 303.291C157.114 294.912 161.107 283.256 168.174 275.576C170.207 273.366 170.432 269.839 168.25 267.778Z" fill="#D7D7D7"/>
<path d="M133.713 217.413C132.954 216.295 133.734 214.524 135.431 213.516L155.629 201.512C157.301 200.518 159.205 200.658 159.849 201.822L186.316 249.603C186.942 250.733 186.144 252.409 184.521 253.374L168.602 262.835C167.002 263.786 165.174 263.704 164.458 262.651L133.713 217.413Z" fill="#D7D7D7"/>
<path fill-rule="evenodd" clip-rule="evenodd" d="M183.058 193.729C184.411 192.421 186.036 191.939 186.632 192.668L200.01 209.039C202.261 211.793 205.617 213.406 209.173 213.445L227.754 213.645C228.572 213.654 229.308 214.933 229.423 216.544L230.568 232.577C230.685 234.212 230.12 235.594 229.297 235.687L194.488 239.617C194.315 239.637 194.144 239.598 193.981 239.51C193.734 239.376 193.48 239.231 193.278 239.038V239.038L165.736 212.812C165.065 212.173 165.61 210.589 166.944 209.3L183.058 193.729Z" fill="#D7D7D7"/>
<path d="M145.435 192.936C144.63 191.006 145.419 188.856 147.136 188.299L166.614 181.978C168.277 181.439 170.126 182.62 170.672 184.572L179.302 215.383C179.813 217.209 178.992 219.042 177.436 219.547L161.674 224.662C160.171 225.149 158.484 224.231 157.78 222.542L145.435 192.936Z" fill="#D7D7D7"/>
<path fill-rule="evenodd" clip-rule="evenodd" d="M73.5669 177.583C72.8466 179.088 73.806 181.049 75.7096 181.964L101.216 194.227C107.625 197.308 112.578 195.439 115.704 191.182L132.686 178.499C139.008 173.778 138.02 166.887 133.498 160.854C128.976 154.821 122.633 151.93 116.311 156.652L101.632 167.615L86.1428 160.168C84.2391 159.253 82.112 159.731 81.3918 161.236L73.5669 177.583Z" fill="#E8E8E8"/>
<path d="M117.359 180.092C113.2 167.274 112.098 153.433 122.945 149.913L153.059 140.141C163.906 136.621 171.065 143.423 175.225 156.241L185.308 194.558C185.903 196.932 184.61 199.488 182.165 200.773C166.803 208.844 152.447 213.503 135.273 215.989C132.57 216.38 129.025 215.357 128.079 213.128L117.359 180.092Z" fill="#FAFAFA"/>
<path d="M122.685 140.755C121.088 135.832 123.027 130.792 127.017 129.498L137.13 126.216C141.119 124.921 145.649 127.862 147.246 132.785L150.138 141.698C151.736 146.621 149.796 151.661 145.807 152.955L135.694 156.237C131.704 157.532 127.175 154.591 125.577 149.668L122.685 140.755Z" fill="#FFAB48"/>
<path d="M177.785 111.997C179.215 120.375 173.31 128.372 164.596 129.858C155.882 131.345 147.659 125.759 146.229 117.381C144.8 109.004 150.705 101.006 159.419 99.5195C168.133 98.0326 176.356 103.619 177.785 111.997Z" fill="#FF9C27"/>
<path d="M119.42 117.074C120.85 125.452 114.944 133.449 106.23 134.936C97.5165 136.423 89.2935 130.836 87.8639 122.459C86.4343 114.081 92.3395 106.084 101.053 104.597C109.767 103.11 117.99 108.696 119.42 117.074Z" fill="#ED8000"/>
<path d="M169.161 104.7C172.46 124.029 157.354 142.733 135.421 146.476C113.488 150.219 90.4718 135.279 97.1549 119.904C86.6716 100.613 101.543 80.2192 123.476 76.4765C145.409 72.7339 165.863 85.3697 169.161 104.7Z" fill="#FFBA68"/>
<path d="M169.443 104.722C172.758 124.148 157.253 143 134.811 146.829C112.37 150.659 88.8774 135.707 95.7584 120.227C85.0957 100.861 100.366 80.311 122.807 76.4816C145.248 72.6522 166.128 85.2957 169.443 104.722Z" fill="#FFBA68"/>
<mask id="mask0_2165_27348" style="mask-type:alpha" maskUnits="userSpaceOnUse" x="92" y="75" width="78" height="73">
<path d="M169.453 104.723C172.767 124.149 157.262 143.001 134.821 146.83C112.38 150.66 88.8872 135.708 95.7682 120.228C85.1055 100.862 100.375 80.312 122.817 76.4826C145.258 72.6531 166.138 85.2967 169.453 104.723Z" fill="#FFBA68"/>
</mask>
<g mask="url(#mask0_2165_27348)">
<path d="M129.772 128.751C129.934 130.144 128.724 131.428 127.071 131.619C125.418 131.81 123.947 130.836 123.786 129.444C123.625 128.052 124.834 126.768 126.487 126.577C128.141 126.385 129.611 127.359 129.772 128.751Z" fill="#DE2929"/>
<path d="M171.525 123.259C172.92 131.433 167.111 139.243 158.55 140.704C149.989 142.165 141.918 136.723 140.523 128.549C139.129 120.376 144.938 112.566 153.499 111.105C162.06 109.644 170.13 115.086 171.525 123.259Z" fill="#FF9A24"/>
<path d="M112.752 130.849C114.146 139.023 108.337 146.833 99.7762 148.294C91.2154 149.755 83.1447 144.313 81.75 136.139C80.3553 127.966 86.1646 120.156 94.7254 118.695C103.286 117.234 111.357 122.676 112.752 130.849Z" fill="#FF9A24"/>
</g>
<path d="M125.157 122.706C125.307 123.585 124.688 124.423 123.774 124.579C122.86 124.735 121.998 124.149 121.848 123.271C121.698 122.392 122.317 121.553 123.231 121.397C124.145 121.241 125.007 121.827 125.157 122.706Z" fill="black"/>
<path d="M117.37 116.644C117.656 118.316 116.405 119.925 114.577 120.237C112.749 120.549 111.036 119.446 110.751 117.774C110.465 116.101 111.716 114.492 113.544 114.181C115.372 113.869 117.085 114.972 117.37 116.644Z" fill="black"/>
<path fill-rule="evenodd" clip-rule="evenodd" d="M115.015 112.592C115.433 113.089 115.323 113.816 114.77 114.216C114.469 114.433 114.028 114.848 113.744 115.32C113.463 115.789 113.425 116.151 113.555 116.439C113.818 117.021 113.511 117.704 112.87 117.964C112.228 118.223 111.494 117.961 111.23 117.379C110.7 116.205 111.064 115.064 111.554 114.249C112.041 113.437 112.74 112.787 113.255 112.415C113.808 112.015 114.596 112.095 115.015 112.592Z" fill="black"/>
<path d="M139.058 114.57C139.343 116.242 138.093 117.851 136.265 118.163C134.437 118.475 132.724 117.372 132.438 115.699C132.153 114.027 133.403 112.418 135.231 112.106C137.059 111.794 138.772 112.897 139.058 114.57Z" fill="black"/>
<path fill-rule="evenodd" clip-rule="evenodd" d="M136.702 110.518C137.12 111.015 137.011 111.742 136.458 112.142C136.157 112.359 135.716 112.774 135.432 113.246C135.15 113.715 135.112 114.077 135.242 114.364C135.506 114.947 135.199 115.63 134.557 115.89C133.915 116.149 133.181 115.887 132.918 115.304C132.387 114.13 132.752 112.99 133.241 112.175C133.729 111.363 134.428 110.712 134.942 110.341C135.496 109.941 136.284 110.02 136.702 110.518Z" fill="black"/>
<path fill-rule="evenodd" clip-rule="evenodd" d="M111.419 108.885C110.256 109.246 109.388 109.994 108.972 110.534C108.584 111.038 107.848 111.149 107.329 110.781C106.81 110.412 106.704 109.705 107.093 109.2C107.76 108.333 109.021 107.261 110.724 106.733C112.478 106.189 114.628 106.247 116.932 107.57C117.486 107.889 117.661 108.582 117.324 109.12C116.987 109.657 116.265 109.835 115.711 109.517C113.983 108.524 112.531 108.54 111.419 108.885Z" fill="#905A09"/>
<path fill-rule="evenodd" clip-rule="evenodd" d="M135.554 106.635C134.374 106.936 133.469 107.639 133.027 108.157C132.613 108.641 131.873 108.714 131.373 108.319C130.874 107.925 130.804 107.213 131.218 106.729C131.929 105.897 133.243 104.891 134.97 104.45C136.749 103.996 138.894 104.164 141.127 105.603C141.664 105.949 141.804 106.651 141.44 107.171C141.076 107.69 140.346 107.831 139.809 107.485C138.134 106.405 136.682 106.347 135.554 106.635Z" fill="#905A09"/>
<path d="M108.275 70.5847C120.465 73.5669 126.735 59.5909 149.555 72.2247C155.135 70.8262 144.736 59.0539 157.038 65.7774C166.069 70.7133 158.962 73.37 155.346 73.1036C170.47 80.3033 180.007 111.337 162.748 110.836C141.814 110.228 142.94 81.3431 138.484 88.5011C134.027 95.6591 99.6114 119.739 90.4876 117.503C84.0651 115.929 83.0046 107.651 88.8276 104.547C87.9653 103.804 83.8901 104.977 81.9441 99.374C79.998 93.7713 92.3405 82.024 97.8231 78.8799C97.0393 72.7618 95.3845 67.4309 108.275 70.5847Z" fill="black"/>
<path d="M113.96 151.707C113.291 148.692 115.301 145.738 118.35 145.252L138.3 142.075L158.33 136.373C161.274 135.535 164.316 137.349 164.979 140.337V140.337C165.498 142.678 164.388 145.076 162.267 146.194L147.373 154.047C143.198 156.248 138.491 157.243 133.782 156.92L118.826 155.894C116.455 155.731 114.474 154.027 113.96 151.707V151.707Z" fill="#D7D7D7"/>
<path fill-rule="evenodd" clip-rule="evenodd" d="M64.3602 148.029C63.1904 149.958 63.8077 152.466 65.7389 153.631L69.4398 155.863C67.7549 155.416 65.9072 156.105 64.9581 157.671C63.9301 159.366 64.3034 161.515 65.7468 162.773C64.8097 163.045 63.9678 163.655 63.4226 164.554C62.4844 166.102 62.7133 168.027 63.8577 169.308C63.0938 169.625 62.4203 170.179 61.9591 170.939C60.807 172.839 61.4149 175.309 63.3168 176.456L73.7194 182.73C74.1368 182.982 74.5819 183.149 75.0346 183.236C81.7502 187.02 90.3153 184.806 94.3402 178.169C97.8319 172.411 96.7807 165.181 92.2107 160.641L89.8659 150.596C89.281 148.091 86.8601 146.822 84.4586 147.762C82.2692 148.619 80.8518 151.016 81.0615 153.331L69.9754 146.644C68.0441 145.48 65.5301 146.099 64.3602 148.029Z" fill="#FAFAFA"/>
<path fill-rule="evenodd" clip-rule="evenodd" d="M69.7529 156.423C69.9185 156.15 70.2742 156.062 70.5475 156.227L78.7061 161.148C79.1459 161.413 79.634 161.796 79.8982 162.378C80.1727 162.983 80.3606 163.79 80.1809 164.651C79.9978 165.528 79.4474 166.391 78.3709 167.108C78.105 167.285 77.7459 167.214 77.5687 166.949C77.3916 166.683 77.4636 166.325 77.7296 166.148C78.5861 165.577 78.9347 164.961 79.0482 164.417C79.1651 163.857 79.0469 163.303 78.8441 162.856C78.7218 162.586 78.4686 162.355 78.1067 162.136L69.948 157.216C69.6748 157.051 69.5874 156.696 69.7529 156.423Z" fill="#E5E5E5"/>
<path fill-rule="evenodd" clip-rule="evenodd" d="M65.1862 169.968C65.3517 169.695 65.7075 169.607 65.9807 169.772L72.7612 173.861C73.2947 174.183 73.8322 174.632 74.1517 175.271C74.488 175.943 74.7335 176.773 74.5726 177.622C74.4062 178.501 73.827 179.289 72.7373 179.892C72.4577 180.047 72.1057 179.947 71.951 179.668C71.7964 179.389 71.8977 179.037 72.1773 178.883C73.0295 178.411 73.3458 177.884 73.4357 177.409C73.5312 176.905 73.3941 176.343 73.1164 175.788C72.9315 175.418 72.5946 175.111 72.1618 174.85L65.3813 170.76C65.108 170.595 65.0207 170.241 65.1862 169.968Z" fill="#E5E5E5"/>
<path fill-rule="evenodd" clip-rule="evenodd" d="M82.6186 157.287C82.9338 157.235 83.2316 157.447 83.2839 157.762L84.0904 162.613L83.9794 162.796C83.374 163.795 82.7045 165.488 82.6753 167.279C82.6465 169.043 83.2354 170.889 85.1322 172.311C85.3875 172.502 85.4387 172.864 85.2465 173.119C85.0544 173.374 84.6917 173.426 84.4364 173.234C82.1919 171.552 81.4848 169.325 81.5184 167.261C81.5499 165.332 82.225 163.534 82.8796 162.387L82.1425 157.952C82.0902 157.638 82.3034 157.34 82.6186 157.287Z" fill="#E5E5E5"/>
<path fill-rule="evenodd" clip-rule="evenodd" d="M66.5118 162.797C66.6774 162.524 67.0331 162.437 67.3064 162.601L76.047 167.873C76.526 168.162 77.0173 168.57 77.3049 169.159C77.6178 169.799 77.8772 170.658 77.7241 171.509C77.5615 172.411 76.9542 173.194 75.7638 173.652C75.4655 173.767 75.1309 173.618 75.0164 173.321C74.9019 173.023 75.0508 172.689 75.3491 172.574C76.2095 172.244 76.503 171.763 76.5853 171.306C76.6771 170.796 76.5253 170.199 76.2647 169.666C76.1126 169.354 75.8274 169.091 75.4475 168.862L66.7069 163.59C66.4336 163.425 66.3463 163.07 66.5118 162.797Z" fill="#E5E5E5"/>
<path fill-rule="evenodd" clip-rule="evenodd" d="M197.304 139.832C197.067 139.738 196.815 139.667 196.552 139.622L170.494 135.2C162.715 133.88 158.408 139.349 157.159 146.784C155.911 154.219 158.193 160.806 165.972 162.126L183.723 165.138L184.55 180.689C184.662 182.798 186.103 184.434 187.768 184.343L205.865 183.35C207.53 183.259 208.79 181.475 208.678 179.366L207.176 151.104C206.793 143.896 202.656 140.454 197.304 139.832Z" fill="#FAFAFA"/>
<path fill-rule="evenodd" clip-rule="evenodd" d="M175.98 205.683C177.629 206.897 179.957 206.55 181.179 204.908L182.747 202.803C182.425 204.192 182.931 205.701 184.155 206.603C185.804 207.816 188.132 207.469 189.355 205.827L192.647 201.407C192.86 201.694 193.12 201.955 193.423 202.179C195.072 203.392 197.4 203.045 198.623 201.403L205.311 192.423C205.58 192.063 205.772 191.67 205.893 191.264C209.966 185.444 208.677 177.426 202.917 173.186C197.92 169.507 191.17 169.858 186.589 173.652L177.133 174.947C174.775 175.27 173.394 177.376 174.05 179.651C174.647 181.725 176.73 183.223 178.881 183.227L171.752 192.798C170.511 194.465 170.861 196.816 172.535 198.048C173.917 199.065 175.768 199.003 177.071 198.013L175.209 200.513C173.986 202.155 174.332 204.47 175.98 205.683Z" fill="#F2F2F2"/>
<path d="M126.949 173.372C126.018 168.875 128.909 164.476 133.405 163.545L156.2 158.826C160.696 157.896 165.096 160.786 166.026 165.282L169.06 179.936C169.991 184.433 167.1 188.832 162.604 189.763L139.809 194.481C135.313 195.412 130.913 192.522 129.982 188.026L126.949 173.372Z" fill="#D7D7D7"/>
<path d="M133.254 179.281C132.836 177.257 134.136 175.278 136.16 174.859L142.672 173.511C144.696 173.092 146.676 174.392 147.094 176.416V176.416C147.513 178.439 146.213 180.419 144.189 180.838L137.676 182.186C135.653 182.605 133.673 181.304 133.254 179.281V179.281Z" fill="#BBBBBB"/>
<path d="M133.254 179.281C132.836 177.257 134.136 175.278 136.16 174.859V174.859C138.183 174.44 140.163 175.741 140.581 177.764V177.764C141 179.787 139.7 181.767 137.676 182.186V182.186C135.653 182.605 133.673 181.304 133.254 179.281V179.281Z" fill="#7E7E7E"/>
<path fill-rule="evenodd" clip-rule="evenodd" d="M151.153 160.34C151.55 160.11 152.059 160.245 152.29 160.642C152.402 160.836 152.495 161.116 152.573 161.375C152.659 161.662 152.754 162.023 152.854 162.436C153.055 163.264 153.288 164.339 153.533 165.534C154.023 167.927 154.568 170.834 155.013 173.289C155.317 174.963 154.96 176.685 154.028 178.104L152.749 180.051C152.022 181.157 151.765 182.506 152.033 183.801L153.398 190.396C153.491 190.846 153.202 191.286 152.753 191.379C152.303 191.472 151.863 191.183 151.77 190.733L150.405 184.138C150.047 182.411 150.391 180.612 151.359 179.138L152.639 177.191C153.339 176.126 153.604 174.836 153.377 173.586C152.932 171.136 152.391 168.243 151.904 165.868C151.661 164.68 151.432 163.628 151.238 162.829C151.141 162.428 151.054 162.1 150.98 161.853C150.943 161.729 150.911 161.633 150.885 161.562C150.861 161.498 150.849 161.473 150.849 161.473C150.849 161.473 150.85 161.474 150.851 161.477C150.621 161.08 150.756 160.571 151.153 160.34Z" fill="#B1B1B1"/>
<path d="M224.678 237.484L220.683 238.074C218.038 238.465 215.583 236.636 215.199 233.989L212.887 218.036C212.502 215.383 214.343 212.916 216.994 212.53L241.631 208.942C244.273 208.557 246.722 210.385 247.105 213.029L253.609 257.905C253.965 260.361 252.399 262.786 249.92 262.83C239.106 263.021 232.419 252.672 230.758 242.368C230.28 239.404 227.647 237.044 224.678 237.484Z" fill="#D7D7D7"/>
<path fill-rule="evenodd" clip-rule="evenodd" d="M182.494 246.885C173.948 248.646 167.64 255.528 165.577 258.738C165.328 259.125 164.814 259.236 164.428 258.988C164.041 258.74 163.93 258.225 164.178 257.839C166.373 254.423 173.009 247.141 182.159 245.257C182.609 245.164 183.048 245.454 183.141 245.903C183.234 246.353 182.944 246.793 182.494 246.885Z" fill="#B1B1B1"/>
<path fill-rule="evenodd" clip-rule="evenodd" d="M215.511 215.549C213.711 224.087 217.501 232.618 219.62 235.793C219.875 236.175 219.773 236.691 219.391 236.946C219.009 237.201 218.493 237.098 218.238 236.716C215.983 233.339 211.957 224.347 213.884 215.206C213.978 214.757 214.419 214.469 214.868 214.564C215.318 214.659 215.605 215.099 215.511 215.549Z" fill="#B1B1B1"/>
<rect x="95.5" y="133.782" width="13.4671" height="31.5921" rx="6.73354" transform="rotate(163.609 95.5 133.782)" fill="#E5E5E5"/>
<ellipse cx="131.38" cy="109.38" rx="43.3749" ry="33.4355" transform="rotate(-11.7679 131.38 109.38)" fill="white" fill-opacity="0.4"/>
<path fill-rule="evenodd" clip-rule="evenodd" d="M140.192 147.577C167.768 141.832 185.875 116.779 180.633 91.6196C175.392 66.4604 148.788 50.7221 121.211 56.467C93.6346 62.2119 75.5282 87.2647 80.7696 112.424C86.0109 137.583 112.615 153.321 140.192 147.577ZM95.9813 99.3391C107.035 87.0215 127.412 75.4296 156.31 87.098C163.217 89.8868 167.734 96.401 169.253 103.693C170.872 111.464 169.012 119.73 163.286 125.229C151.038 136.992 132.474 148.088 106.232 137.909C98.4245 134.88 93.442 127.452 91.7339 119.253C90.2688 112.22 91.1833 104.686 95.9813 99.3391Z" fill="#FAFAFA"/>
<path fill-rule="evenodd" clip-rule="evenodd" d="M115.235 91.0533C115.617 92.1357 115.049 93.3229 113.966 93.705C110.782 94.8289 107.173 97.2393 104.183 99.9801C102.701 101.339 101.416 102.738 100.441 104.039C99.445 105.369 98.8652 106.477 98.6525 107.257C98.3505 108.364 97.2079 109.017 96.1004 108.715C94.993 108.413 94.3401 107.27 94.6421 106.163C95.053 104.656 95.98 103.062 97.114 101.547C98.2701 100.004 99.7385 98.4152 101.374 96.9158C104.62 93.9409 108.701 91.1552 112.583 89.7851C113.665 89.403 114.853 89.9708 115.235 91.0533Z" fill="white"/>
<path fill-rule="evenodd" clip-rule="evenodd" d="M175.335 64.8721C173.497 64.8374 171.8 63.6531 171.201 61.8063C170.445 59.477 171.721 56.9761 174.05 56.2202C176.379 55.4644 178.88 56.7399 179.636 59.0692C180.372 61.3356 179.184 63.7646 176.973 64.5903L180.634 85.9663L178.995 86.247L175.335 64.8721Z" fill="#ACACAC"/>
<rect x="160.188" y="84.7178" width="22.447" height="35.749" rx="11.2235" transform="rotate(-11.7679 160.188 84.7178)" fill="#E5E5E5"/>
<rect x="164.324" y="83.8486" width="18.2902" height="31.5921" rx="9.14509" transform="rotate(-11.7679 164.324 83.8486)" fill="#FAFAFA"/>
</g>
<path d="M8.07091 56.6325C7.83867 55.6782 9.07228 55.0086 9.87116 55.6553L13.0251 58.2086C13.3824 58.4979 13.9019 58.543 14.3119 58.3204L17.9316 56.3556C18.8484 55.858 19.9233 56.7281 19.5002 57.6255L17.8298 61.1683C17.6405 61.5696 17.7543 62.0372 18.1116 62.3264L21.2655 64.8797C22.0644 65.5264 21.4951 66.7338 20.4347 66.6417L16.2484 66.278C15.7742 66.2368 15.325 66.4806 15.1358 66.8819L13.4654 70.4247C13.0423 71.3221 11.6156 71.1982 11.3833 70.2439L10.4665 66.4763C10.3626 66.0495 9.9712 65.7326 9.49699 65.6914L5.31067 65.3277C4.25029 65.2356 3.93782 63.9516 4.85466 63.4539L8.47432 61.4891C8.88435 61.2666 9.09164 60.8269 8.98778 60.4001L8.07091 56.6325Z" fill="#FFDA79"/>
<path d="M152.376 321.256C153.302 320.773 154.36 321.661 153.919 322.551L152.179 326.066C151.982 326.464 152.086 326.933 152.438 327.228L155.541 329.834C156.327 330.494 155.734 331.691 154.675 331.582L150.497 331.148C150.024 331.099 149.57 331.336 149.373 331.734L147.632 335.248C147.192 336.138 145.768 335.991 145.554 335.033L144.712 331.25C144.617 330.822 144.231 330.499 143.758 330.449L139.58 330.016C138.521 329.906 138.234 328.617 139.161 328.135L142.819 326.231C143.233 326.015 143.449 325.579 143.354 325.151L142.511 321.368C142.298 320.41 143.545 319.761 144.331 320.421L147.434 323.027C147.785 323.322 148.304 323.376 148.718 323.16L152.376 321.256Z" fill="#FFDA79"/>
<path d="M27.1848 82.9125C27.3026 82.4021 28.063 82.3282 28.2945 82.8047L29.2084 84.686C29.3119 84.8991 29.5531 85.0267 29.8059 85.0022L32.0371 84.7856C32.6023 84.7307 32.9137 85.3719 32.4916 85.7212L30.8252 87.1005C30.6364 87.2568 30.5787 87.5068 30.6822 87.7199L31.5961 89.6012C31.8276 90.0777 31.2597 90.5477 30.7673 90.2871L28.8235 89.2583C28.6033 89.1418 28.3264 89.1687 28.1377 89.3249L26.4712 90.7042C26.0491 91.0536 25.3867 90.7029 25.5045 90.1925L25.9696 88.1774C26.0223 87.9491 25.9089 87.7157 25.6887 87.5992L23.7449 86.5704C23.2525 86.3098 23.411 85.623 23.9762 85.5681L26.2075 85.3515C26.4602 85.327 26.667 85.1558 26.7197 84.9276L27.1848 82.9125Z" fill="#FFDA79"/>
<path d="M51.2216 322.244C51.7413 321.754 52.6397 322.161 52.5325 322.838L52.1096 325.508C52.0617 325.811 52.2314 326.107 52.53 326.243L55.1659 327.437C55.8336 327.74 55.6894 328.65 54.9556 328.765L52.0583 329.221C51.7301 329.273 51.4754 329.513 51.4275 329.815L51.0046 332.486C50.8975 333.163 49.9101 333.318 49.5636 332.713L48.1959 330.324C48.041 330.053 47.7139 329.905 47.3857 329.957L44.4884 330.413C43.7545 330.528 43.2884 329.714 43.8082 329.225L45.8602 327.292C46.0926 327.074 46.1451 326.742 45.9902 326.472L44.6225 324.083C44.2761 323.478 44.9754 322.819 45.6431 323.122L48.279 324.316C48.5776 324.452 48.9371 324.395 49.1695 324.176L51.2216 322.244Z" fill="#FFDA79"/>
<path d="M9.71374 249.918C10.2335 249.428 11.1318 249.835 11.0247 250.512L10.6018 253.182C10.5539 253.485 10.7236 253.781 11.0222 253.917L13.6581 255.111C14.3258 255.414 14.1816 256.324 13.4478 256.439L10.5505 256.895C10.2223 256.947 9.96763 257.187 9.91972 257.489L9.4968 260.16C9.38967 260.836 8.40225 260.992 8.05582 260.387L6.68812 257.998C6.53319 257.727 6.20609 257.579 5.87789 257.631L2.9806 258.087C2.24673 258.202 1.78061 257.388 2.30037 256.899L4.35238 254.966C4.58483 254.747 4.63731 254.416 4.48238 254.145L3.11468 251.757C2.76825 251.151 3.46759 250.493 4.13525 250.796L6.77116 251.99C7.06975 252.125 7.42929 252.069 7.66173 251.85L9.71374 249.918Z" fill="#FFDA79"/>
<path d="M297.768 160.08C298.288 159.59 299.187 159.997 299.079 160.674L298.656 163.344C298.609 163.647 298.778 163.943 299.077 164.079L301.713 165.273C302.38 165.576 302.236 166.486 301.502 166.601L298.605 167.057C298.277 167.109 298.022 167.349 297.974 167.651L297.551 170.322C297.444 170.998 296.457 171.154 296.111 170.549L294.743 168.16C294.588 167.889 294.261 167.741 293.933 167.793L291.035 168.249C290.301 168.364 289.835 167.55 290.355 167.061L292.407 165.128C292.64 164.909 292.692 164.578 292.537 164.307L291.169 161.919C290.823 161.314 291.522 160.655 292.19 160.958L294.826 162.152C295.124 162.287 295.484 162.231 295.716 162.012L297.768 160.08Z" fill="#FFDA79"/>
<path d="M259.634 310.105C259.878 309.875 260.299 310.066 260.249 310.383L260.051 311.635C260.028 311.777 260.108 311.916 260.248 311.979L261.483 312.539C261.796 312.681 261.729 313.108 261.385 313.162L260.027 313.376C259.873 313.4 259.753 313.512 259.731 313.654L259.533 314.906C259.482 315.223 259.02 315.296 258.857 315.013L258.216 313.893C258.143 313.766 257.99 313.696 257.836 313.721L256.478 313.934C256.134 313.989 255.915 313.607 256.159 313.377L257.121 312.472C257.23 312.369 257.255 312.214 257.182 312.087L256.541 310.967C256.378 310.683 256.706 310.375 257.019 310.516L258.255 311.076C258.395 311.14 258.563 311.113 258.672 311.011L259.634 310.105Z" fill="#FFDA79"/>
<path d="M225.548 136.486C225.792 136.256 226.213 136.447 226.163 136.764L225.965 138.016C225.942 138.158 226.022 138.297 226.162 138.36L227.398 138.92C227.71 139.062 227.643 139.489 227.299 139.543L225.941 139.757C225.787 139.781 225.667 139.893 225.645 140.035L225.447 141.287C225.397 141.604 224.934 141.677 224.771 141.393L224.13 140.274C224.057 140.147 223.904 140.077 223.75 140.101L222.392 140.315C222.048 140.369 221.83 139.988 222.073 139.758L223.035 138.852C223.144 138.75 223.169 138.594 223.096 138.468L222.455 137.348C222.293 137.064 222.62 136.755 222.933 136.897L224.169 137.457C224.309 137.521 224.478 137.494 224.587 137.392L225.548 136.486Z" fill="#FFDA79"/>
<path d="M239.072 114.244C239.509 113.831 240.266 114.174 240.176 114.744L239.819 116.993C239.779 117.247 239.922 117.497 240.173 117.611L242.393 118.617C242.955 118.872 242.834 119.638 242.216 119.735L239.776 120.119C239.5 120.163 239.285 120.365 239.245 120.62L238.889 122.868C238.799 123.438 237.967 123.569 237.675 123.059L236.524 121.048C236.393 120.82 236.118 120.695 235.841 120.739L233.402 121.123C232.784 121.22 232.391 120.534 232.829 120.122L234.557 118.495C234.753 118.311 234.797 118.032 234.666 117.804L233.515 115.792C233.223 115.283 233.812 114.728 234.374 114.983L236.594 115.989C236.845 116.103 237.148 116.055 237.344 115.871L239.072 114.244Z" fill="#FFDA79"/>
<path d="M246.439 30.4964C246.683 30.2669 247.104 30.4578 247.054 30.7749L246.855 32.0268C246.833 32.1687 246.912 32.3076 247.052 32.3711L248.288 32.931C248.601 33.0729 248.534 33.4995 248.19 33.5537L246.831 33.7675C246.677 33.7917 246.558 33.9041 246.536 34.0459L246.337 35.2978C246.287 35.615 245.824 35.6878 245.662 35.4042L245.021 34.2843C244.948 34.1575 244.795 34.088 244.641 34.1122L243.283 34.326C242.939 34.3801 242.72 33.9985 242.964 33.769L243.926 32.8632C244.035 32.7605 244.059 32.6052 243.987 32.4783L243.346 31.3585C243.183 31.0749 243.511 30.7661 243.824 30.908L245.06 31.468C245.2 31.5314 245.368 31.5049 245.477 31.4023L246.439 30.4964Z" fill="#FFDA79"/>
<path d="M81.5172 1.22393C81.7609 0.994485 82.182 1.18533 82.1318 1.50244L81.9335 2.75438C81.9111 2.8962 81.9906 3.03516 82.1306 3.0986L83.3663 3.65857C83.6792 3.80041 83.6117 4.22709 83.2677 4.28123L81.9095 4.495C81.7556 4.51921 81.6362 4.63162 81.6138 4.77344L81.4155 6.02538C81.3653 6.34249 80.9024 6.41534 80.74 6.1317L80.0989 5.01187C80.0262 4.88502 79.8729 4.81553 79.719 4.83974L78.3608 5.05351C78.0168 5.10765 77.7983 4.72601 78.042 4.49656L79.0039 3.5907C79.1129 3.48809 79.1375 3.33273 79.0648 3.20588L78.4237 2.08605C78.2613 1.8024 78.5891 1.49368 78.9021 1.63552L80.1378 2.1955C80.2778 2.25893 80.4463 2.2324 80.5553 2.12979L81.5172 1.22393Z" fill="#FFDA79"/>
<path d="M81.5172 266.7C81.7609 266.47 82.182 266.661 82.1318 266.978L81.9335 268.23C81.9111 268.372 81.9906 268.511 82.1306 268.574L83.3663 269.134C83.6792 269.276 83.6117 269.703 83.2677 269.757L81.9095 269.971C81.7556 269.995 81.6362 270.107 81.6138 270.249L81.4155 271.501C81.3653 271.818 80.9024 271.891 80.74 271.607L80.0989 270.487C80.0262 270.361 79.8729 270.291 79.719 270.315L78.3608 270.529C78.0168 270.583 77.7983 270.202 78.042 269.972L79.0039 269.066C79.1129 268.964 79.1375 268.808 79.0648 268.681L78.4237 267.562C78.2613 267.278 78.5891 266.969 78.9021 267.111L80.1378 267.671C80.2778 267.735 80.4463 267.708 80.5553 267.605L81.5172 266.7Z" fill="#FFDA79"/>
<path d="M60.6188 343.415C60.8624 343.186 61.2836 343.377 61.2333 343.694L61.0351 344.946C61.0126 345.088 61.0922 345.227 61.2322 345.29L62.4678 345.85C62.7808 345.992 62.7132 346.418 62.3692 346.473L61.011 346.686C60.8572 346.711 60.7378 346.823 60.7153 346.965L60.5171 348.217C60.4669 348.534 60.004 348.607 59.8416 348.323L59.2004 347.203C59.1278 347.076 58.9744 347.007 58.8206 347.031L57.4624 347.245C57.1184 347.299 56.8999 346.917 57.1435 346.688L58.1055 345.782C58.2144 345.679 58.239 345.524 58.1664 345.397L57.5252 344.277C57.3628 343.994 57.6907 343.685 58.0037 343.827L59.2393 344.387C59.3793 344.45 59.5479 344.424 59.6568 344.321L60.6188 343.415Z" fill="#FFDA79"/>
<path d="M57.3141 204.117C57.5577 203.887 57.9789 204.078 57.9286 204.395L57.7304 205.647C57.7079 205.789 57.7875 205.928 57.9275 205.991L59.1631 206.551C59.4761 206.693 59.4086 207.12 59.0645 207.174L57.7063 207.388C57.5525 207.412 57.4331 207.524 57.4106 207.666L57.2124 208.918C57.1622 209.235 56.6993 209.308 56.5369 209.024L55.8957 207.904C55.8231 207.778 55.6698 207.708 55.5159 207.732L54.1577 207.946C53.8137 208 53.5952 207.619 53.8388 207.389L54.8008 206.483C54.9097 206.381 54.9343 206.225 54.8617 206.098L54.2206 204.979C54.0582 204.695 54.386 204.386 54.699 204.528L55.9347 205.088C56.0746 205.152 56.2432 205.125 56.3521 205.022L57.3141 204.117Z" fill="#FFDA79"/>
<path d="M276.134 299C276.378 298.771 276.799 298.962 276.749 299.279L276.551 300.531C276.528 300.673 276.608 300.812 276.748 300.875L277.983 301.435C278.296 301.577 278.229 302.003 277.885 302.058L276.527 302.271C276.373 302.296 276.253 302.408 276.231 302.55L276.033 303.802C275.982 304.119 275.52 304.192 275.357 303.908L274.716 302.788C274.643 302.661 274.49 302.592 274.336 302.616L272.978 302.83C272.634 302.884 272.415 302.502 272.659 302.273L273.621 301.367C273.73 301.264 273.755 301.109 273.682 300.982L273.041 299.862C272.878 299.579 273.206 299.27 273.519 299.412L274.755 299.972C274.895 300.035 275.063 300.009 275.172 299.906L276.134 299Z" fill="#FFDA79"/>
<path d="M292.333 113.262C293.259 112.78 294.317 113.668 293.876 114.558L292.136 118.073C291.939 118.471 292.043 118.94 292.395 119.235L295.498 121.841C296.284 122.501 295.691 123.698 294.632 123.589L290.454 123.155C289.981 123.106 289.527 123.342 289.33 123.74L287.589 127.255C287.149 128.145 285.725 127.997 285.511 127.039L284.669 123.257C284.574 122.829 284.188 122.505 283.715 122.456L279.537 122.023C278.478 121.913 278.191 120.624 279.118 120.142L282.776 118.238C283.19 118.022 283.406 117.586 283.311 117.157L282.468 113.375C282.255 112.417 283.502 111.768 284.288 112.428L287.391 115.033C287.742 115.329 288.261 115.382 288.675 115.167L292.333 113.262Z" fill="#FFDA79"/>
<defs>
<clipPath id="clip0_2165_27348">
<rect width="237.571" height="299.022" fill="white" transform="translate(30.9688 28.9785)"/>
</clipPath>
</defs>
</svg>
