<svg width="28" height="24" viewBox="0 0 28 24" fill="none" xmlns="http://www.w3.org/2000/svg">
<g clip-path="url(#clip0_2501_101026)">
<path fill-rule="evenodd" clip-rule="evenodd" d="M5.95741 0C2.66722 0 0 2.73785 0 6.11516V14.6762C0 18.0536 2.66722 20.7914 5.95741 20.7914H19.4193C20.6109 22.1594 22.4278 23.5225 25.1105 24.4904C25.3097 24.5623 25.4774 24.2107 25.3169 24.0698C24.3999 23.2648 23.4809 22.0929 23.2091 20.6742C25.9408 20.1175 28 17.6437 28 14.6762V6.11515C28 2.73785 25.3328 0 22.0426 0H5.95741Z" fill="#337AFF"/>
<path d="M13.816 10.7858L13.166 6.75405V4H15.3234V6.75405L14.6873 10.7858H13.816ZM14.2309 15.8293C13.7883 15.8293 13.4702 15.7252 13.2766 15.517C13.0922 15.3087 13 15.0532 13 14.7504V14.4097C13 14.1068 13.0922 13.8513 13.2766 13.6431C13.4702 13.4349 13.7883 13.3307 14.2309 13.3307C14.6734 13.3307 14.9869 13.4349 15.1713 13.6431C15.3649 13.8513 15.4617 14.1068 15.4617 14.4097V14.7504C15.4617 15.0532 15.3649 15.3087 15.1713 15.517C14.9869 15.7252 14.6734 15.8293 14.2309 15.8293Z" fill="white"/>
</g>
<defs>
<clipPath id="clip0_2501_101026">
<rect width="28" height="24" fill="white" transform="matrix(-1 0 0 1 28 0)"/>
</clipPath>
</defs>
</svg>
