<svg width="200" height="185" viewBox="0 0 200 185" fill="none" xmlns="http://www.w3.org/2000/svg">
<rect width="200" height="185" fill="#E8E8E8"/>
<g id="&#237;&#154;&#140;&#236;&#155;&#144;&#234;&#176;&#128;&#236;&#158;&#133;">
<rect width="10709" height="4540" transform="translate(-4548 -1064)" fill="#7C7C7C"/>
<g id="&#237;&#154;&#140;&#236;&#155;&#144;&#234;&#176;&#128;&#236;&#158;&#133;-&#236;&#157;&#184;&#236;&#166;&#157;&#236;&#154;&#148;&#236;&#178;&#173;">
<rect width="1440" height="999" transform="translate(-620 -169)" fill="white"/>
</g>
<g id="Group 427322781">
<ellipse id="Ellipse 1683" cx="72.7995" cy="73.2552" rx="72.7995" ry="73.2552" fill="#F5F8FF"/>
<path id="Rectangle 12729" d="M89.6996 118.455C88.1391 117.258 86.2538 117.083 85.4887 118.065L77.1765 128.736C76.4114 129.719 77.0562 131.486 78.6168 132.684L99.5262 148.733C105.768 153.524 110.893 152.368 113.954 148.439C117.014 144.51 116.851 139.295 110.609 134.504L89.6996 118.455Z" fill="#FFAE4E"/>
<path id="Rectangle 12730" d="M132.66 125.163C133.847 123.594 134.012 121.703 133.027 120.942L122.335 112.669C121.35 111.907 119.59 112.562 118.403 114.132L102.496 135.168C97.7478 141.448 98.928 146.578 102.865 149.624C106.802 152.67 112.005 152.479 116.753 146.199L132.66 125.163Z" fill="#FFAE4E"/>
<g id="Vector">
<path fill-rule="evenodd" clip-rule="evenodd" d="M87.8392 84.6783C86.1547 85.9 85.7864 88.2501 87.0167 89.9273L89.3742 93.1412C88.0979 92.1614 86.2777 92.0891 84.911 93.0804C83.4307 94.154 82.9826 96.1122 83.7639 97.6949C82.8685 97.5919 81.9336 97.8104 81.1484 98.3799C79.7976 99.3596 79.3062 101.076 79.8246 102.572C79.0606 102.569 78.2893 102.8 77.6251 103.281C75.9662 104.484 75.6036 106.799 76.8151 108.45L83.4418 117.484C83.7077 117.847 84.0273 118.147 84.3818 118.383C88.7548 123.989 96.842 125.159 102.638 120.955C107.666 117.309 109.348 110.794 107.072 105.311L108.656 95.9441C109.051 93.608 107.44 91.6678 105.059 91.6107C102.888 91.5586 100.826 93.0895 100.179 95.1304L93.117 85.5029C91.8867 83.8257 89.5238 83.4565 87.8392 84.6783Z" fill="#FFBA68"/>
<path fill-rule="evenodd" clip-rule="evenodd" d="M89.4412 93.7287C89.6796 93.5558 90.0139 93.608 90.188 93.8454L95.3852 100.931C95.6654 101.312 95.9447 101.812 95.9623 102.4C95.9805 103.012 95.8528 103.764 95.3928 104.431C94.9242 105.111 94.1475 105.648 92.9747 105.873C92.685 105.929 92.4044 105.74 92.348 105.452C92.2916 105.164 92.4808 104.885 92.7705 104.829C93.7037 104.65 94.2207 104.25 94.5111 103.829C94.8103 103.395 94.9073 102.882 94.8939 102.43C94.8857 102.158 94.7525 101.871 94.522 101.557L89.3248 94.4714C89.1507 94.2341 89.2028 93.9015 89.4412 93.7287Z" fill="#FF9C27"/>
<path fill-rule="evenodd" clip-rule="evenodd" d="M80.7213 103.605C80.9596 103.433 81.294 103.485 81.4681 103.722L85.7874 109.61C86.1272 110.074 86.4249 110.647 86.4695 111.303C86.5163 111.994 86.4298 112.786 85.9898 113.45C85.5348 114.137 84.7602 114.6 83.6166 114.724C83.3233 114.756 83.0592 114.545 83.0268 114.253C82.9945 113.962 83.2061 113.699 83.4995 113.667C84.3938 113.57 84.8511 113.236 85.0971 112.864C85.3581 112.47 85.4417 111.944 85.403 111.373C85.3772 110.994 85.1999 110.612 84.9242 110.237L80.6049 104.348C80.4308 104.111 80.4829 103.778 80.7213 103.605Z" fill="#FF9C27"/>
<path fill-rule="evenodd" clip-rule="evenodd" d="M100.095 99.0455C100.382 99.113 100.561 99.3994 100.493 99.6852L99.4502 104.093L99.2905 104.209C98.4186 104.841 97.2445 106.041 96.5813 107.551C95.9277 109.04 95.7715 110.817 96.8806 112.7C97.0299 112.954 96.9445 113.279 96.6898 113.428C96.4352 113.576 96.1078 113.49 95.9585 113.237C94.6461 111.008 94.8373 108.866 95.6017 107.125C96.3164 105.497 97.5326 104.211 98.4994 103.47L99.4525 99.4404C99.52 99.1547 99.8078 98.9779 100.095 99.0455Z" fill="#FF9C27"/>
<path fill-rule="evenodd" clip-rule="evenodd" d="M84.4071 97.9879C84.6454 97.815 84.9798 97.8673 85.1539 98.1046L90.7218 105.695C91.0269 106.111 91.3002 106.632 91.3353 107.235C91.3735 107.891 91.2882 108.713 90.8546 109.38C90.3943 110.089 89.5977 110.537 88.4203 110.502C88.1252 110.493 87.8929 110.248 87.9014 109.955C87.9099 109.661 88.156 109.431 88.4511 109.439C89.3021 109.465 89.7235 109.161 89.9566 108.802C90.2164 108.402 90.3 107.841 90.2682 107.295C90.2496 106.976 90.1006 106.651 89.8586 106.321L84.2907 98.7306C84.1166 98.4933 84.1687 98.1608 84.4071 97.9879Z" fill="#FF9C27"/>
</g>
<path id="Rectangle 12729_2" d="M166.803 128.956C165.897 127.217 166.053 125.34 167.15 124.763L179.075 118.501C180.172 117.924 181.797 118.867 182.703 120.606L194.841 143.909C198.465 150.866 196.44 155.682 192.05 157.988C187.659 160.294 182.565 159.216 178.942 152.26L166.803 128.956Z" fill="#FFAE4E"/>
<g id="Group 427322669">
<path id="Rectangle 12729_3" d="M125.545 141.058C124.402 142.367 122.298 142.392 120.844 141.113L105.057 127.225C103.603 125.946 103.352 123.849 104.494 122.54L119.806 105.003C124.377 99.7675 132.795 99.6689 138.608 104.783C144.421 109.896 145.427 118.286 140.856 123.521L125.545 141.058Z" fill="#4C8BFF"/>
<path id="Rectangle 12730_2" d="M164.71 140.698C165.636 142.168 167.711 142.521 169.345 141.484L187.095 130.222C188.729 129.186 189.303 127.153 188.377 125.682L175.971 105.974C172.268 100.09 163.967 98.6818 157.432 102.828C150.897 106.975 148.601 115.105 152.304 120.989L164.71 140.698Z" fill="#4C8BFF"/>
<path id="Rectangle 12728" d="M117.676 124.383C117.676 111.67 120.664 98.9302 131.234 98.9302H160.581C171.151 98.9302 175.516 107.118 175.516 119.83L173.445 157.146C173.289 159.449 171.418 161.367 168.896 161.807C153.042 164.577 139.053 164.577 123.199 161.807C120.705 161.372 117.872 159.421 117.676 157.146V124.383Z" fill="#4C8BFF"/>
</g>
<g id="Group 427322654">
<path id="Rectangle 12727" d="M134.075 91.6785C133.299 86.9351 135.779 82.5784 139.615 81.9476L149.341 80.3485C153.177 79.7176 156.917 83.0515 157.694 87.7949L159.1 96.3835C159.877 101.127 157.397 105.484 153.56 106.114L143.835 107.714C139.998 108.344 136.259 105.011 135.482 100.267L134.075 91.6785Z" fill="#FFAB48"/>
<g id="Group 427322652">
<g id="Group 427322651">
<g id="Group 427322359">
<path id="Ellipse 362" d="M188.068 66.8181C189.344 74.6079 183.823 82.0005 175.737 83.33C167.652 84.6596 160.063 79.4226 158.787 71.6329C157.512 63.8431 163.032 56.4505 171.118 55.121C179.204 53.7914 186.792 59.0284 188.068 66.8181Z" fill="#FF9C27"/>
<path id="Ellipse 370" d="M133.947 71.1892C135.223 78.9789 129.702 86.3716 121.616 87.7011C113.531 89.0307 105.942 83.7937 104.666 76.004C103.391 68.2142 108.911 60.8216 116.997 59.4921C125.082 58.1625 132.671 63.3995 133.947 71.1892Z" fill="#ED8000"/>
<path id="Ellipse 360" d="M180.127 59.9902C183.07 77.963 168.958 95.2457 148.607 98.5922C128.255 101.939 107.01 87.9271 113.296 73.6859C103.692 55.7068 117.597 36.8534 137.948 33.5069C158.3 30.1605 177.184 42.0175 180.127 59.9902Z" fill="#FFBA68"/>
<path id="Ellipse 371" d="M180.387 60.0129C183.345 78.0751 168.862 95.4932 148.039 98.9172C127.216 102.341 105.529 88.3152 111.998 73.9781C102.229 55.9288 116.504 36.9322 137.327 33.5081C158.151 30.0841 177.429 41.9507 180.387 60.0129Z" fill="#FFBA68"/>
<g id="Mask group">
<g id="Mask group_2">
<g id="Mask group_3">
<mask id="mask0_725_17800" style="mask-type:alpha" maskUnits="userSpaceOnUse" x="108" y="32" width="73" height="68">
<path id="Ellipse 372" d="M180.389 60.0129C183.347 78.0751 168.864 95.4932 148.041 98.9172C127.218 102.341 105.531 88.3152 112 73.9781C102.231 55.9288 116.506 36.9322 137.329 33.5081C158.153 30.0841 177.431 41.9507 180.389 60.0129Z" fill="#FFBA68"/>
</mask>
<g mask="url(#mask0_725_17800)">
<path id="Ellipse 366" d="M182.198 77.2423C183.443 84.842 178.012 92.0617 170.069 93.3679C162.125 94.6741 154.677 89.5722 153.432 81.9724C152.188 74.3727 157.618 67.153 165.562 65.8468C173.505 64.5407 180.954 69.6426 182.198 77.2423Z" fill="#FF9A24"/>
<path id="Ellipse 366_2" d="M127.676 83.9435C128.921 91.5432 123.49 98.7629 115.546 100.069C107.603 101.375 100.154 96.2733 98.9097 88.6736C97.6651 81.0739 103.096 73.8542 111.039 72.548C118.983 71.2418 126.431 76.3437 127.676 83.9435Z" fill="#FF9A24"/>
</g>
</g>
</g>
</g>
<path id="Ellipse 369" d="M139.229 76.4538C139.363 77.2709 138.784 78.0462 137.936 78.1857C137.088 78.3251 136.292 77.7758 136.158 76.9588C136.024 76.1418 136.603 75.3664 137.452 75.227C138.3 75.0876 139.096 75.6368 139.229 76.4538Z" fill="black"/>
<g id="Vector_2">
<path d="M132.053 70.7776C132.308 72.3326 131.14 73.8193 129.443 74.0982C127.747 74.3771 126.166 73.3426 125.911 71.7875C125.657 70.2325 126.825 68.7458 128.521 68.4669C130.217 68.188 131.799 69.2225 132.053 70.7776Z" fill="black"/>
<path fill-rule="evenodd" clip-rule="evenodd" d="M129.894 67.0002C130.279 67.4646 130.173 68.1393 129.658 68.5071C129.378 68.7071 128.966 69.0898 128.7 69.5267C128.436 69.9607 128.399 70.2965 128.518 70.5642C128.759 71.1071 128.47 71.7395 127.874 71.9768C127.278 72.2141 126.599 71.9665 126.358 71.4236C125.873 70.33 126.218 69.2729 126.676 68.519C127.133 67.7679 127.785 67.1674 128.264 66.8254C128.779 66.4575 129.509 66.5358 129.894 67.0002Z" fill="black"/>
</g>
<g id="Vector_3">
<path d="M152.167 68.9797C152.421 70.5348 151.253 72.0215 149.557 72.3004C147.861 72.5793 146.279 71.5447 146.025 69.9897C145.77 68.4346 146.938 66.9479 148.635 66.669C150.331 66.3902 151.912 67.4247 152.167 68.9797Z" fill="black"/>
<path fill-rule="evenodd" clip-rule="evenodd" d="M150.007 65.2023C150.392 65.6667 150.286 66.3414 149.771 66.7093C149.491 66.9092 149.079 67.2919 148.814 67.7288C148.55 68.1629 148.512 68.4987 148.631 68.7664C148.872 69.3092 148.584 69.9417 147.987 70.179C147.391 70.4163 146.712 70.1686 146.471 69.6258C145.986 68.5321 146.331 67.475 146.789 66.7211C147.246 65.97 147.898 65.3696 148.377 65.0275C148.893 64.6597 149.622 64.7379 150.007 65.2023Z" fill="black"/>
</g>
<path id="Line 43 (Stroke)" fill-rule="evenodd" clip-rule="evenodd" d="M133.279 83.35C139.017 84.3119 144.943 83.5625 150.273 81.2014C150.845 80.9478 151.09 80.3477 150.82 79.8609C150.551 79.3741 149.868 79.185 149.296 79.4385C144.436 81.5918 139.031 82.2751 133.799 81.3979C133.183 81.2946 132.567 81.6479 132.424 82.1869C132.28 82.726 132.663 83.2467 133.279 83.35Z" fill="#A75A00"/>
<path id="Vector 531 (Stroke)" fill-rule="evenodd" clip-rule="evenodd" d="M127.414 63.7257C126.337 64.0656 125.535 64.7638 125.152 65.2665C124.794 65.7367 124.113 65.8423 123.63 65.5024C123.148 65.1625 123.047 64.5058 123.405 64.0356C124.02 63.2277 125.185 62.2271 126.761 61.7295C128.384 61.217 130.378 61.262 132.518 62.4823C133.033 62.7756 133.199 63.4192 132.888 63.9198C132.578 64.4203 131.909 64.5883 131.394 64.2949C129.789 63.3799 128.443 63.4008 127.414 63.7257Z" fill="#905A09"/>
<path id="Vector 532 (Stroke)" fill-rule="evenodd" clip-rule="evenodd" d="M149.658 60.8224C148.581 61.1623 147.78 61.8605 147.397 62.3632C147.038 62.8334 146.357 62.939 145.874 62.5991C145.392 62.2592 145.291 61.6025 145.649 61.1323C146.264 60.3244 147.429 59.3238 149.005 58.8262C150.628 58.3137 152.622 58.3587 154.762 59.579C155.277 59.8723 155.443 60.5159 155.132 61.0165C154.822 61.517 154.153 61.685 153.639 61.3916C152.033 60.4765 150.687 60.4975 149.658 60.8224Z" fill="#905A09"/>
</g>
</g>
<g id="Group 427322532">
<path id="Vector 85" d="M124.22 26.3072C135.873 29.2023 141.993 15.8929 163.753 28.0404C169.11 26.7288 161.443 8.80067 170.688 18.4656C178.084 26.1976 172.756 29.1716 169.293 28.9026C183.724 35.8338 192.61 65.4831 176.08 64.9348C156.03 64.2696 157.342 36.7136 153.015 43.5251C148.688 50.3367 115.522 73.1718 106.799 71.0009C100.659 69.4728 99.7102 61.5708 105.314 58.6325C104.494 57.9204 100.58 59.0224 98.7612 53.6687C96.9422 48.315 108.862 37.1568 114.139 34.1792C113.438 28.3386 111.896 23.2455 124.22 26.3072Z" fill="black"/>
</g>
</g>
</g>
<path id="Vector 653 (Stroke)" fill-rule="evenodd" clip-rule="evenodd" d="M160.782 99.5572C162.112 100.578 162.364 102.486 161.346 103.818L160.293 105.197C157.088 109.39 152.118 111.849 146.847 111.849C141.776 111.849 136.972 109.572 133.755 105.643L132.326 103.898C131.263 102.601 131.452 100.685 132.747 99.6206C134.042 98.5558 135.953 98.7446 137.016 100.042L138.445 101.787C140.509 104.308 143.592 105.77 146.847 105.77C150.23 105.77 153.419 104.192 155.476 101.501L156.529 100.122C157.548 98.7895 159.452 98.5365 160.782 99.5572Z" fill="#337AFF"/>
<path id="Vector 657 (Stroke)" fill-rule="evenodd" clip-rule="evenodd" d="M120.91 114.098C121.301 114.232 121.509 114.658 121.376 115.049C119.259 121.248 118.923 128.797 118.923 136.292C118.923 136.706 118.588 137.041 118.175 137.041C117.762 137.041 117.427 136.706 117.427 136.292C117.427 128.797 117.755 121.023 119.96 114.564C120.094 114.173 120.519 113.964 120.91 114.098Z" fill="#337AFF"/>
<path id="Vector 658 (Stroke)" fill-rule="evenodd" clip-rule="evenodd" d="M161.425 116.577C161.826 116.479 162.231 116.726 162.328 117.129C162.59 118.209 162.805 119.249 163.016 120.266C163.46 122.406 163.883 124.447 164.67 126.559C165.809 129.611 167.701 132.75 171.527 136.208C171.834 136.485 171.858 136.959 171.581 137.266C171.305 137.574 170.832 137.598 170.525 137.321C166.527 133.707 164.494 130.368 163.269 127.083C162.441 124.863 161.979 122.637 161.522 120.437C161.316 119.446 161.111 118.46 160.874 117.482C160.777 117.08 161.023 116.675 161.425 116.577Z" fill="#337AFF"/>
<path id="Vector 686 (Stroke)" fill-rule="evenodd" clip-rule="evenodd" d="M116.448 174.528C114.162 176.071 112.885 178.576 112.395 180.403C112.287 180.803 112.523 181.215 112.921 181.322C113.32 181.429 113.73 181.191 113.837 180.791C114.265 179.197 115.38 177.054 117.279 175.772C119.12 174.53 121.825 174.01 125.672 175.85C129.942 177.891 133.363 177.321 135.877 175.677C138.338 174.068 139.848 171.489 140.499 169.604C140.634 169.212 140.428 168.785 140.038 168.65C139.648 168.515 139.222 168.723 139.087 169.115C138.512 170.781 137.171 173.042 135.064 174.42C133.01 175.763 130.144 176.324 126.317 174.494C122.067 172.463 118.792 172.945 116.448 174.528Z" fill="black"/>
<rect id="Rectangle 12881" width="32.9094" height="22.0769" rx="11.0385" transform="matrix(-1 0 0 1 165.149 152.893)" fill="#393939"/>
<g id="Group 427322777">
<path id="Rectangle 12727_2" d="M125.653 113.16C125.653 109.165 122.435 105.926 118.464 105.926H43.0894C39.1191 105.926 35.9005 109.165 35.9005 113.16V158.902C35.9005 162.897 39.1191 166.136 43.0894 166.136H118.464C122.435 166.136 125.653 162.897 125.653 158.902V113.16Z" fill="#BEBEBE"/>
<rect id="Rectangle 12878" width="89.683" height="14.585" rx="7.29248" transform="matrix(-1 0 0 1 125.653 168.823)" fill="#BEBEBE"/>
<rect id="Rectangle 12879" width="35.5508" height="16.306" rx="8.153" transform="matrix(4.34395e-08 1 1 -4.3985e-08 69.2139 139.653)" fill="#AAAAAA"/>
<path id="Vector 686 (Stroke)_2" fill-rule="evenodd" clip-rule="evenodd" d="M120.218 118.915C119.843 118.915 119.539 119.221 119.539 119.599V153.128C119.539 155.128 118.53 156.992 116.861 158.079C115.913 158.696 114.808 159.024 113.679 159.024H93.9473C93.572 159.024 93.2678 159.33 93.2678 159.707C93.2678 160.085 93.572 160.391 93.9473 160.391H113.679C115.07 160.391 116.431 159.987 117.599 159.227C119.655 157.889 120.897 155.592 120.897 153.128V119.599C120.897 119.221 120.593 118.915 120.218 118.915Z" fill="#A3A3A3"/>
</g>
<g id="Group 427322779">
<g id="Group 427322747">
<path id="Union" fill-rule="evenodd" clip-rule="evenodd" d="M27.6648 72.9487C20.6476 72.9487 14.959 78.6729 14.959 85.7341V103.633C14.959 110.695 20.6476 116.419 27.6648 116.419H56.3762C58.9175 119.279 62.7925 122.129 68.5142 124.153C68.9391 124.303 69.2967 123.568 68.9544 123.273C66.9986 121.59 65.0386 119.14 64.459 116.174C70.285 115.01 74.6768 109.838 74.6768 103.633V85.7341C74.6768 78.6729 68.9882 72.9487 61.971 72.9487H27.6648Z" fill="#337AFF"/>
</g>
</g>
<path id="Rectangle 12882" d="M160.35 162.835C158.395 162.933 156.758 162.003 156.694 160.757L156.001 147.228C155.938 145.983 157.471 144.894 159.427 144.796L185.627 143.483C193.449 143.091 196.968 146.963 197.223 151.944C197.479 156.925 194.372 161.13 186.551 161.522L160.35 162.835Z" fill="#FFAE4E"/>
<g id="Group 427322778">
<path id="Union_2" fill-rule="evenodd" clip-rule="evenodd" d="M146.792 145.794L142.026 149.096C140.882 149.888 140.213 151.347 140.321 152.812C140.384 153.664 140.708 154.445 141.236 155.019L141.497 155.304C141.523 155.331 141.548 155.358 141.574 155.385L138.975 161.061C138.177 162.805 138.934 164.869 140.667 165.673C141.719 166.16 142.888 166.071 143.823 165.536C143.596 167.105 144.481 168.673 146.019 169.24C147.553 169.806 149.231 169.191 150.068 167.854C150.186 169.02 150.896 170.094 152.03 170.619C153.419 171.263 155.017 170.885 155.987 169.795C156.326 170.41 156.855 170.926 157.538 171.243C159.245 172.034 161.266 171.283 162.052 169.566L166.352 160.174C166.524 159.797 166.623 159.405 166.654 159.014C169.206 152.976 166.538 145.951 160.576 143.187C155.772 140.96 150.267 142.167 146.792 145.794Z" fill="#FFBA68"/>
<path id="Vector 661 (Stroke)" fill-rule="evenodd" clip-rule="evenodd" d="M156.862 169.591C156.608 169.647 156.356 169.485 156.3 169.23C156.194 168.744 156.108 167.936 156.178 167.032C156.248 166.128 156.475 165.095 157.023 164.189C157.159 163.965 157.448 163.894 157.671 164.03C157.893 164.166 157.963 164.458 157.828 164.681C157.382 165.42 157.18 166.293 157.117 167.105C157.055 167.917 157.134 168.632 157.22 169.026C157.276 169.281 157.116 169.534 156.862 169.591Z" fill="#FF9C27"/>
<path id="Vector 662 (Stroke)" fill-rule="evenodd" clip-rule="evenodd" d="M150.646 167.874C150.388 167.903 150.155 167.716 150.126 167.456C150.071 166.962 150.071 166.148 150.236 165.257C150.4 164.366 150.735 163.363 151.375 162.52C151.533 162.312 151.829 162.272 152.036 162.431C152.242 162.59 152.282 162.887 152.124 163.095C151.602 163.782 151.31 164.629 151.162 165.43C151.015 166.23 151.018 166.95 151.062 167.351C151.091 167.611 150.905 167.845 150.646 167.874Z" fill="#FF9C27"/>
<path id="Vector 663 (Stroke)" fill-rule="evenodd" clip-rule="evenodd" d="M144.831 164.541C144.571 164.552 144.351 164.349 144.34 164.088C144.319 163.591 144.375 162.78 144.599 161.902C144.824 161.024 145.226 160.046 145.922 159.249C146.094 159.053 146.392 159.033 146.587 159.206C146.782 159.379 146.801 159.679 146.63 159.875C146.063 160.524 145.713 161.349 145.512 162.138C145.31 162.926 145.265 163.645 145.282 164.047C145.293 164.309 145.091 164.53 144.831 164.541Z" fill="#FF9C27"/>
</g>
<g id="Title">
<path id="Vector_4" d="M68.7006 95.5068L68.2631 92.8576V91.0479H69.7153V92.8576L69.2871 95.5068H68.7006ZM68.9799 97.671C68.682 97.671 68.4679 97.6026 68.3376 97.4658C68.2134 97.329 68.1514 97.161 68.1514 96.962V96.7382C68.1514 96.5392 68.2134 96.3712 68.3376 96.2344C68.4679 96.0976 68.682 96.0292 68.9799 96.0292C69.2778 96.0292 69.4888 96.0976 69.6129 96.2344C69.7433 96.3712 69.8084 96.5392 69.8084 96.7382V96.962C69.8084 97.161 69.7433 97.329 69.6129 97.4658C69.4888 97.6026 69.2778 97.671 68.9799 97.671Z" fill="white"/>
<path id="Vector_5" d="M62.5527 97.5591V91.0479H66.9746V92.3072H63.9677V93.6411H66.5464V94.8911H63.9677V96.2997H66.9746V97.5591H62.5527Z" fill="white"/>
<path id="Vector_6" d="M59.8239 92.3072V97.5591H58.4089V92.3072H56.6494V91.0479H61.5833V92.3072H59.8239Z" fill="white"/>
<path id="Vector_7" d="M51.4609 97.5591V91.0479H55.8829V92.3072H52.8759V93.6411H55.4546V94.8911H52.8759V96.2997H55.8829V97.5591H51.4609Z" fill="white"/>
<path id="Vector_8" d="M46.5244 97.5591V91.0479H47.9394V96.2997H50.4157V97.5591H46.5244Z" fill="white"/>
<path id="Vector_9" d="M40.415 97.5591V91.0479H43.4871C43.7912 91.0479 44.0643 91.1007 44.3063 91.2064C44.5484 91.3059 44.7532 91.4459 44.9207 91.6262C45.0945 91.8066 45.2279 92.0273 45.321 92.2885C45.4141 92.5435 45.4607 92.8234 45.4607 93.1281C45.4607 93.439 45.4141 93.722 45.321 93.977C45.2279 94.2319 45.0945 94.4496 44.9207 94.6299C44.7532 94.8103 44.5484 94.9533 44.3063 95.0591C44.0643 95.1586 43.7912 95.2083 43.4871 95.2083H41.8301V97.5591H40.415ZM41.8301 93.977H43.3195C43.5305 93.977 43.695 93.9241 43.8129 93.8184C43.9371 93.7064 43.9991 93.5447 43.9991 93.3333V92.9229C43.9991 92.7114 43.9371 92.5528 43.8129 92.4471C43.695 92.3352 43.5305 92.2792 43.3195 92.2792H41.8301V93.977Z" fill="white"/>
<path id="Vector_10" d="M37.6475 93.2867H37.6196L37.1448 94.2382L35.8788 96.5423L34.6406 94.2475L34.1472 93.2214H34.1193V97.5591H32.7881V91.0479H34.2869L35.8788 94.0982H35.8974L37.4707 91.0479H38.9788V97.5591H37.6475V93.2867Z" fill="white"/>
<path id="Vector_11" d="M28.7486 97.6711C28.3203 97.6711 27.9294 97.5996 27.5756 97.4566C27.2219 97.3135 26.9209 97.1021 26.6726 96.8222C26.4244 96.5362 26.232 96.1848 26.0954 95.7681C25.9589 95.3452 25.8906 94.8571 25.8906 94.3036C25.8906 93.7501 25.9589 93.265 26.0954 92.8484C26.232 92.4255 26.4244 92.0741 26.6726 91.7942C26.9209 91.5082 27.2219 91.2936 27.5756 91.1506C27.9294 91.0076 28.3203 90.936 28.7486 90.936C29.1768 90.936 29.5678 91.0076 29.9215 91.1506C30.2753 91.2936 30.5763 91.5082 30.8245 91.7942C31.0728 92.0741 31.2652 92.4255 31.4017 92.8484C31.5383 93.265 31.6065 93.7501 31.6065 94.3036C31.6065 94.8571 31.5383 95.3452 31.4017 95.7681C31.2652 96.1848 31.0728 96.5362 30.8245 96.8222C30.5763 97.1021 30.2753 97.3135 29.9215 97.4566C29.5678 97.5996 29.1768 97.6711 28.7486 97.6711ZM28.7486 96.4118C29.1768 96.4118 29.5088 96.2719 29.7447 95.992C29.9867 95.7122 30.1077 95.311 30.1077 94.7887V93.8185C30.1077 93.2961 29.9867 92.895 29.7447 92.6151C29.5088 92.3353 29.1768 92.1954 28.7486 92.1954C28.3203 92.1954 27.9852 92.3353 27.7432 92.6151C27.5073 92.895 27.3894 93.2961 27.3894 93.8185V94.7887C27.3894 95.311 27.5073 95.7122 27.7432 95.992C27.9852 96.2719 28.3203 96.4118 28.7486 96.4118Z" fill="white"/>
<path id="Vector_12" d="M22.8219 97.6711C22.3812 97.6711 21.984 97.6027 21.6303 97.4659C21.2765 97.3229 20.9755 97.1145 20.7273 96.8409C20.479 96.561 20.2867 96.2159 20.1501 95.8054C20.0136 95.3888 19.9453 94.9037 19.9453 94.3502C19.9453 93.803 20.0136 93.3179 20.1501 92.895C20.2867 92.4659 20.479 92.1083 20.7273 91.8222C20.9755 91.5299 21.2765 91.3092 21.6303 91.1599C21.984 91.0107 22.3812 90.936 22.8219 90.936C23.4239 90.936 23.9204 91.0604 24.3114 91.3092C24.7024 91.5517 25.0158 91.9373 25.2516 92.4659L24.0321 93.1002C23.9452 92.8266 23.8087 92.6089 23.6225 92.4472C23.4425 92.2793 23.1756 92.1954 22.8219 92.1954C22.4061 92.1954 22.0709 92.3322 21.8165 92.6058C21.5682 92.8732 21.4441 93.265 21.4441 93.7812V94.826C21.4441 95.3421 21.5682 95.737 21.8165 96.0107C22.0709 96.2781 22.4061 96.4118 22.8219 96.4118C23.1694 96.4118 23.4456 96.3185 23.6504 96.1319C23.8614 95.9392 24.0166 95.7091 24.1159 95.4416L25.2702 96.1133C25.0282 96.6108 24.7086 96.9964 24.3114 97.27C23.9204 97.5374 23.4239 97.6711 22.8219 97.6711Z" fill="white"/>
</g>
</g>
</g>
</svg>
