<svg width="24" height="24" viewBox="0 0 24 24" fill="none" xmlns="http://www.w3.org/2000/svg">
<path d="M14 12.0004C14 12.5768 13.7893 13.1297 13.4142 13.5373C13.0391 13.9449 12.5304 14.1738 12 14.1738C11.4696 14.1738 10.9609 13.9449 10.5858 13.5373C10.2107 13.1297 10 12.5768 10 12.0004C10 11.424 10.2107 10.8712 10.5858 10.4636C10.9609 10.056 11.4696 9.82699 12 9.82699C12.5304 9.82699 13.0391 10.056 13.4142 10.4636C13.7893 10.8712 14 11.424 14 12.0004ZM14 4.17342C14 4.74985 13.7893 5.30267 13.4142 5.71027C13.0391 6.11786 12.5304 6.34685 12 6.34685C11.4696 6.34685 10.9609 6.11786 10.5858 5.71027C10.2107 5.30267 10 4.74985 10 4.17342C10 3.597 10.2107 3.04418 10.5858 2.63658C10.9609 2.22899 11.4696 2 12 2C12.5304 2 13.0391 2.22899 13.4142 2.63658C13.7893 3.04418 14 3.597 14 4.17342ZM14 19.8266C14 20.403 13.7893 20.9558 13.4142 21.3634C13.0391 21.771 12.5304 22 12 22C11.4696 22 10.9609 21.771 10.5858 21.3634C10.2107 20.9558 10 20.403 10 19.8266C10 19.2501 10.2107 18.6973 10.5858 18.2897C10.9609 17.8821 11.4696 17.6532 12 17.6532C12.5304 17.6532 13.0391 17.8821 13.4142 18.2897C13.7893 18.6973 14 19.2501 14 19.8266Z" fill="#1A1A1A"/>
</svg>
