<svg width="12" height="12" viewBox="0 0 12 12" fill="none" xmlns="http://www.w3.org/2000/svg">
<path d="M1.5 0.166016C1.10218 0.166016 0.720644 0.322172 0.43934 0.600133C0.158035 0.878094 0 1.25509 0 1.64819L0 11.1289C1.57612e-05 11.2022 0.0220444 11.2739 0.0632979 11.3348C0.104551 11.3958 0.163175 11.4432 0.23175 11.4712C0.300324 11.4993 0.375766 11.5065 0.448527 11.4922C0.521288 11.4778 0.588098 11.4424 0.6405 11.3905L2.78025 9.27617C2.92087 9.13718 3.1116 9.05908 3.3105 9.05904H10.5C10.8978 9.05904 11.2794 8.90288 11.5607 8.62492C11.842 8.34696 12 7.96996 12 7.57686V1.64819C12 1.25509 11.842 0.878094 11.5607 0.600133C11.2794 0.322172 10.8978 0.166016 10.5 0.166016L1.5 0.166016Z" fill="#4C4C4C"/>
</svg>
