<svg xmlns="http://www.w3.org/2000/svg" width="15" height="17" viewBox="0 0 15 17" fill="none">
  <path d="M1.5 1C1.5 0.723858 1.27614 0.5 1 0.5C0.723858 0.5 0.5 0.723858 0.5 1H1.5ZM1 13H0.5V13.5H1V13ZM14.3536 13.3536C14.5488 13.1583 14.5488 12.8417 14.3536 12.6464L11.1716 9.46447C10.9763 9.2692 10.6597 9.2692 10.4645 9.46447C10.2692 9.65973 10.2692 9.97631 10.4645 10.1716L13.2929 13L10.4645 15.8284C10.2692 16.0237 10.2692 16.3403 10.4645 16.5355C10.6597 16.7308 10.9763 16.7308 11.1716 16.5355L14.3536 13.3536ZM0.5 1V13H1.5V1H0.5ZM1 13.5H14V12.5H1V13.5Z" fill="#999999"/>
</svg>