<svg width="24" height="24" viewBox="0 0 24 24" fill="none" xmlns="http://www.w3.org/2000/svg">
<rect width="24" height="24" rx="12" fill="white"/>
<g clip-path="url(#clip0_1083_5208)">
<path d="M4.79999 14.6377V9.36242C4.8097 9.3245 4.8257 9.28686 4.82856 9.24837C4.84027 9.07471 4.85027 8.90077 4.8577 8.72683C4.87799 8.23837 4.98742 7.7693 5.15627 7.31135C5.39799 6.65551 5.80856 6.12171 6.35427 5.69656C6.9897 5.20097 7.73713 4.97085 8.52713 4.89244C9.02484 4.84311 9.52799 4.84681 10.0288 4.83056C10.2048 4.82486 10.3808 4.83142 10.5568 4.82828C10.6 4.82742 10.6426 4.81003 10.6854 4.80005H13.314C13.3426 4.80974 13.3708 4.82771 13.3997 4.82828C13.8783 4.8394 14.3571 4.84054 14.8354 4.86079C15.1586 4.87447 15.4814 4.90783 15.8028 4.9449C16.256 4.99709 16.6854 5.1428 17.0877 5.34839C17.5197 5.56909 17.8948 5.8685 18.2103 6.24575C18.4931 6.58365 18.7043 6.95606 18.8574 7.36524C19.0914 7.99115 19.1666 8.64243 19.1717 9.3054C19.172 9.36242 19.19 9.41945 19.2 9.47648V14.5521C19.1903 14.5712 19.1731 14.5898 19.172 14.6092C19.1606 14.821 19.1583 15.0335 19.1403 15.2445C19.1183 15.5005 19.1063 15.7606 19.0494 16.0095C18.8631 16.8248 18.5163 17.5516 17.8723 18.1208C17.4874 18.4609 17.0614 18.7179 16.5794 18.8844C15.948 19.1025 15.2931 19.1715 14.6286 19.1715C14.5714 19.1715 14.5143 19.1898 14.4571 19.1998H9.54284C9.51427 19.1901 9.48627 19.1735 9.45713 19.1712C9.0537 19.1413 8.64884 19.1239 8.24685 19.082C7.82256 19.0378 7.41799 18.9086 7.03227 18.7287C6.5597 18.5083 6.15656 18.198 5.81027 17.804C5.55284 17.5108 5.35342 17.1863 5.20627 16.8327C4.93142 16.1732 4.82542 15.4786 4.82856 14.7657C4.82856 14.7229 4.81027 14.6802 4.80027 14.6374L4.79999 14.6377ZM14.4166 17.8892C14.4168 17.8847 14.4174 17.8801 14.4177 17.8758C14.7183 17.8519 15.0188 17.8273 15.3194 17.8042C15.7586 17.7703 16.1723 17.6528 16.5574 17.4378C16.9803 17.2017 17.2957 16.8595 17.5111 16.4321C17.704 16.0497 17.7891 15.6317 17.8254 15.2088C17.8614 14.7911 17.884 14.3705 17.8834 13.9513C17.882 12.5418 17.8663 11.1326 17.8586 9.72314C17.856 9.2478 17.8391 8.77502 17.746 8.30623C17.6434 7.79012 17.4317 7.3316 17.0594 6.95634C16.7323 6.62643 16.3288 6.42996 15.8828 6.30934C15.3366 6.16163 14.7737 6.15137 14.2177 6.14709C12.6534 6.13483 11.0888 6.16135 9.52427 6.1662C9.0897 6.16762 8.65856 6.19015 8.2337 6.28311C7.59427 6.4234 7.05742 6.72509 6.67399 7.27229C6.3557 7.72624 6.21827 8.24208 6.17599 8.77958C6.13227 9.33477 6.12542 9.89309 6.11542 10.4503C6.10599 10.9681 6.10742 11.4862 6.11456 12.004C6.12913 13.0269 6.14856 14.0494 6.1717 15.072C6.1817 15.5139 6.27313 15.9385 6.45199 16.3471C6.68027 16.869 7.0597 17.2471 7.5537 17.5054C7.94142 17.7082 8.37142 17.7946 8.80542 17.8282C9.26227 17.8636 9.72142 17.8841 10.1797 17.8864C11.5917 17.8935 13.004 17.8889 14.4163 17.8889L14.4166 17.8892Z" fill="#020202"/>
<path fill-rule="evenodd" clip-rule="evenodd" d="M8.28654 12.0163C8.27883 9.9855 9.93568 8.22186 12.166 8.3094C14.0548 8.38354 15.7577 9.9279 15.7077 12.1064C15.6625 14.0762 14.0914 15.7361 11.938 15.7127C9.93625 15.6913 8.2974 14.0956 8.28625 12.016L8.28654 12.0163ZM14.3723 12.0112C14.3914 10.6878 13.2963 9.61538 11.9945 9.62764C10.64 9.64019 9.61454 10.6787 9.61083 12.0126C9.6074 13.2998 10.6111 14.3101 11.8617 14.3831C13.2957 14.4672 14.4154 13.2627 14.3725 12.0112H14.3723Z" fill="#020202"/>
<path fill-rule="evenodd" clip-rule="evenodd" d="M14.9723 8.17711C14.9166 7.73484 15.3808 7.27547 15.8768 7.30028C16.2954 7.32138 16.7323 7.69749 16.7188 8.20391C16.7074 8.63278 16.3214 9.06478 15.8206 9.0528C15.3928 9.04254 14.9308 8.66386 14.9726 8.17711H14.9723Z" fill="#020202"/>
</g>
<defs>
<clipPath id="clip0_1083_5208">
<rect width="14.4" height="14.4" fill="white" transform="translate(4.79999 4.80005)"/>
</clipPath>
</defs>
</svg>
