<svg width="20" height="20" viewBox="0 0 20 20" fill="none" xmlns="http://www.w3.org/2000/svg">
<rect width="20" height="20" fill="white"/>
<path d="M16.1416 16.0875C14.8487 17.2801 13.0144 17.9999 10.6125 17.9999C7.53022 17.9999 4.74786 16.2085 3.38281 13.5967L6.09243 11.5194C6.72033 13.4405 8.50679 14.8264 10.6125 14.8264C11.791 14.8264 12.7431 14.539 13.4771 14.0448L16.1416 16.0875Z" fill="#34A853"/>
<path d="M5.85599 10.0001C5.85599 10.5309 5.94055 11.0418 6.09678 11.5195L3.38716 13.5968C2.82218 12.5155 2.5 11.2936 2.5 10.0001C2.5 8.70657 2.82218 7.48472 3.38727 6.40344L6.09678 8.4808C5.94055 8.95853 5.85599 9.46926 5.85599 10.0001Z" fill="#FBBC05"/>
<path d="M16.1236 4.14533L13.823 6.36079C13.0052 5.62141 11.903 5.17359 10.6124 5.17359C8.50658 5.17359 6.72022 6.55943 6.09233 8.48064L3.38281 6.40328C4.74776 3.79147 7.53011 2 10.6124 2C12.853 2 14.7509 2.81426 16.1236 4.14533Z" fill="#EA4335"/>
<path d="M18.4937 10C18.4937 10.5645 18.4523 11.1153 18.369 11.6468C18.0925 13.4101 17.3541 14.9601 16.1317 16.0875L13.4671 14.0448C14.3094 13.4777 14.8646 12.6378 15.1456 11.6468H10.7109V8.68298H18.3967C18.4607 9.11151 18.4937 9.55139 18.4937 10Z" fill="#4285F4"/>
</svg>
