<svg width="232" height="219" viewBox="0 0 232 219" fill="none" xmlns="http://www.w3.org/2000/svg">
<path fill-rule="evenodd" clip-rule="evenodd" d="M175.043 173.554C174.573 173.513 174.1 173.396 173.641 173.195L144.508 160.469C135.811 156.669 135.059 148.318 138.675 140.002C142.292 131.685 148.907 126.553 157.604 130.352L176.691 138.69L187.991 123.53C189.509 121.493 192.046 120.812 193.657 122.008L211.157 135.007C212.768 136.203 212.843 138.824 211.324 140.861L190.979 168.155C186.23 174.526 180.428 175.653 175.043 173.554Z" fill="#E8E8E8"/>
<path fill-rule="evenodd" clip-rule="evenodd" d="M32.1751 151.687C30.8975 153.234 31.4478 155.803 33.4041 157.423L59.6173 179.143C66.2119 184.607 72.5451 183.854 77.4325 179.777L100.905 169.917C109.655 166.241 110.502 157.911 106.976 149.557C103.449 141.202 96.8841 135.985 88.1341 139.661L67.8214 148.194L51.9103 135.011C49.9539 133.39 47.3323 133.33 46.0547 134.877L32.1751 151.687Z" fill="#E8E8E8"/>
<path d="M82.5822 167.741C81.4339 151.365 84.1515 134.682 97.8346 133.722L135.824 131.059C149.507 130.099 155.898 140.25 157.046 156.627L157.734 204.885C157.742 207.866 155.493 210.506 152.267 211.303C131.995 216.31 113.885 217.579 93.1127 215.451C89.844 215.116 86.0009 212.86 85.5416 209.947L82.5822 167.741Z" fill="#FAFAFA"/>
<path d="M100.199 122.959C99.7631 116.749 103.49 111.429 108.523 111.076L121.28 110.181C126.313 109.828 130.746 114.576 131.181 120.786L131.97 132.03C132.405 138.239 128.678 143.56 123.645 143.912L110.888 144.807C105.855 145.16 101.422 140.412 100.987 134.202L100.199 122.959Z" fill="#FFAB48"/>
<path d="M172.847 105.382C172.084 115.576 162.869 123.197 152.266 122.403C141.663 121.608 133.686 112.7 134.45 102.506C135.213 92.3119 144.428 84.6917 155.031 85.4858C165.634 86.28 173.611 95.1879 172.847 105.382Z" fill="#FF9C27"/>
<path d="M103.255 94.3666C102.492 104.561 93.2773 112.181 82.674 111.387C72.0708 110.593 64.0942 101.685 64.8577 91.4906C65.6213 81.2963 74.8358 73.676 85.4391 74.4702C96.0423 75.2644 104.019 84.1723 103.255 94.3666Z" fill="#ED8000"/>
<path d="M164.911 94.3642C163.15 117.885 140.087 135.332 113.398 133.333C86.7101 131.334 64.1816 107.214 76.4465 91.2064C69.8102 65.6451 93.0897 46.1579 119.778 48.1569C146.466 50.1558 166.673 70.8435 164.911 94.3642Z" fill="#FFBA68"/>
<path d="M165.232 94.4713C163.461 118.109 139.89 135.613 112.583 133.568C85.2758 131.523 62.1947 107.249 74.7209 91.1775C67.8968 65.4775 91.6872 45.9229 118.994 47.9681C146.301 50.0134 167.002 70.8336 165.232 94.4713Z" fill="#FFBA68"/>
<mask id="mask0_2354_45939" style="mask-type:alpha" maskUnits="userSpaceOnUse" x="71" y="47" width="95" height="87">
<path d="M165.232 94.4713C163.461 118.109 139.89 135.613 112.583 133.568C85.2758 131.523 62.1947 107.249 74.7209 91.1775C67.8968 65.4775 91.6872 45.9229 118.994 47.9681C146.301 50.0134 167.002 70.8336 165.232 94.4713Z" fill="#FFBA68"/>
</mask>
<g mask="url(#mask0_2354_45939)">
<path fill-rule="evenodd" clip-rule="evenodd" d="M124.213 107.525C117.623 111.207 110.055 112.886 102.513 112.339V112.339C101.704 112.28 101.142 111.655 101.259 110.944C101.376 110.232 102.127 109.703 102.937 109.762V109.762C109.814 110.262 116.716 108.731 122.725 105.372V105.372C123.433 104.977 124.339 105.138 124.75 105.733C125.161 106.327 124.92 107.13 124.213 107.525V107.525Z" fill="#A75A00"/>
<path d="M162.267 116.711C161.522 126.656 152.473 134.086 142.057 133.306C131.64 132.526 123.799 123.831 124.544 113.885C125.289 103.939 134.337 96.5095 144.754 97.2897C155.171 98.0699 163.012 106.765 162.267 116.711Z" fill="#FF9A24"/>
<path d="M91.4564 108.505C90.7114 118.451 81.6629 125.881 71.246 125.101C60.829 124.321 52.9883 115.626 53.7332 105.68C54.4781 95.7344 63.5266 88.3044 73.9436 89.0846C84.3606 89.8648 92.2013 98.5599 91.4564 108.505Z" fill="#FF9A24"/>
</g>
<path d="M108.314 102.605C108.234 103.674 107.267 104.473 106.155 104.39C105.043 104.307 104.207 103.372 104.287 102.303C104.367 101.234 105.333 100.435 106.445 100.518C107.557 100.601 108.394 101.536 108.314 102.605Z" fill="black"/>
<path d="M100.99 93.2702C100.838 95.3053 98.9112 96.82 96.687 96.6534C94.4628 96.4868 92.7833 94.702 92.9357 92.667C93.0882 90.6319 95.0148 89.1172 97.239 89.2838C99.4632 89.4504 101.143 91.2352 100.99 93.2702Z" fill="black"/>
<path fill-rule="evenodd" clip-rule="evenodd" d="M99.4169 87.8565C99.7609 88.5585 99.422 89.3755 98.66 89.6812C98.2459 89.8475 97.6104 90.2036 97.1422 90.6724C96.677 91.1382 96.5277 91.5494 96.5959 91.9227C96.7343 92.6794 96.178 93.3875 95.3535 93.5042C94.529 93.6209 93.7485 93.102 93.6101 92.3452C93.3314 90.8206 94.0879 89.5952 94.8959 88.7862C95.7008 87.9802 96.7059 87.4234 97.4144 87.1391C98.1764 86.8333 99.0729 87.1545 99.4169 87.8565Z" fill="black"/>
<path d="M126.908 97.1452C126.756 99.1803 124.829 100.695 122.605 100.528C120.381 100.362 118.701 98.577 118.854 96.542C119.006 94.5069 120.933 92.9922 123.157 93.1588C125.381 93.3254 127.061 95.1102 126.908 97.1452Z" fill="black"/>
<path fill-rule="evenodd" clip-rule="evenodd" d="M125.335 91.7315C125.679 92.4335 125.34 93.2505 124.578 93.5562C124.164 93.7225 123.528 94.0786 123.06 94.5474C122.595 95.0132 122.446 95.4244 122.514 95.7977C122.652 96.5544 122.096 97.2625 121.271 97.3792C120.447 97.4959 119.666 96.977 119.528 96.2202C119.249 94.6956 120.006 93.4702 120.814 92.6612C121.619 91.8552 122.624 91.2984 123.332 91.0141C124.094 90.7083 124.991 91.0295 125.335 91.7315Z" fill="black"/>
<path fill-rule="evenodd" clip-rule="evenodd" d="M96.2922 82.4864C94.8297 82.57 93.5994 83.1912 92.9579 83.7002C92.3578 84.1763 91.4668 84.0917 90.9678 83.5113C90.4689 82.9308 90.5508 82.0742 91.1509 81.5981C92.182 80.78 93.9649 79.8948 96.1057 79.7724C98.3109 79.6464 100.804 80.3381 103.109 82.5522C103.663 83.0844 103.667 83.9451 103.117 84.4746C102.568 85.0041 101.673 85.0018 101.119 84.4696C99.3904 82.8092 97.6903 82.4065 96.2922 82.4864Z" fill="#905A09"/>
<path fill-rule="evenodd" clip-rule="evenodd" d="M125.118 86.8661C123.653 86.875 122.393 87.4326 121.726 87.9083C121.102 88.3532 120.217 88.2233 119.748 87.6181C119.279 87.0129 119.405 86.1617 120.028 85.7168C121.1 84.9523 122.926 84.1592 125.07 84.1461C127.279 84.1327 129.733 84.9506 131.922 87.2794C132.449 87.8392 132.408 88.699 131.833 89.1997C131.257 89.7005 130.363 89.6526 129.837 89.0928C128.195 87.3465 126.518 86.8576 125.118 86.8661Z" fill="#905A09"/>
<path d="M103.74 36.8667C117.103 43.8866 128.479 29.3931 151.449 50.7655C158.368 50.753 149.647 33.9924 162.055 45.4121C171.164 53.7955 162.097 54.8334 157.953 53.4725C173.517 66.2674 175.639 105.261 155.639 99.6656C131.38 92.8787 141.08 59.4886 133.8 66.5501C126.52 73.6116 79.3568 91.7277 69.356 86.4686C62.3162 82.7666 63.4814 72.7968 71.1798 70.8637C70.3888 69.7465 65.2917 69.9319 64.6466 62.827C64.0016 55.7222 81.8192 45.5932 89.1317 43.5149C89.9929 36.1459 89.609 29.4429 103.74 36.8667Z" fill="black"/>
<path d="M86.8234 133.206C86.9181 129.494 90.1218 126.628 93.8222 126.947L118.032 129.031L143.067 128.19C146.747 128.067 149.771 131.067 149.677 134.747V134.747C149.604 137.63 147.611 140.107 144.812 140.796L124.715 145.745C119.484 147.033 113.998 146.839 108.871 145.184L91.2882 139.507C88.5679 138.629 86.7505 136.064 86.8234 133.206V133.206Z" fill="#D7D7D7"/>
<path d="M95.6954 162.268C95.9143 156.749 100.565 152.453 106.084 152.672L134.062 153.782C139.58 154.001 143.877 158.652 143.658 164.17L142.944 182.156C142.725 187.675 138.074 191.971 132.556 191.752L104.578 190.642C99.0591 190.423 94.763 185.772 94.9819 180.253L95.6954 162.268Z" fill="#D7D7D7"/>
<path d="M101.355 170.998C101.453 168.515 103.546 166.582 106.03 166.68L114.023 166.997C116.507 167.096 118.44 169.189 118.341 171.672V171.672C118.243 174.156 116.15 176.089 113.667 175.99L105.673 175.673C103.19 175.575 101.256 173.482 101.355 170.998V170.998Z" fill="#BBBBBB"/>
<path d="M101.355 170.998C101.453 168.515 103.546 166.582 106.03 166.68V166.68C108.513 166.779 110.446 168.872 110.348 171.355V171.355C110.249 173.838 108.156 175.772 105.673 175.673V175.673C103.19 175.575 101.256 173.482 101.355 170.998V170.998Z" fill="#7E7E7E"/>
<path fill-rule="evenodd" clip-rule="evenodd" d="M127.729 154.082C128.26 153.928 128.814 154.234 128.968 154.764C129.043 155.023 129.071 155.378 129.086 155.702C129.103 156.062 129.109 156.511 129.106 157.022C129.101 158.047 129.06 159.369 128.999 160.836C128.877 163.771 128.668 167.322 128.476 170.318C128.345 172.36 127.428 174.266 125.928 175.651L123.869 177.553C122.7 178.633 122.008 180.133 121.945 181.723L121.624 189.817C121.602 190.369 121.137 190.798 120.585 190.776C120.033 190.755 119.604 190.289 119.626 189.738L119.947 181.643C120.031 179.523 120.954 177.524 122.512 176.084L124.571 174.182C125.697 173.142 126.382 171.715 126.48 170.19C126.672 167.2 126.879 163.666 127.001 160.752C127.062 159.294 127.101 158.001 127.106 157.011C127.109 156.516 127.103 156.107 127.088 155.797C127.081 155.642 127.072 155.52 127.062 155.43C127.053 155.348 127.045 155.316 127.046 155.316C127.046 155.316 127.046 155.318 127.047 155.321C126.893 154.791 127.199 154.236 127.729 154.082Z" fill="#B1B1B1"/>
<ellipse cx="116.464" cy="90.4866" rx="52.1727" ry="40.2173" transform="rotate(2.19926 116.464 90.4866)" fill="white" fill-opacity="0.4"/>
<path fill-rule="evenodd" clip-rule="evenodd" d="M106.892 65.0811C107.024 66.4555 106.017 67.6765 104.642 67.8081C100.598 68.1956 95.6862 69.9614 91.4005 72.2926C89.2763 73.448 87.3695 74.7083 85.8544 75.9441C84.3052 77.2079 83.3069 78.332 82.8322 79.1805C82.1582 80.3855 80.6349 80.8159 79.4299 80.1419C78.2249 79.4678 77.7945 77.9445 78.4686 76.7395C79.3855 75.1005 80.9306 73.5081 82.694 72.0697C84.4916 70.6033 86.6668 69.1756 89.0114 67.9003C93.6633 65.3699 99.2361 63.3032 104.165 62.8309C105.54 62.6993 106.761 63.7067 106.892 65.0811Z" fill="white"/>
<rect x="70.4004" y="109.424" width="16.1986" height="38" rx="8.09931" transform="rotate(177.576 70.4004 109.424)" fill="#E5E5E5"/>
<path fill-rule="evenodd" clip-rule="evenodd" d="M118.549 138.498C152.406 139.798 180.815 115.812 182.001 84.9226C183.187 54.0333 156.702 27.9387 122.845 26.6384C88.9877 25.3382 60.5794 49.3248 59.3931 80.214C58.2069 111.103 84.692 137.198 118.549 138.498ZM80.951 69.3576C97.4297 58.1887 124.581 50.5739 154.925 72.5838C162.178 77.8443 165.559 86.7595 165.215 95.7123C164.849 105.254 160.277 114.362 151.997 119.118C134.285 129.292 109.395 136.856 81.7191 117.355C73.4844 111.553 69.8253 101.435 70.2118 91.3692C70.5434 82.7347 73.7982 74.2055 80.951 69.3576Z" fill="#FAFAFA"/>
<path d="M73.7438 82.9399C74.0104 81.868 75.0955 81.2151 76.1674 81.4818L77.1379 81.7231C78.2098 81.9897 78.8626 83.0748 78.596 84.1467L78.3546 85.1172C78.088 86.1891 77.0029 86.8419 75.931 86.5753L74.9606 86.3339C73.8887 86.0673 73.2359 84.9822 73.5025 83.9103L73.7438 82.9399Z" fill="white"/>
<path fill-rule="evenodd" clip-rule="evenodd" d="M183.587 52.1632C181.452 51.5891 179.815 49.7142 179.652 47.3845C179.446 44.4462 181.661 41.8972 184.599 41.6912C187.538 41.4852 190.087 43.7001 190.293 46.6384C190.493 49.4975 188.401 51.988 185.581 52.31L183.649 78.3244L181.654 78.1762L183.587 52.1632Z" fill="#ACACAC"/>
<rect x="160.156" y="70.9336" width="27" height="43" rx="13.5" transform="rotate(2.19926 160.156 70.9336)" fill="#E5E5E5"/>
<rect x="165.232" y="71.1201" width="22" height="38" rx="11" transform="rotate(2.19926 165.232 71.1201)" fill="#FAFAFA"/>
<path d="M11.0066 86.4824C22.0267 86.6851 27.6846 100.499 20.094 101.893C12.5034 103.288 25.9257 82.2553 34.1504 101.538" stroke="#5991FF" stroke-width="4" stroke-linecap="round"/>
<path fill-rule="evenodd" clip-rule="evenodd" d="M34.6594 87.9234C33.7213 87.3404 33.4341 86.1076 34.018 85.1699L35.2002 83.2714C36.0636 81.8849 35.6366 80.0618 34.2473 79.2028C31.3146 77.3897 30.1556 73.7023 31.5239 70.5379L32.594 68.063C33.0323 67.0493 34.2099 66.5823 35.2242 67.0199C36.2386 67.4575 36.7055 68.634 36.2672 69.6477L35.1971 72.1226C34.616 73.4664 35.1082 75.0324 36.3537 75.8023C39.6252 77.8249 40.6306 82.118 38.5975 85.3829L37.4152 87.2815C36.8314 88.2191 35.5975 88.5065 34.6594 87.9234Z" fill="#F97F7F"/>
<rect x="5.12305" y="56.8418" width="5.0675" height="9.41108" rx="2.53375" transform="rotate(25.979 5.12305 56.8418)" fill="#5991FF"/>
<rect x="43.1641" y="93.9756" width="3.05013" height="5.66452" rx="1.52506" transform="rotate(101.402 43.1641 93.9756)" fill="#FFC266"/>
<rect x="28.1191" y="58.8418" width="3.05013" height="5.66452" rx="1.52506" transform="rotate(10.8393 28.1191 58.8418)" fill="#FFC266"/>
<rect y="79.0039" width="3.05013" height="5.66452" rx="1.52506" transform="rotate(-44.5764 0 79.0039)" fill="#F97F7F"/>
<path fill-rule="evenodd" clip-rule="evenodd" d="M17.5849 139.487C17.5164 141.871 19.1841 143.902 21.4423 144.366C20.6231 145.205 20.1048 146.343 20.0685 147.607C20.006 149.783 21.3895 151.665 23.3482 152.33C22.7372 153.114 22.3616 154.093 22.3308 155.163C22.2541 157.835 24.3579 160.063 27.0298 160.14L41.6442 160.559C42.2307 160.576 42.7958 160.488 43.3215 160.312C52.598 160.304 60.2458 152.917 60.5139 143.582C60.6358 139.337 59.623 135.557 57.5426 132.621C54.1601 127.848 49.3704 123.455 48.6009 117.656L48.4385 116.432C47.6787 113.532 46.3934 110.139 43.4218 109.739C42.2512 109.581 41.1116 109.947 40.2028 111.066C38.2481 113.471 39.1295 118.579 40.2028 121.799C41.2761 125.019 32.205 125.424 32.205 125.424L23.8065 125.182C21.0933 125.105 18.8306 127.241 18.7527 129.954C18.6879 132.21 20.1533 134.154 22.2083 134.79C19.6961 134.899 17.6582 136.934 17.5849 139.487Z" fill="#FAFAFA"/>
<path fill-rule="evenodd" clip-rule="evenodd" d="M21.8879 135.343C21.8985 134.973 22.2071 134.682 22.5771 134.693L34.0699 135.023C34.6666 135.04 35.3741 135.149 35.9742 135.58C36.6223 136.045 37.3043 136.775 37.6333 137.78C37.9686 138.804 37.9112 140.035 37.2079 141.428C37.0412 141.759 36.6381 141.891 36.3077 141.725C35.9772 141.558 35.8445 141.155 36.0113 140.824C36.5753 139.707 36.571 138.843 36.3595 138.197C36.1418 137.532 35.6771 137.017 35.1926 136.669C34.9105 136.466 34.5202 136.377 34.0314 136.363L22.5386 136.033C22.1686 136.022 21.8773 135.713 21.8879 135.343Z" fill="#E5E5E5"/>
<path fill-rule="evenodd" clip-rule="evenodd" d="M25.8607 126.136C25.8713 125.766 26.1798 125.474 26.5498 125.485L36.8798 125.782C37.525 125.8 38.3105 125.927 38.9351 126.453C39.5145 126.94 40.0924 127.673 40.3568 128.653C40.6241 129.643 40.5541 130.825 39.9344 132.167C39.7793 132.503 39.3811 132.65 39.045 132.495C38.709 132.339 38.5623 131.941 38.7175 131.605C39.2217 130.513 39.2386 129.654 39.0627 129.002C38.8839 128.339 38.4886 127.829 38.0719 127.478C37.7926 127.243 37.377 127.137 36.8413 127.121L26.5114 126.825C26.1414 126.814 25.85 126.506 25.8607 126.136Z" fill="#E5E5E5"/>
<path fill-rule="evenodd" clip-rule="evenodd" d="M25.1564 152.236C25.1671 151.866 25.4756 151.575 25.8456 151.585L35.4087 151.86C36.1324 151.881 36.9283 152.029 37.6163 152.486C38.3721 152.988 39.1285 153.708 39.4711 154.689C39.8254 155.704 39.6944 156.872 38.9093 158.154C38.716 158.469 38.3033 158.568 37.9877 158.375C37.6721 158.182 37.573 157.769 37.7664 157.454C38.3855 156.443 38.4018 155.692 38.2056 155.131C37.9977 154.535 37.5059 154.022 36.875 153.603C36.4726 153.336 35.9549 153.217 35.3703 153.2L25.8071 152.925C25.4371 152.915 25.1458 152.606 25.1564 152.236Z" fill="#E5E5E5"/>
<path fill-rule="evenodd" clip-rule="evenodd" d="M40.2656 130.727C40.5534 130.494 40.9754 130.539 41.2082 130.826L44.9293 135.425L44.9222 135.673C44.8818 137.081 45.188 139.256 46.2239 141.154C47.2454 143.025 48.9646 144.616 51.8041 144.986C52.1712 145.033 52.43 145.37 52.3823 145.737C52.3345 146.104 51.9983 146.363 51.6313 146.315C48.2919 145.881 46.2353 143.972 45.0473 141.796C43.9341 139.757 43.5736 137.473 43.5784 135.887L40.1661 131.669C39.9333 131.382 39.9779 130.96 40.2656 130.727Z" fill="#E5E5E5"/>
<path fill-rule="evenodd" clip-rule="evenodd" d="M22.2822 143.939C22.2928 143.569 22.6013 143.278 22.9713 143.289L35.284 143.642C35.9336 143.661 36.6597 143.794 37.2869 144.219C37.9975 144.701 38.7848 145.444 39.1357 146.421C39.508 147.457 39.3456 148.636 38.3695 149.822C38.1344 150.108 37.7121 150.149 37.4262 149.914C37.1403 149.679 37.0992 149.257 37.3343 148.971C38.0475 148.104 38.0681 147.414 37.8742 146.874C37.659 146.275 37.1311 145.733 36.5346 145.328C36.1991 145.101 35.7588 144.997 35.2455 144.982L22.9328 144.629C22.5628 144.618 22.2715 144.309 22.2822 143.939Z" fill="#E5E5E5"/>
<path fill-rule="evenodd" clip-rule="evenodd" d="M224.291 107.447C225.898 109.313 225.695 112.136 223.839 113.754L221.458 115.827C223.095 115.314 224.951 115.781 226.144 117.167C227.751 119.033 227.549 121.856 225.692 123.474L220.693 127.828C221.057 128.058 221.393 128.345 221.689 128.689C223.296 130.554 223.094 133.378 221.237 134.995L211.081 143.842C210.673 144.196 210.22 144.464 209.743 144.645C203.137 150.064 193.403 149.255 187.789 142.736C182.918 137.081 182.719 128.953 186.849 123.111L187.534 111.652C187.705 108.793 190.104 106.944 192.893 107.521C195.435 108.047 197.423 110.408 197.625 112.987L208.449 103.559C210.335 101.917 213.186 102.122 214.818 104.016C216.165 105.58 216.26 107.806 215.192 109.46L218.019 106.997C219.876 105.38 222.684 105.581 224.291 107.447Z" fill="#FAFAFA"/>
<path fill-rule="evenodd" clip-rule="evenodd" d="M217.963 128.21C217.74 127.952 217.351 127.924 217.093 128.148L210.443 133.939C209.94 134.378 209.459 134.95 209.235 135.679C208.988 136.48 208.868 137.438 209.195 138.34C209.533 139.274 210.305 140.034 211.61 140.491C211.931 140.604 212.282 140.433 212.395 140.11C212.507 139.787 212.338 139.434 212.016 139.321C210.988 138.96 210.54 138.433 210.353 137.916C210.155 137.369 210.206 136.713 210.412 136.045C210.543 135.618 210.843 135.23 211.249 134.876L217.9 129.084C218.157 128.86 218.185 128.469 217.963 128.21Z" fill="#E5E5E5"/>
<path fill-rule="evenodd" clip-rule="evenodd" d="M196.654 117.658C196.314 117.66 196.04 117.939 196.041 118.281L196.065 123.743L196.214 123.916C197.061 124.898 198.106 126.632 198.471 128.594C198.831 130.529 198.532 132.671 196.727 134.595C196.494 134.843 196.505 135.235 196.752 135.469C196.999 135.704 197.388 135.692 197.622 135.444C199.745 133.181 200.1 130.615 199.681 128.365C199.288 126.257 198.219 124.414 197.294 123.283L197.272 118.274C197.271 117.932 196.994 117.657 196.654 117.658Z" fill="#E5E5E5"/>
<path fill-rule="evenodd" clip-rule="evenodd" d="M218.198 117.823C218.391 118.045 218.367 118.383 218.145 118.576L210.623 125.112C210.4 125.305 210.063 125.281 209.869 125.059C209.676 124.836 209.7 124.499 209.922 124.306L217.445 117.77C217.667 117.577 218.004 117.6 218.198 117.823Z" fill="#E5E5E5"/>
<path fill-rule="evenodd" clip-rule="evenodd" d="M212.887 112.012C213.081 112.235 213.057 112.572 212.834 112.765L203.7 120.701C203.477 120.895 203.14 120.871 202.947 120.649C202.754 120.426 202.777 120.089 203 119.895L212.134 111.959C212.357 111.766 212.694 111.79 212.887 112.012Z" fill="#E5E5E5"/>
<path fill-rule="evenodd" clip-rule="evenodd" d="M205.828 122.346C203.173 120.493 200.24 119.468 198.369 119.095C198.08 119.037 197.893 118.756 197.95 118.467C198.008 118.178 198.289 117.99 198.578 118.048C200.575 118.446 203.648 119.523 206.439 121.471C209.234 123.421 211.786 126.274 212.639 130.229C212.701 130.517 212.518 130.801 212.23 130.863C211.942 130.926 211.658 130.742 211.596 130.454C210.817 126.844 208.481 124.197 205.828 122.346Z" fill="#E5E5E5"/>
</svg>