<svg width="250" height="250" viewBox="0 0 250 250" fill="none" xmlns="http://www.w3.org/2000/svg">
<g id="Frame 314938">
<rect width="250" height="250" rx="125" fill="#2F364D"/>
<path id="Star 20" d="M141.89 202.207C142.732 201.729 143.694 202.608 143.293 203.49L141.711 206.972C141.531 207.366 141.626 207.831 141.946 208.124L144.768 210.705C145.483 211.359 144.944 212.545 143.981 212.436L140.181 212.007C139.75 211.958 139.338 212.193 139.158 212.587L137.576 216.069C137.175 216.95 135.879 216.804 135.685 215.855L134.919 212.108C134.833 211.684 134.482 211.363 134.052 211.315L130.252 210.885C129.289 210.777 129.028 209.5 129.871 209.022L133.198 207.135C133.574 206.922 133.771 206.49 133.684 206.065L132.918 202.318C132.724 201.369 133.858 200.726 134.573 201.38L137.395 203.961C137.714 204.253 138.186 204.307 138.563 204.093L141.89 202.207Z" fill="#FFDA79"/>
<path id="Star 6" d="M84.6201 14.9048C84.4663 14.2161 85.2836 13.7329 85.8129 14.1996L87.9026 16.0423C88.1393 16.251 88.4835 16.2836 88.7551 16.1229L91.1534 14.705C91.7608 14.3458 92.473 14.9738 92.1926 15.6214L91.0859 18.1782C90.9605 18.4679 91.0359 18.8053 91.2726 19.014L93.3623 20.8567C93.8916 21.3234 93.5144 22.1948 92.8118 22.1283L90.0382 21.8658C89.724 21.8361 89.4264 22.012 89.301 22.3017L88.1943 24.8585C87.914 25.5061 86.9687 25.4166 86.8148 24.7279L86.2073 22.0089C86.1385 21.7009 85.8792 21.4722 85.565 21.4425L82.7913 21.18C82.0888 21.1135 81.8818 20.1869 82.4892 19.8277L84.8874 18.4098C85.1591 18.2491 85.2964 17.9318 85.2276 17.6238L84.6201 14.9048Z" fill="#FFDA79"/>
<path id="Star 14" d="M231.834 135.587C232.307 135.102 233.124 135.505 233.026 136.175L232.642 138.821C232.598 139.121 232.753 139.414 233.024 139.548L235.422 140.732C236.029 141.031 235.898 141.933 235.23 142.047L232.595 142.499C232.297 142.55 232.065 142.788 232.021 143.088L231.637 145.733C231.539 146.404 230.641 146.557 230.326 145.958L229.082 143.592C228.941 143.323 228.644 143.177 228.345 143.228L225.71 143.68C225.043 143.794 224.619 142.987 225.092 142.503L226.958 140.588C227.169 140.371 227.217 140.043 227.076 139.775L225.832 137.408C225.517 136.809 226.153 136.157 226.761 136.456L229.158 137.64C229.429 137.774 229.756 137.718 229.968 137.501L231.834 135.587Z" fill="#FFDA79"/>
<path id="Star 22" d="M114.834 56.5865C115.307 56.1016 116.124 56.5049 116.026 57.1751L115.642 59.8208C115.598 60.1205 115.753 60.4142 116.024 60.5482L118.422 61.7316C119.029 62.0314 118.898 62.9331 118.23 63.0475L115.595 63.4992C115.297 63.5504 115.065 63.788 115.021 64.0877L114.637 66.7334C114.539 67.4035 113.641 67.5575 113.326 66.9581L112.082 64.5915C111.941 64.3235 111.644 64.1766 111.345 64.2278L108.71 64.6795C108.043 64.794 107.619 63.9874 108.092 63.5025L109.958 61.5882C110.169 61.3713 110.217 61.043 110.076 60.775L108.832 58.4084C108.517 57.809 109.153 57.1566 109.761 57.4563L112.158 58.6397C112.429 58.7738 112.756 58.7177 112.968 58.5009L114.834 56.5865Z" fill="#FFDA79"/>
<path id="Star 12" d="M166.834 11.5865C167.307 11.1016 168.124 11.5049 168.026 12.1751L167.642 14.8208C167.598 15.1205 167.753 15.4142 168.024 15.5482L170.422 16.7316C171.029 17.0314 170.898 17.9331 170.23 18.0475L167.595 18.4992C167.297 18.5504 167.065 18.788 167.021 19.0877L166.637 21.7334C166.539 22.4035 165.641 22.5575 165.326 21.9581L164.082 19.5915C163.941 19.3235 163.644 19.1766 163.345 19.2278L160.71 19.6795C160.043 19.794 159.619 18.9874 160.092 18.5025L161.958 16.5882C162.169 16.3713 162.217 16.043 162.076 15.775L160.832 13.4084C160.517 12.809 161.153 12.1566 161.761 12.4563L164.158 13.6397C164.429 13.7738 164.756 13.7177 164.968 13.5009L166.834 11.5865Z" fill="#FFDA79"/>
<path id="Star 13" d="M223.142 96.2125C223.364 95.9852 223.747 96.1743 223.701 96.4884L223.521 97.7287C223.5 97.8692 223.573 98.0069 223.7 98.0697L224.824 98.6245C225.108 98.765 225.047 99.1877 224.734 99.2413L223.499 99.4531C223.359 99.4771 223.25 99.5884 223.23 99.7289L223.05 100.969C223.004 101.283 222.583 101.356 222.435 101.075L221.852 99.9651C221.786 99.8395 221.647 99.7706 221.507 99.7946L220.271 100.006C219.958 100.06 219.76 99.6819 219.981 99.4546L220.856 98.5572C220.955 98.4556 220.978 98.3016 220.912 98.176L220.328 97.0666C220.181 96.7856 220.479 96.4798 220.764 96.6203L221.887 97.175C222.015 97.2379 222.168 97.2116 222.267 97.1099L223.142 96.2125Z" fill="#FFDA79"/>
<path id="Star 23" d="M181.142 216.213C181.364 215.985 181.747 216.174 181.701 216.488L181.521 217.729C181.5 217.869 181.573 218.007 181.7 218.07L182.824 218.624C183.108 218.765 183.047 219.188 182.734 219.241L181.499 219.453C181.359 219.477 181.25 219.588 181.23 219.729L181.05 220.969C181.004 221.283 180.583 221.356 180.435 221.075L179.852 219.965C179.786 219.839 179.647 219.771 179.507 219.795L178.271 220.006C177.958 220.06 177.76 219.682 177.981 219.455L178.856 218.557C178.955 218.456 178.978 218.302 178.912 218.176L178.328 217.067C178.181 216.786 178.479 216.48 178.764 216.62L179.887 217.175C180.015 217.238 180.168 217.212 180.267 217.11L181.142 216.213Z" fill="#FFDA79"/>
<path id="Star 26" d="M175.142 55.2125C175.364 54.9852 175.747 55.1743 175.701 55.4884L175.521 56.7287C175.5 56.8692 175.573 57.0069 175.7 57.0697L176.824 57.6245C177.108 57.765 177.047 58.1877 176.734 58.2413L175.499 58.4531C175.359 58.4771 175.25 58.5884 175.23 58.7289L175.05 59.9692C175.004 60.2833 174.583 60.3555 174.435 60.0745L173.852 58.9651C173.786 58.8395 173.647 58.7706 173.507 58.7946L172.271 59.0064C171.958 59.06 171.76 58.6819 171.981 58.4546L172.856 57.5572C172.955 57.4556 172.978 57.3016 172.912 57.176L172.328 56.0666C172.181 55.7856 172.479 55.4798 172.764 55.6203L173.887 56.175C174.015 56.2379 174.168 56.2116 174.267 56.1099L175.142 55.2125Z" fill="#FFDA79"/>
<path id="Star 21" d="M184.142 48.2125C184.364 47.9852 184.747 48.1743 184.701 48.4884L184.521 49.7287C184.5 49.8692 184.573 50.0069 184.7 50.0697L185.824 50.6245C186.108 50.765 186.047 51.1877 185.734 51.2413L184.499 51.4531C184.359 51.4771 184.25 51.5884 184.23 51.7289L184.05 52.9692C184.004 53.2833 183.583 53.3555 183.435 53.0745L182.852 51.9651C182.786 51.8395 182.647 51.7706 182.507 51.7946L181.271 52.0064C180.958 52.06 180.76 51.6819 180.981 51.4546L181.856 50.5572C181.955 50.4556 181.978 50.3016 181.912 50.176L181.328 49.0666C181.181 48.7856 181.479 48.4798 181.764 48.6203L182.887 49.175C183.015 49.2379 183.168 49.2116 183.267 49.1099L184.142 48.2125Z" fill="#FFDA79"/>
<path id="Star 25" d="M63.1421 41.2125C63.3637 40.9852 63.7467 41.1743 63.701 41.4884L63.5207 42.7287C63.5003 42.8692 63.5726 43.0069 63.6999 43.0697L64.8238 43.6245C65.1084 43.765 65.047 44.1877 64.7341 44.2413L63.4988 44.4531C63.3589 44.4771 63.2503 44.5884 63.2299 44.7289L63.0496 45.9692C63.0039 46.2833 62.5829 46.3555 62.4352 46.0745L61.8521 44.9651C61.786 44.8395 61.6465 44.7706 61.5066 44.7946L60.2713 45.0064C59.9584 45.06 59.7597 44.6819 59.9813 44.4546L60.8562 43.5572C60.9553 43.4556 60.9777 43.3016 60.9116 43.176L60.3285 42.0666C60.1808 41.7856 60.479 41.4798 60.7636 41.6203L61.8875 42.175C62.0148 42.2379 62.1681 42.2116 62.2672 42.1099L63.1421 41.2125Z" fill="#FFDA79"/>
<path id="Star 15" d="M235.439 74.1781C235.837 73.7698 236.525 74.1094 236.443 74.6737L236.119 76.9016C236.082 77.154 236.212 77.4013 236.441 77.5142L238.46 78.5107C238.971 78.7631 238.861 79.5224 238.299 79.6188L236.08 79.9992C235.828 80.0423 235.633 80.2423 235.597 80.4947L235.273 82.7226C235.191 83.2869 234.434 83.4166 234.169 82.9118L233.122 80.919C233.003 80.6933 232.752 80.5696 232.501 80.6127L230.282 80.9931C229.72 81.0894 229.363 80.4103 229.761 80.002L231.333 78.3899C231.511 78.2073 231.551 77.9308 231.432 77.7051L230.385 75.7123C230.119 75.2075 230.655 74.6581 231.166 74.9105L233.185 75.9071C233.414 76.0199 233.689 75.9727 233.867 75.7901L235.439 74.1781Z" fill="#FFDA79"/>
<path id="Star 24" d="M79.4388 208.178C79.8369 207.77 80.5249 208.109 80.4428 208.674L80.1189 210.902C80.0822 211.154 80.2122 211.401 80.4409 211.514L82.4597 212.511C82.971 212.763 82.8607 213.522 82.2986 213.619L80.0796 213.999C79.8283 214.042 79.6332 214.242 79.5965 214.495L79.2726 216.723C79.1906 217.287 78.4343 217.417 78.169 216.912L77.1215 214.919C77.0029 214.693 76.7524 214.57 76.501 214.613L74.282 214.993C73.72 215.089 73.363 214.41 73.761 214.002L75.3326 212.39C75.5107 212.207 75.5509 211.931 75.4322 211.705L74.3847 209.712C74.1194 209.208 74.655 208.658 75.1663 208.911L77.1851 209.907C77.4138 210.02 77.6892 209.973 77.8672 209.79L79.4388 208.178Z" fill="#FFDA79"/>
<path id="Star 11" d="M56.1421 214.213C56.3637 213.985 56.7467 214.174 56.701 214.488L56.5207 215.729C56.5003 215.869 56.5726 216.007 56.6999 216.07L57.8238 216.624C58.1084 216.765 58.047 217.188 57.7341 217.241L56.4988 217.453C56.3589 217.477 56.2503 217.588 56.2299 217.729L56.0496 218.969C56.0039 219.283 55.5829 219.356 55.4352 219.075L54.8521 217.965C54.786 217.839 54.6465 217.771 54.5066 217.795L53.2713 218.006C52.9584 218.06 52.7597 217.682 52.9813 217.455L53.8562 216.557C53.9553 216.456 53.9777 216.302 53.9116 216.176L53.3285 215.067C53.1808 214.786 53.479 214.48 53.7636 214.62L54.8875 215.175C55.0148 215.238 55.1681 215.212 55.2672 215.11L56.1421 214.213Z" fill="#FFDA79"/>
<path id="Star 18" d="M27.1421 66.2125C27.3637 65.9852 27.7467 66.1743 27.701 66.4884L27.5207 67.7287C27.5003 67.8692 27.5726 68.0069 27.6999 68.0697L28.8238 68.6245C29.1084 68.765 29.047 69.1877 28.7341 69.2413L27.4988 69.4531C27.3589 69.4771 27.2503 69.5884 27.2299 69.7289L27.0496 70.9692C27.0039 71.2833 26.5829 71.3555 26.4352 71.0745L25.8521 69.9651C25.786 69.8395 25.6465 69.7706 25.5066 69.7946L24.2713 70.0064C23.9584 70.06 23.7597 69.6819 23.9813 69.4546L24.8562 68.5572C24.9553 68.4556 24.9777 68.3016 24.9116 68.176L24.3285 67.0666C24.1808 66.7856 24.479 66.4798 24.7636 66.6203L25.8875 67.175C26.0148 67.2379 26.1681 67.2116 26.2672 67.1099L27.1421 66.2125Z" fill="#FFDA79"/>
</g>
</svg>
