<svg width="73" height="51" viewBox="0 0 73 51" fill="none" xmlns="http://www.w3.org/2000/svg">
<path d="M42.2886 5.26907H42.2327L38.292 20.5698H32.4229L38.7112 0.535156H46.3131L52.9926 20.5698H46.8161L42.2886 5.26907Z" fill="white"/>
<path d="M1.14587 14.8214C2.45943 15.4695 4.58348 16.2303 6.87521 16.2303C8.71978 16.2303 9.67001 15.6386 9.67001 14.6242C9.67001 13.7507 8.74773 13.1871 6.3442 12.5108C2.93454 11.5528 0.13974 9.80574 0.13974 6.31166C0.13974 2.81758 3.38171 0.0279541 8.55209 0.0279541C11.2631 0.0279541 13.0797 0.506981 14.6168 1.15508L13.3592 5.55086C12.4089 5.15636 10.732 4.50827 8.46825 4.50827C6.81932 4.50827 5.86908 5.04365 5.86908 5.91717C5.86908 6.98794 7.12675 7.35425 9.72591 8.17142C13.5827 9.41125 15.4273 11.2992 15.4273 14.3142C15.4273 17.6674 12.8002 20.767 6.45599 20.767C3.82888 20.767 1.25766 20.0626 0 19.3863L1.14587 14.8214Z" fill="white"/>
<path d="M18.5589 0.394287H32.5329V4.90278H24.1206V8.36868H32.0298V12.8772H24.1206V20.4007H18.5589V0.394287Z" fill="white"/>
<path d="M71.2671 19.8092C70.4287 20.2318 68.3047 20.7672 65.5937 20.7672C57.5447 20.7672 53.9394 16.0897 53.9394 10.7077C53.9394 3.74768 59.3613 0 65.8732 0C68.4444 0 70.5964 0.479027 71.5746 1.01441L70.4287 5.35383C69.4226 4.93116 67.9413 4.50849 66.0968 4.50849C62.771 4.50849 59.8085 6.31189 59.8085 10.3132C59.8085 13.7509 62.1281 16.1742 66.2365 16.1742C67.7736 16.1742 69.4505 15.8643 70.4008 15.4979L71.2671 19.8092Z" fill="white"/>
<path d="M12.2063 38.6591L15.9103 39.9668L15.9118 37.1348L12.2063 38.6591Z" fill="white"/>
<path d="M0 25.7183H6.8572V44.7285H17.4359V50.5644H0V25.7183Z" fill="white"/>
<path d="M56.2514 34.0973C57.6688 32.0757 60.2617 31.1346 63.0965 31.1346C66.4499 31.1346 68.3514 31.6923 69.9416 32.3545L71.3936 26.917C69.9416 26.2199 67.0376 25.5576 63.3039 25.5576C56.2514 25.5576 50.5817 28.5204 48.6111 34.1322H56.2168L56.2514 34.0973Z" fill="white"/>
<path d="M61.8518 35.7006V41.0335H65.6547V45.0419C65.2744 45.1814 64.2373 45.2859 63.0964 45.2859C60.6073 45.2859 58.533 44.4843 57.1156 43.09H48.6456C49.2333 44.6237 50.1667 46.0179 51.3767 47.1682C53.7967 49.4686 57.4613 50.7932 62.8544 50.7932C66.4844 50.7932 70.2527 49.9218 72.3615 49.2247V35.7006H61.8173H61.8518Z" fill="white"/>
<path d="M31.5709 25.2822C24.4895 25.2822 19.4562 29.4754 18.3107 35.6253C19.9075 34.7867 21.9555 34.0878 24.4201 34.0878H26.2946C27.3012 32.0262 29.1063 30.6634 31.4667 30.6634C35.181 30.6634 37.5067 33.9131 37.5067 38.1761C37.5067 42.4392 35.2851 45.619 31.5014 45.619C29.4534 45.619 27.8219 44.6406 26.7805 43.0681H24.4548C22.0596 43.0681 20.0463 42.4042 18.4843 41.6005C19.7686 47.0866 24.316 51.0002 31.1543 51.0002C39.6589 51.0002 44.9004 45.5141 44.9004 38.0014C44.9004 30.4887 39.9713 25.2822 31.6056 25.2822H31.5709Z" fill="white"/>
</svg>
