<svg width="100%" height="100%" viewBox="0 0 305 48" fill="none" xmlns="http://www.w3.org/2000/svg">
<path fill="current" d="M97.0075 12.0884H96.8792L87.8389 47.19H74.3745L88.8006 1.22827H106.24L121.564 47.19H107.394L97.0075 12.0884Z" />
<path fill="current" d="M2.62876 34.0027C5.64221 35.4895 10.515 37.2349 15.7725 37.2349C20.0042 37.2349 22.1842 35.8774 22.1842 33.5502C22.1842 31.5462 20.0683 30.2534 14.5543 28.7019C6.73218 26.504 0.32058 22.4961 0.32058 14.4803C0.32058 6.46443 7.75804 0.0646973 19.6195 0.0646973C25.8388 0.0646973 30.0063 1.16364 33.5327 2.65045L30.6475 12.7349C28.4675 11.8299 24.6206 10.3431 19.4272 10.3431C15.6443 10.3431 13.4644 11.5713 13.4644 13.5753C13.4644 16.0317 16.3496 16.8721 22.3124 18.7468C31.1604 21.5911 35.3921 25.9222 35.3921 32.8391C35.3921 40.5317 29.3651 47.6425 14.8108 47.6425C8.7839 47.6425 2.88522 46.0264 0 44.475L2.62876 34.0027Z"/>
<path fill="current" d="M42.5732 0.905029H74.6313V11.248H55.3323V19.1992H73.4772V29.5422H55.3323V46.8021H42.5732V0.905029Z"/>
<path fill="current" d="M163.496 45.4446C161.573 46.4142 156.7 47.6425 150.481 47.6425C132.015 47.6425 123.744 36.9116 123.744 24.5646C123.744 8.59763 136.183 0 151.122 0C157.02 0 161.957 1.09894 164.201 2.32718L161.573 12.2823C159.264 11.3127 155.866 10.343 151.635 10.343C144.005 10.343 137.209 14.4802 137.209 23.6596C137.209 31.5462 142.53 37.1055 151.955 37.1055C155.482 37.1055 159.329 36.3945 161.508 35.5541L163.496 45.4446Z" />
<path fill="current" d="M170.741 0.905029H183.5V36.0713H203.184V46.8668H170.741V0.905029Z" />
<path fill="current" d="M275.058 16.2901C277.687 12.5408 282.495 10.7954 287.753 10.7954C293.972 10.7954 297.498 11.8297 300.448 13.0579L303.141 2.9735C300.448 1.68062 295.062 0.452393 288.138 0.452393C275.058 0.452393 264.543 5.94712 260.888 16.3548H274.994L275.058 16.2901Z"/>
<path fill="current" d="M285.444 19.2637V29.1542H292.497V36.5882C291.792 36.8468 289.868 37.0407 287.753 37.0407C283.136 37.0407 279.289 35.5539 276.661 32.9682H260.952C262.042 35.8125 263.773 38.3982 266.017 40.5315C270.505 44.798 277.302 47.2544 287.304 47.2544C294.036 47.2544 301.025 45.6383 304.936 44.3455V19.2637H285.38H285.444Z"/>
<path fill="current" d="M229.664 0.0646973C216.584 0.0646973 207.287 7.82195 205.171 19.1993C208.121 17.6478 211.904 16.3549 216.456 16.3549H219.918C221.777 12.541 225.111 10.0198 229.471 10.0198C236.332 10.0198 240.628 16.0317 240.628 23.9183C240.628 31.8048 236.524 37.6874 229.535 37.6874C225.753 37.6874 222.739 35.8774 220.816 32.9684H216.52C212.096 32.9684 208.377 31.7402 205.492 30.2534C207.864 40.4024 216.263 47.6425 228.894 47.6425C244.603 47.6425 254.284 37.4935 254.284 23.595C254.284 9.69662 245.18 0.0646973 229.728 0.0646973H229.664Z"/>
<path fill="current" d="M193 24.6875L201.497 27.6875L201.501 21.1905L193 24.6875Z"/>
</svg>
