<svg width="142" height="140" viewBox="0 0 142 140" fill="none" xmlns="http://www.w3.org/2000/svg">
<g style="mix-blend-mode:luminosity" opacity="0.5">
<path fill-rule="evenodd" clip-rule="evenodd" d="M61.1736 131.667C62.8926 132.82 63.8525 134.693 64.2217 136.059C64.3028 136.359 64.1254 136.667 63.8255 136.748C63.5256 136.83 63.2168 136.652 63.1357 136.352C62.8137 135.161 61.9755 133.56 60.5469 132.602C59.1618 131.673 57.1277 131.285 54.2345 132.659C51.0228 134.185 48.4507 133.758 46.5602 132.53C44.7096 131.328 43.5739 129.4 43.0845 127.991C42.9825 127.698 43.1377 127.377 43.4312 127.275C43.7246 127.173 44.0452 127.329 44.1471 127.622C44.5795 128.867 45.5879 130.557 47.1731 131.587C48.7185 132.591 50.8741 133.01 53.7518 131.643C56.9481 130.124 59.4111 130.485 61.1736 131.667Z" fill="black"/>
<ellipse cx="85.2948" cy="54.75" rx="54.7498" ry="54.75" fill="#F5F8FF"/>
<path d="M23.7879 96.7165C24.4692 95.4111 24.3523 94.0022 23.5268 93.5696L14.559 88.8693C13.7335 88.4367 12.512 89.1441 11.8307 90.4494L2.70189 107.939C-0.023353 113.161 1.49906 116.775 4.80093 118.506C8.10281 120.236 11.9338 119.428 14.659 114.206L23.7879 96.7165Z" fill="#FFAE4E"/>
<path d="M67.2094 87.8174C66.5187 86.517 65.2909 85.8162 64.4671 86.252L55.5173 90.9865C54.6935 91.4223 54.5856 92.8297 55.2763 94.1301L64.5314 111.553C67.2943 116.755 71.1359 117.545 74.4311 115.802C77.7264 114.058 79.2274 110.442 76.4645 105.241L67.2094 87.8174Z" fill="#FFAE4E"/>
<path d="M57.0667 105.799C57.9261 106.782 59.5088 106.8 60.6017 105.841L72.4751 95.4168C73.568 94.4573 73.7573 92.8832 72.8979 91.9009L61.3825 78.7388C57.9448 74.8095 51.614 74.7355 47.2424 78.5735C42.8707 82.4115 42.1136 88.7082 45.5513 92.6374L57.0667 105.799Z" fill="#4C8BFF"/>
<path d="M25.3604 105.528C24.6641 106.632 23.1035 106.897 21.8748 106.119L8.52561 97.6666C7.29686 96.8886 6.86524 95.363 7.56156 94.2591L16.8915 79.4673C19.6768 75.0515 25.9191 73.9945 30.8341 77.1065C35.7492 80.2185 37.4756 86.3209 34.6903 90.7367L25.3604 105.528Z" fill="#4C8BFF"/>
<path d="M63.2488 93.2658C63.2488 83.8715 61.0014 74.457 53.052 74.457H30.9816C23.0321 74.457 19.7489 80.5074 19.7489 89.9017L21.3072 117.477C21.4238 119.179 22.831 120.596 24.7283 120.922C36.651 122.969 47.1721 122.969 59.0948 120.922C60.971 120.6 63.1013 119.158 63.2488 117.477V93.2658Z" fill="#4C8BFF"/>
<path d="M49.986 70.2897C50.8134 66.7783 49.1771 63.388 46.3311 62.7174L39.117 61.0176C36.2711 60.347 33.2932 62.65 32.4658 66.1614L30.9677 72.5196C30.1403 76.031 31.7766 79.4213 34.6225 80.0919L41.8367 81.7917C44.6826 82.4623 47.6604 80.1593 48.4878 76.6478L49.986 70.2897Z" fill="#FFAB48"/>
<path d="M10.759 48.8859C9.40018 54.6526 13.161 60.4731 19.159 61.8864C25.157 63.2997 31.1208 59.7706 32.4796 54.004C33.8384 48.2373 30.0776 42.4168 24.0796 41.0035C18.0816 39.5902 12.1178 43.1192 10.759 48.8859Z" fill="#FF9C27"/>
<path d="M51.1389 54.9543C49.7801 60.7209 53.5409 66.5415 59.5389 67.9548C65.5369 69.3681 71.5007 65.839 72.8595 60.0723C74.2183 54.3057 70.4575 48.4851 64.4595 47.0718C58.4615 45.6585 52.4977 49.1876 51.1389 54.9543Z" fill="#ED8000"/>
<path d="M17.0681 44.1841C13.9331 57.4892 23.63 71.1589 38.7269 74.7162C53.8238 78.2735 70.4862 68.8801 66.5048 57.8922C74.637 44.9264 65.1769 30.0914 50.08 26.5341C34.9832 22.9769 20.2032 30.879 17.0681 44.1841Z" fill="#FFBA68"/>
<path d="M16.873 44.1871C13.7223 57.5584 23.6903 71.3486 39.1372 74.9884C54.584 78.6282 71.5785 69.2467 67.464 58.1774C75.7242 45.1678 65.9936 30.2063 50.5468 26.5666C35.0999 22.9268 20.0237 30.8158 16.873 44.1871Z" fill="#FFBA68"/>
<mask id="mask0_2565_66824" style="mask-type:alpha" maskUnits="userSpaceOnUse" x="16" y="25" width="55" height="51">
<path d="M16.8779 44.1871C13.7272 57.5584 23.6952 71.3486 39.142 74.9884C54.5889 78.6282 71.5834 69.2467 67.4689 58.1774C75.7291 45.1678 65.9985 30.2063 50.5517 26.5666C35.1048 22.9268 20.0286 30.8158 16.8779 44.1871Z" fill="#FFBA68"/>
</mask>
<g mask="url(#mask0_2565_66824)">
<path d="M47.4199 64.0797C47.329 64.9031 46.7546 65.5153 46.1371 65.4472C45.5195 65.379 45.0926 64.6562 45.1835 63.8327C45.2744 63.0093 45.8488 62.3971 46.4663 62.4653C47.0839 62.5335 47.5108 63.2563 47.4199 64.0797Z" fill="#DE2929"/>
<path d="M14.6303 56.9946C13.3046 62.6206 17.0069 68.307 22.8995 69.6955C28.7921 71.084 34.6437 67.6488 35.9693 62.0227C37.295 56.3967 33.5927 50.7103 27.7001 49.3219C21.8075 47.9334 15.9559 51.3686 14.6303 56.9946Z" fill="#FF9A24"/>
<path d="M55.1947 64.8286C53.8691 70.4546 57.5713 76.141 63.4639 77.5295C69.3565 78.9179 75.2081 75.4827 76.5338 69.8567C77.8594 64.2307 74.1572 58.5443 68.2646 57.1558C62.3719 55.7674 56.5204 59.2026 55.1947 64.8286Z" fill="#FF9A24"/>
</g>
<path d="M46.9057 58.6247C46.7632 59.2296 47.1576 59.84 47.7867 59.9883C48.4158 60.1365 49.0413 59.7664 49.1838 59.1615C49.3264 58.5567 48.9319 57.9462 48.3028 57.798C47.6737 57.6498 47.0482 58.0199 46.9057 58.6247Z" fill="black"/>
<path d="M57.1395 55.8184C56.8683 56.9696 55.6284 57.6625 54.3702 57.366C53.112 57.0695 52.312 55.896 52.5832 54.7448C52.8545 53.5936 54.0943 52.9007 55.3525 53.1972C56.6107 53.4937 57.4108 54.6672 57.1395 55.8184Z" fill="black"/>
<path fill-rule="evenodd" clip-rule="evenodd" d="M56.7283 52.5771C56.8617 53.01 56.5939 53.447 56.1301 53.5532C55.8779 53.6109 55.482 53.7573 55.1715 53.9833C54.8631 54.2079 54.7405 54.4298 54.7458 54.6497C54.7566 55.0954 54.3741 55.4504 53.8916 55.4427C53.4091 55.4349 53.0091 55.0673 52.9984 54.6216C52.9767 53.7236 53.5205 53.0906 54.0562 52.7005C54.5899 52.3119 55.2156 52.084 55.6468 51.9853C56.1107 51.8792 56.5949 52.1441 56.7283 52.5771Z" fill="black"/>
<path d="M42.1395 53.4336C41.8683 54.5848 40.6284 55.2777 39.3702 54.9812C38.112 54.6848 37.312 53.5112 37.5832 52.36C37.8545 51.2088 39.0943 50.516 40.3525 50.8124C41.6107 51.1089 42.4108 52.2824 42.1395 53.4336Z" fill="black"/>
<path fill-rule="evenodd" clip-rule="evenodd" d="M41.7283 50.1923C41.8617 50.6253 41.5939 51.0623 41.1301 51.1684C40.8779 51.2261 40.482 51.3725 40.1715 51.5986C39.8631 51.8231 39.7405 52.0451 39.7458 52.2649C39.7566 52.7106 39.3741 53.0657 38.8916 53.0579C38.4091 53.0502 38.0091 52.6826 37.9984 52.2368C37.9767 51.3389 38.5205 50.7058 39.0562 50.3157C39.5899 49.9271 40.2156 49.6992 40.6468 49.6005C41.1107 49.4944 41.5949 49.7593 41.7283 50.1923Z" fill="black"/>
<path fill-rule="evenodd" clip-rule="evenodd" d="M56.425 49.7037C57.2152 50.0139 57.7806 50.5781 58.042 50.9743C58.2865 51.3448 58.7924 51.4591 59.172 51.2296C59.5516 51 59.6611 50.5135 59.4166 50.1429C58.9965 49.5062 58.1746 48.6968 57.0177 48.2428C55.8261 47.7752 54.3282 47.7059 52.6591 48.5089C52.2578 48.702 52.1004 49.1753 52.3074 49.5662C52.5145 49.957 53.0076 50.1173 53.4089 49.9242C54.6605 49.322 55.6695 49.4073 56.425 49.7037Z" fill="#905A09"/>
<path fill-rule="evenodd" clip-rule="evenodd" d="M39.8869 46.3815C40.6772 46.6916 41.2425 47.2558 41.5039 47.652C41.7484 48.0226 42.2543 48.1369 42.6339 47.9073C43.0135 47.6777 43.123 47.1912 42.8785 46.8207C42.4585 46.184 41.6365 45.3745 40.4797 44.9206C39.288 44.4529 37.7901 44.3836 36.121 45.1867C35.7197 45.3797 35.5623 45.8531 35.7694 46.2439C35.9764 46.6347 36.4695 46.795 36.8708 46.602C38.1224 45.9998 39.1314 46.085 39.8869 46.3815Z" fill="#905A09"/>
<path fill-rule="evenodd" clip-rule="evenodd" d="M30.3298 73.3279C29.242 73.9636 28.8756 75.3608 29.5113 76.4485L30.1688 77.5734C32.169 80.9957 35.6485 83.2916 39.5816 83.7843C43.3659 84.2584 47.1634 83.0117 49.9304 80.3869L51.1593 79.2211C52.0733 78.354 52.1114 76.9101 51.2443 75.996C50.3772 75.082 48.9333 75.0439 48.0193 75.911L46.7903 77.0768C45.0146 78.7613 42.5774 79.5614 40.1487 79.2572C37.6246 78.9409 35.3915 77.4675 34.1078 75.2712L33.4504 74.1463C32.8147 73.0586 31.4175 72.6922 30.3298 73.3279Z" fill="#337AFF"/>
<path fill-rule="evenodd" clip-rule="evenodd" d="M60.553 85.5636C60.2591 85.6642 60.1023 85.984 60.2029 86.2779C61.7945 90.9304 62.0476 96.5956 62.0476 102.221C62.0476 102.532 62.2995 102.783 62.6101 102.783C62.9208 102.783 63.1726 102.532 63.1726 102.221C63.1726 96.5961 62.9257 90.7613 61.2673 85.9138C61.1668 85.6198 60.847 85.4631 60.553 85.5636Z" fill="#337AFF"/>
<path fill-rule="evenodd" clip-rule="evenodd" d="M30.0828 87.4245C29.7809 87.3512 29.4768 87.5366 29.4036 87.8385C29.2068 88.6495 29.0447 89.4298 28.8861 90.1932C28.5524 91.7994 28.2343 93.3308 27.6419 94.9159C26.786 97.2066 25.3625 99.563 22.4854 102.158C22.2547 102.366 22.2363 102.722 22.4444 102.952C22.6524 103.183 23.0081 103.201 23.2388 102.993C26.2458 100.281 27.7746 97.7749 28.6958 95.3097C29.3184 93.6435 29.6662 91.9726 30.0099 90.3217C30.1648 89.5775 30.3188 88.8375 30.4968 88.1037C30.5701 87.8018 30.3847 87.4977 30.0828 87.4245Z" fill="#337AFF"/>
<path d="M60.6971 21.8238C51.8045 23.3887 47.8986 13.1066 30.9465 21.0764C26.995 19.8172 33.6711 6.79005 26.237 13.5485C20.2896 18.9553 24.134 21.4577 26.7454 21.4354C15.5611 25.8786 7.3675 47.6191 19.7976 48.0636C34.8754 48.6029 51.9662 41.9985 58.5168 37.0893C63.3666 33.4546 64.8089 57.364 71.4652 56.1899C76.1508 55.3633 77.2698 49.4957 73.2168 47.0057C73.8688 46.515 76.7483 47.5426 78.3889 43.6281C80.0294 39.7135 71.6613 30.7421 67.8548 28.2396C68.6819 23.9027 70.1013 20.1689 60.6971 21.8238Z" fill="black"/>
<path d="M28.6234 122.131C30.094 122.204 31.325 121.509 31.373 120.578L31.8939 110.467C31.9418 109.536 30.7885 108.722 29.3179 108.649L9.61352 107.667C3.73111 107.374 1.08411 110.268 0.89231 113.991C0.700511 117.714 3.03654 120.857 8.91895 121.15L28.6234 122.131Z" fill="#FFAE4E"/>
<path d="M91.2381 104.539C92.7046 104.672 93.8264 105.532 93.7438 106.46L92.8467 116.545C92.7641 117.474 91.5084 118.118 90.042 117.985L70.3938 116.204C64.5281 115.672 62.3115 112.437 62.6418 108.723C62.9721 105.01 65.7243 102.225 71.5899 102.757L91.2381 104.539Z" fill="#FFAE4E"/>
<path fill-rule="evenodd" clip-rule="evenodd" d="M83.4588 100.242L87.4861 98.5929C88.4521 98.1972 89.6405 98.3728 90.5116 99.0399C91.0191 99.4286 91.3742 99.9512 91.5161 100.518L91.5865 100.8C91.5932 100.827 91.5996 100.854 91.6056 100.881L96.2258 101.567C97.645 101.778 98.6247 103.1 98.4138 104.519C98.2859 105.38 97.749 106.08 97.0294 106.449C98.1043 106.948 98.7205 108.147 98.4423 109.347C98.165 110.544 97.0897 111.348 95.9089 111.328C96.5891 111.879 96.9687 112.765 96.8307 113.694C96.6616 114.832 95.7673 115.683 94.6862 115.848C94.9315 116.313 95.0364 116.857 94.9532 117.416C94.7456 118.814 93.4442 119.779 92.0465 119.571L84.4018 118.435C84.095 118.39 83.8091 118.292 83.5518 118.151C78.7247 117.288 75.4289 112.735 76.1544 107.852C76.7389 103.917 79.7596 100.946 83.4588 100.242Z" fill="#FFBA68"/>
<path fill-rule="evenodd" clip-rule="evenodd" d="M94.1992 116.315C94.3391 116.178 94.3415 115.954 94.2046 115.814C93.9449 115.549 93.4742 115.164 92.8801 114.838C92.2863 114.513 91.5464 114.233 90.7537 114.207C90.5581 114.201 90.3944 114.354 90.3881 114.55C90.3817 114.745 90.5351 114.909 90.7307 114.915C91.3762 114.936 92.0057 115.167 92.5393 115.46C93.0727 115.752 93.4875 116.095 93.6982 116.31C93.8351 116.45 94.0594 116.452 94.1992 116.315Z" fill="#FF9C27"/>
<path fill-rule="evenodd" clip-rule="evenodd" d="M95.6845 111.701C95.8091 111.55 95.7878 111.327 95.6369 111.202C95.3505 110.966 94.8418 110.633 94.2166 110.372C93.5916 110.111 92.8263 109.911 92.0353 109.969C91.8402 109.984 91.6936 110.153 91.708 110.349C91.7224 110.544 91.8922 110.69 92.0873 110.676C92.7314 110.628 93.3818 110.791 93.9434 111.026C94.5047 111.26 94.9534 111.557 95.1858 111.749C95.3366 111.873 95.5599 111.852 95.6845 111.701Z" fill="#FF9C27"/>
<path fill-rule="evenodd" clip-rule="evenodd" d="M95.9913 106.676C96.1052 106.517 96.0687 106.296 95.9096 106.182C95.6078 105.966 95.0775 105.669 94.4358 105.451C93.7945 105.233 93.0174 105.086 92.2322 105.198C92.0385 105.226 91.9039 105.405 91.9316 105.599C91.9592 105.793 92.1387 105.927 92.3324 105.9C92.9717 105.808 93.6317 105.926 94.208 106.122C94.7841 106.317 95.252 106.582 95.4969 106.758C95.656 106.872 95.8773 106.835 95.9913 106.676Z" fill="#FF9C27"/>
<rect x="24.5449" y="115.5" width="24.7499" height="16.5" rx="8.25" fill="#393939"/>
<path fill-rule="evenodd" clip-rule="evenodd" d="M38.8184 109.395L42.4031 111.863C43.263 112.455 43.7665 113.545 43.685 114.64C43.6375 115.277 43.3945 115.86 42.9974 116.29L42.8005 116.502C42.7816 116.523 42.7624 116.543 42.7431 116.563L44.6974 120.805C45.2978 122.108 44.728 123.652 43.4248 124.252C42.634 124.616 41.7548 124.55 41.0515 124.15C41.2224 125.322 40.5565 126.494 39.3997 126.918C38.2462 127.341 36.9845 126.882 36.355 125.883C36.2662 126.753 35.7323 127.556 34.8796 127.949C33.8346 128.43 32.6328 128.148 31.9033 127.333C31.6486 127.793 31.2505 128.178 30.7366 128.415C29.4532 129.006 27.9336 128.445 27.3423 127.162L24.1085 120.142C23.9788 119.86 23.9045 119.567 23.8812 119.275C21.962 114.763 23.9684 109.512 28.4523 107.447C32.0654 105.782 36.2049 106.684 38.8184 109.395Z" fill="#FFBA68"/>
<path fill-rule="evenodd" clip-rule="evenodd" d="M31.2469 127.179C31.438 127.222 31.6271 127.101 31.6692 126.91C31.7491 126.547 31.8134 125.943 31.761 125.267C31.7086 124.592 31.5376 123.82 31.1253 123.142C31.0236 122.975 30.8056 122.922 30.6385 123.024C30.4713 123.125 30.4183 123.343 30.52 123.51C30.8557 124.062 31.0075 124.715 31.0545 125.322C31.1016 125.928 31.0421 126.463 30.9772 126.757C30.9351 126.948 31.0559 127.137 31.2469 127.179Z" fill="#FF9C27"/>
<path fill-rule="evenodd" clip-rule="evenodd" d="M35.9215 125.898C36.116 125.92 36.2912 125.78 36.3129 125.585C36.354 125.216 36.3539 124.608 36.2304 123.942C36.1068 123.276 35.8551 122.526 35.3735 121.896C35.2546 121.741 35.0323 121.711 34.8768 121.83C34.7214 121.949 34.6917 122.171 34.8105 122.327C35.2027 122.84 35.4227 123.473 35.5337 124.071C35.6446 124.67 35.642 125.207 35.6087 125.507C35.587 125.701 35.727 125.877 35.9215 125.898Z" fill="#FF9C27"/>
<path fill-rule="evenodd" clip-rule="evenodd" d="M40.2926 123.407C40.4881 123.415 40.6533 123.264 40.6616 123.068C40.6774 122.697 40.6358 122.091 40.4669 121.434C40.2981 120.778 39.9957 120.048 39.472 119.452C39.3429 119.305 39.119 119.291 38.9721 119.42C38.8251 119.549 38.8107 119.773 38.9399 119.92C39.3663 120.405 39.629 121.022 39.7807 121.611C39.9323 122.2 39.9665 122.737 39.9537 123.038C39.9454 123.233 40.0971 123.399 40.2926 123.407Z" fill="#FF9C27"/>
<path d="M55.2954 84.9065C55.2954 81.9206 57.716 79.5 60.7019 79.5H117.389C120.375 79.5 122.795 81.9206 122.795 84.9065V119.093C122.795 122.079 120.375 124.5 117.389 124.5H60.7019C57.716 124.5 55.2954 122.079 55.2954 119.093V84.9065Z" fill="#BEBEBE"/>
<rect x="55.2954" y="126.51" width="67.4473" height="10.9006" rx="5.4503" fill="#BEBEBE"/>
<rect x="97.7407" y="104.707" width="26.5702" height="12.2631" rx="6.13157" transform="rotate(90 97.7407 104.707)" fill="#AAAAAA"/>
<path fill-rule="evenodd" clip-rule="evenodd" d="M59.3835 89.209C59.6657 89.209 59.8945 89.4378 59.8945 89.72V114.779C59.8945 116.274 60.6527 117.668 61.9084 118.479C62.6213 118.94 63.4521 119.186 64.3011 119.186H79.1408C79.423 119.186 79.6518 119.414 79.6518 119.697C79.6518 119.979 79.423 120.208 79.1408 120.208H64.3011C63.2553 120.208 62.2317 119.906 61.3535 119.338C59.8067 118.337 58.8726 116.621 58.8726 114.779V89.72C58.8726 89.4378 59.1013 89.209 59.3835 89.209Z" fill="#A3A3A3"/>
<path fill-rule="evenodd" clip-rule="evenodd" d="M131.899 52.5C137.177 52.5 141.455 56.7782 141.455 62.0556V75.4333C141.455 80.7107 137.177 84.9889 131.899 84.9889H110.307C108.395 87.1265 105.481 89.2566 101.178 90.7691C100.859 90.8814 100.59 90.332 100.847 90.1119C102.318 88.8539 103.792 87.0226 104.228 84.8058C99.8464 83.936 96.5435 80.0703 96.5435 75.4333V62.0556C96.5435 56.7782 100.822 52.5 106.099 52.5H131.899Z" fill="#337AFF"/>
</g>
<path d="M132.545 69C132.545 70.6569 131.202 72 129.545 72C127.888 72 126.545 70.6569 126.545 69C126.545 67.3431 127.888 66 129.545 66C131.202 66 132.545 67.3431 132.545 69Z" fill="white"/>
<path d="M121.545 69C121.545 70.6569 120.202 72 118.545 72C116.888 72 115.545 70.6569 115.545 69C115.545 67.3431 116.888 66 118.545 66C120.202 66 121.545 67.3431 121.545 69Z" fill="white"/>
<path d="M110.545 69C110.545 70.6569 109.202 72 107.545 72C105.888 72 104.545 70.6569 104.545 69C104.545 67.3431 105.888 66 107.545 66C109.202 66 110.545 67.3431 110.545 69Z" fill="white"/>
</svg>
