<svg width="144" height="199" viewBox="0 0 144 199" fill="none" xmlns="http://www.w3.org/2000/svg">
<path d="M51.3334 177.015L51.3262 174.162C51.3214 172.273 52.8495 170.742 54.7396 170.743L66.1269 170.747C68.0205 170.748 69.5585 172.285 69.5592 174.177L69.5654 191.766C69.566 193.652 68.0391 195.178 66.152 195.178L34.1181 195.167C32.365 195.166 30.8285 193.825 31.0497 192.088C32.015 184.508 39.9289 180.884 47.301 180.769C49.4221 180.736 51.3388 179.135 51.3334 177.015Z" fill="#333333"/>
<path d="M90.1469 177.424L90.1541 174.571C90.1589 172.682 88.6308 171.151 86.7407 171.152L75.3534 171.156C73.4598 171.156 71.9218 172.693 71.9211 174.586L71.9149 192.175C71.9143 194.061 73.4412 195.587 75.3283 195.586L107.362 195.575C109.115 195.575 110.652 194.234 110.431 192.496C109.465 184.916 101.551 181.293 94.1793 181.178C92.0582 181.145 90.1415 179.544 90.1469 177.424Z" fill="#333333"/>
<path d="M50.3473 120.468C50.2941 119.19 51.316 118.125 52.5953 118.125H67.8276C69.0885 118.125 70.1033 119.161 70.0771 120.422L69.0015 172.172C68.9761 173.396 67.9764 174.375 66.752 174.375H54.7465C53.5402 174.375 52.5485 173.424 52.4984 172.218L50.3473 120.468Z" fill="#333333"/>
<path d="M91.0274 120.468C91.0806 119.19 90.0587 118.125 88.7794 118.125H73.5471C72.2862 118.125 71.2714 119.161 71.2976 120.422L72.3732 172.172C72.3986 173.396 73.3983 174.375 74.6227 174.375H86.6282C87.8345 174.375 88.8262 173.424 88.8763 172.218L91.0274 120.468Z" fill="#333333"/>
<path d="M60.0101 120.96C59.8857 119.439 60.9219 118.125 62.2451 118.125H77.255C78.5364 118.125 79.5579 119.361 79.4974 120.838L78.543 144.156C78.4865 145.538 77.4993 146.625 76.3006 146.625H64.154C62.9959 146.625 62.0279 145.608 61.919 144.278L60.0101 120.96Z" fill="#333333"/>
<path d="M103.206 84.8102C102.117 85.8093 100.716 86.065 100.078 85.3814L93.1441 77.9553C92.5058 77.2717 92.8718 75.9077 93.9616 74.9087L108.563 61.5228C112.921 57.5267 116.837 58.0506 119.39 60.7849C121.943 63.5191 122.166 67.4282 117.807 71.4244L103.206 84.8102Z" fill="#FFAE4E"/>
<path d="M107.852 85.9623C108.814 85.0724 108.783 83.49 107.782 82.4277L96.9101 70.8875C95.9094 69.8252 94.3183 69.6855 93.3563 70.5753L80.4671 82.4984C76.6193 86.0578 76.7451 92.3878 80.748 96.6368C84.751 100.886 91.1154 101.445 94.9632 97.8854L107.852 85.9623Z" fill="#4C8BFF"/>
<path d="M47.25 97.844C47.25 86.4581 51.7456 79.125 59.3978 79.125H80.6431C88.2954 79.125 92.791 86.4581 92.791 97.844L90.9723 131.266C90.86 133.329 89.5054 135.046 87.6791 135.441C76.202 137.921 64.3633 137.913 52.8863 135.432C51.0803 135.042 49.7243 133.359 49.5823 131.321L47.25 97.844Z" fill="#4C8BFF"/>
<path fill-rule="evenodd" clip-rule="evenodd" d="M131.588 43.0242C132.67 43.9549 132.798 45.5906 131.873 46.6776L130.688 48.0714C131.581 47.6358 132.685 47.7437 133.489 48.4349C134.571 49.3655 134.698 51.0012 133.774 52.0883L131.284 55.0149C131.513 55.1152 131.73 55.2507 131.93 55.4221C133.012 56.3528 133.139 57.9885 132.214 59.0755L127.157 65.0212C126.954 65.2598 126.717 65.4521 126.46 65.5971C123.142 69.2727 117.493 69.6483 113.713 66.3967C110.434 63.576 109.619 58.9356 111.482 55.2313L110.886 48.6047C110.738 46.952 111.953 45.6853 113.601 45.7754C115.103 45.8576 116.446 47.0391 116.784 48.4995L122.174 42.1629C123.113 41.059 124.765 40.9303 125.864 41.8753C126.77 42.6553 127.017 43.923 126.547 44.9626L127.955 43.3074C128.88 42.2204 130.506 42.0936 131.588 43.0242Z" fill="#FFBA68"/>
<path fill-rule="evenodd" clip-rule="evenodd" d="M129.753 55.4694C129.603 55.3404 129.377 55.358 129.249 55.5086L125.938 59.4015C125.687 59.696 125.461 60.0653 125.395 60.5026C125.323 60.9831 125.337 61.5422 125.602 62.0313C125.876 62.5371 126.384 62.9058 127.171 63.0555C127.365 63.0924 127.552 62.9644 127.588 62.7696C127.625 62.5748 127.497 62.3869 127.303 62.35C126.683 62.2319 126.381 61.9682 126.229 61.6883C126.068 61.3915 126.041 61.0115 126.101 60.6105C126.14 60.3547 126.278 60.1064 126.48 59.8684L129.792 55.9756C129.92 55.825 129.903 55.5983 129.753 55.4694Z" fill="#FF9C27"/>
<path fill-rule="evenodd" clip-rule="evenodd" d="M116.631 51.2605C116.436 51.2908 116.303 51.4741 116.333 51.6698L116.818 54.7982L116.919 54.8845C117.488 55.3746 118.237 56.2779 118.615 57.3708C118.989 58.4485 119.002 59.7019 118.133 60.9601C118.021 61.1227 118.061 61.3462 118.223 61.4592C118.385 61.5723 118.607 61.5321 118.72 61.3694C119.741 59.8898 119.723 58.3887 119.289 57.1353C118.882 55.9609 118.11 54.997 117.483 54.4286L117.038 51.5599C117.008 51.3642 116.825 51.2301 116.631 51.2605Z" fill="#FF9C27"/>
<path fill-rule="evenodd" clip-rule="evenodd" d="M128.991 49.4971C129.121 49.608 129.137 49.8033 129.026 49.9333L125.279 54.3276C125.168 54.4577 124.973 54.4732 124.843 54.3623C124.713 54.2514 124.697 54.0562 124.808 53.9262L128.555 49.5318C128.666 49.4018 128.861 49.3863 128.991 49.4971Z" fill="#FF9C27"/>
<path fill-rule="evenodd" clip-rule="evenodd" d="M125.447 46.6251C125.577 46.7359 125.592 46.9312 125.481 47.0612L120.931 52.3972C120.82 52.5272 120.625 52.5428 120.495 52.4319C120.365 52.321 120.349 52.1257 120.46 51.9957L125.01 46.6597C125.121 46.5297 125.317 46.5142 125.447 46.6251Z" fill="#FF9C27"/>
<path fill-rule="evenodd" clip-rule="evenodd" d="M122.293 53.1562C120.611 52.3232 118.842 51.9886 117.738 51.9362C117.567 51.9282 117.435 51.7832 117.443 51.6126C117.452 51.4419 117.596 51.3101 117.767 51.3182C118.946 51.3741 120.8 51.7263 122.568 52.6018C124.337 53.4783 126.046 54.8931 126.876 57.0862C126.937 57.246 126.856 57.4246 126.696 57.4851C126.537 57.5456 126.358 57.4651 126.298 57.3053C125.54 55.3035 123.973 53.9882 122.293 53.1562Z" fill="#FF9C27"/>
<path d="M33.9128 82.6735C35.0025 83.6725 36.4032 83.9283 37.0415 83.2447L43.9751 75.8185C44.6134 75.135 44.2474 73.771 43.1576 72.7719L28.5566 59.3861C24.1978 55.3899 20.282 55.9139 17.7291 58.6482C15.1762 61.3824 14.9529 65.2915 19.3118 69.2876L33.9128 82.6735Z" fill="#FFAE4E"/>
<path d="M29.2667 83.8261C28.3048 82.9362 28.3362 81.3537 29.337 80.2915L40.2091 68.7512C41.2098 67.689 42.8009 67.5492 43.7629 68.4391L56.6521 80.3622C60.4999 83.9216 60.3741 90.2515 56.3712 94.5005C52.3682 98.7495 46.0038 99.3086 42.156 95.7491L29.2667 83.8261Z" fill="#4C8BFF"/>
<path d="M60.2859 73.5052C60.2859 69.8305 62.715 66.8516 65.7115 66.8516H73.3072C76.3036 66.8516 78.7327 69.8305 78.7327 73.5052V80.1589C78.7327 83.8336 76.3036 86.8125 73.3072 86.8125H65.7115C62.715 86.8125 60.2859 83.8336 60.2859 80.1589V73.5052Z" fill="#FFAB48"/>
<path d="M58.715 61.2577C58.715 67.3026 53.8146 72.2029 47.7698 72.2029C41.7249 72.2029 36.8246 67.3026 36.8246 61.2577C36.8246 55.2128 41.7249 50.3125 47.7698 50.3125C53.8146 50.3125 58.715 55.2128 58.715 61.2577Z" fill="#FF9C27"/>
<path d="M102.654 61.4603C102.654 67.5052 97.7534 72.4055 91.7085 72.4055C85.6636 72.4055 80.7633 67.5052 80.7633 61.4603C80.7633 55.4155 85.6636 50.5151 91.7085 50.5151C97.7534 50.5151 102.654 55.4155 102.654 61.4603Z" fill="#FF9C27"/>
<path d="M96.9122 55.1111C96.9122 69.0581 84.5781 80.3644 69.3632 80.3644C54.1483 80.3644 41.8142 69.0581 41.8142 55.1111C41.8142 41.1642 54.1483 29.8579 69.3632 29.8579C84.5781 29.8579 96.9122 41.1642 96.9122 55.1111Z" fill="#FFBA68"/>
<mask id="mask0_2367_59878" style="mask-type:alpha" maskUnits="userSpaceOnUse" x="41" y="29" width="56" height="52">
<path d="M96.8758 55.1068C96.8758 69.0537 84.5417 80.36 69.3268 80.36C54.1119 80.36 41.7778 69.0537 41.7778 55.1068C41.7778 41.1598 54.1119 29.8535 69.3268 29.8535C84.5417 29.8535 96.8758 41.1598 96.8758 55.1068Z" fill="#FFAB49"/>
</mask>
<g mask="url(#mask0_2367_59878)">
<path d="M59.8522 68.0806C59.8522 73.978 55.038 78.7588 49.0993 78.7588C43.1606 78.7588 38.3464 73.978 38.3464 68.0806C38.3464 62.1832 43.1606 57.4023 49.0993 57.4023C55.038 57.4023 59.8522 62.1832 59.8522 68.0806Z" fill="#FF9A24"/>
<path d="M99.9362 68.0806C99.9362 73.978 95.122 78.7588 89.1833 78.7588C83.2447 78.7588 78.4304 73.978 78.4304 68.0806C78.4304 62.1832 83.2447 57.4023 89.1833 57.4023C95.122 57.4023 99.9362 62.1832 99.9362 68.0806Z" fill="#FF9A24"/>
</g>
<path d="M70.511 63.1421C70.511 63.7761 69.997 64.2901 69.363 64.2901C68.729 64.2901 68.215 63.7761 68.215 63.1421C68.215 62.5081 68.729 61.9941 69.363 61.9941C69.997 61.9941 70.511 62.5081 70.511 63.1421Z" fill="black"/>
<path d="M63.624 58.6613C63.624 59.8681 62.5961 60.8463 61.3281 60.8463C60.0601 60.8463 59.0322 59.8681 59.0322 58.6613C59.0322 57.4546 60.0601 56.4764 61.3281 56.4764C62.5961 56.4764 63.624 57.4546 63.624 58.6613Z" fill="black"/>
<path fill-rule="evenodd" clip-rule="evenodd" d="M62.5022 55.5386C62.727 55.9373 62.5696 56.434 62.1506 56.648C61.9228 56.7643 61.5777 57.0023 61.3322 57.2994C61.0882 57.5946 61.0211 57.8437 61.0756 58.0608C61.1861 58.5009 60.9009 58.943 60.4384 59.0482C59.9759 59.1535 59.5114 58.882 59.4008 58.4418C59.1781 57.5551 59.5549 56.7992 59.9786 56.2864C60.4007 55.7756 60.9469 55.4029 61.3364 55.204C61.7555 54.99 62.2774 55.1398 62.5022 55.5386Z" fill="black"/>
<path d="M65.8877 69.3236C65.6057 69.0687 65.361 68.7864 65.1569 68.4836C64.3945 67.3529 65.5063 66.1416 66.8346 66.1416L71.9815 66.1416C73.3097 66.1416 74.4215 67.3529 73.6592 68.4836C73.455 68.7864 73.2103 69.0687 72.9284 69.3236C71.9947 70.1675 70.7284 70.6416 69.408 70.6416C68.0876 70.6416 66.8213 70.1675 65.8877 69.3236Z" fill="#E16037"/>
<path fill-rule="evenodd" clip-rule="evenodd" d="M60.2767 52.5012C59.4524 52.6242 58.7857 53.0523 58.447 53.3845C58.1301 53.6953 57.6214 53.6905 57.3106 53.3736C56.9998 53.0568 57.0047 52.5481 57.3215 52.2373C57.8658 51.7032 58.8327 51.0918 60.0394 50.9116C61.2824 50.7261 62.7283 51.0077 64.1412 52.1959C64.4809 52.4815 64.5247 52.9884 64.2391 53.3281C63.9535 53.6677 63.4466 53.7116 63.1069 53.4259C62.0473 52.535 61.0648 52.3835 60.2767 52.5012Z" fill="#905A09"/>
<path fill-rule="evenodd" clip-rule="evenodd" d="M77.4947 52.5012C76.6704 52.6242 76.0036 53.0523 75.6649 53.3845C75.3481 53.6953 74.8393 53.6905 74.5285 53.3736C74.2177 53.0568 74.2226 52.5481 74.5394 52.2373C75.0838 51.7032 76.0507 51.0918 77.2574 50.9116C78.5004 50.7261 79.9462 51.0077 81.3592 52.1959C81.6989 52.4815 81.7427 52.9884 81.4571 53.3281C81.1714 53.6677 80.6645 53.7116 80.3249 53.4259C79.2653 52.535 78.2827 52.3835 77.4947 52.5012Z" fill="#905A09"/>
<path d="M58.3321 22.4982C66.6139 25.7941 72.2675 16.2553 87.1387 27.5326C91.1779 27.0396 87.1387 12.6945 93.0605 20.9085C97.798 27.4797 93.6335 29.2387 91.1211 28.7087C101.082 35.3329 106.736 56.7952 94.6759 54.8242C80.0471 52.4335 85.5224 33.3619 81.7533 38.1313C77.9842 42.9007 47.8381 57.2941 41.6395 54.8242C37.2762 53.0857 37.2762 46.9914 41.6395 45.2854C41.1014 44.6672 38.1377 45.1367 37.2762 40.8972C36.4147 36.6577 46.1275 29.299 50.2555 27.5326C50.2555 23.0281 49.5739 19.0127 58.3321 22.4982Z" fill="black"/>
<path fill-rule="evenodd" clip-rule="evenodd" d="M80.2352 79.8686C81.2355 80.6347 81.4254 82.0665 80.6594 83.0668L79.8672 84.1012C77.4571 87.2483 73.7192 89.0939 69.7553 89.0939C65.9415 89.0939 62.3283 87.3848 59.9091 84.4364L58.8346 83.1268C58.0355 82.1528 58.1772 80.7154 59.1512 79.9162C60.1252 79.1171 61.5626 79.2588 62.3618 80.2328L63.4363 81.5423C64.9888 83.4345 67.3077 84.5314 69.7553 84.5314C72.2992 84.5314 74.6982 83.3469 76.2449 81.3272L77.0371 80.2928C77.8031 79.2925 79.2349 79.1026 80.2352 79.8686Z" fill="#337AFF"/>
<path fill-rule="evenodd" clip-rule="evenodd" d="M51.2352 85.6314C51.4854 85.8155 51.539 86.1676 51.3549 86.4178C49.8879 88.4115 49.1156 89.8447 48.6387 91.2048C48.1716 92.5371 47.9784 93.8222 47.7162 95.5665C47.7088 95.6155 47.7014 95.6648 47.6939 95.7145C47.6477 96.0217 47.3612 96.2332 47.054 96.187C46.7468 96.1408 46.5352 95.8543 46.5815 95.5471C46.5914 95.4813 46.6012 95.4161 46.6109 95.3513C46.8667 93.6481 47.0742 92.267 47.5771 90.8326C48.1025 89.3339 48.9403 87.8011 50.4487 85.7511C50.6328 85.5009 50.9849 85.4473 51.2352 85.6314Z" fill="#337AFF"/>
<path fill-rule="evenodd" clip-rule="evenodd" d="M87.3722 86.4849C87.122 86.669 87.0684 87.0211 87.2525 87.2714C88.7194 89.265 89.4918 90.6982 89.9686 92.0583C90.4358 93.3907 90.629 94.6757 90.8912 96.42C90.8985 96.469 90.9059 96.5183 90.9134 96.568C90.9596 96.8752 91.2461 97.0868 91.5533 97.0405C91.8605 96.9943 92.0721 96.7078 92.0259 96.4006C92.016 96.3349 92.0062 96.2696 91.9965 96.2048C91.7406 94.5016 91.5332 93.1205 91.0303 91.6861C90.5049 90.1875 89.667 88.6546 88.1586 86.6046C87.9745 86.3544 87.6224 86.3008 87.3722 86.4849Z" fill="#337AFF"/>
<path fill-rule="evenodd" clip-rule="evenodd" d="M11.2161 38.6754C10.0296 39.6942 9.89966 41.4748 10.926 42.6526L12.8927 44.9096C11.8753 44.2562 10.5066 44.3156 9.54383 45.1422C8.50118 46.0373 8.28702 47.5299 8.971 48.665C8.29351 48.6438 7.60644 48.8655 7.05336 49.3403C6.10181 50.1573 5.8403 51.4718 6.32176 52.5581C5.74904 52.6036 5.18529 52.8241 4.71743 53.2258C3.54891 54.2291 3.42098 55.9826 4.4317 57.1425L9.95987 63.4865C10.1817 63.7411 10.4399 63.9459 10.7203 64.0999C14.3463 68.0204 20.4802 68.3919 24.5627 64.8869C28.1043 61.8462 28.9598 56.8687 26.9136 52.9091L27.518 45.8049C27.6688 44.0329 26.3413 42.6821 24.553 42.7878C22.9227 42.884 21.4722 44.1575 21.1144 45.7243L15.223 38.9634C14.1967 37.7856 12.4027 37.6567 11.2161 38.6754Z" fill="#FFBA68"/>
<path fill-rule="evenodd" clip-rule="evenodd" d="M12.9795 45.3448C13.1474 45.2007 13.4012 45.2189 13.5464 45.3856L17.8821 50.3611C18.1159 50.6293 18.3562 50.9852 18.406 51.4243C18.4577 51.8806 18.4087 52.4513 18.1055 52.9789C17.7965 53.5164 17.2478 53.9663 16.3828 54.2081C16.1691 54.2678 15.9471 54.1443 15.8869 53.9322C15.8267 53.7201 15.9512 53.4997 16.1649 53.44C16.8531 53.2476 17.2157 52.9166 17.4072 52.5834C17.6045 52.2403 17.6453 51.8505 17.6071 51.5135C17.5841 51.3102 17.4664 51.1038 17.2741 50.8831L12.9384 45.9076C12.7932 45.7409 12.8116 45.489 12.9795 45.3448Z" fill="#FF9C27"/>
<path fill-rule="evenodd" clip-rule="evenodd" d="M7.05807 53.2754C7.22597 53.1312 7.47981 53.1494 7.62503 53.3161L11.2283 57.4512C11.5119 57.7766 11.7706 58.1866 11.8448 58.6747C11.9229 59.1884 11.9072 59.7862 11.6188 60.3104C11.3205 60.8524 10.7687 61.2473 9.91936 61.4113C9.70145 61.4534 9.49044 61.3122 9.44804 61.0959C9.40565 60.8796 9.54793 60.6701 9.76584 60.628C10.4301 60.4998 10.752 60.2209 10.9133 59.9278C11.0844 59.6168 11.1144 59.218 11.0499 58.7937C11.007 58.5113 10.8503 58.2372 10.6203 57.9732L7.01701 53.8381C6.87179 53.6715 6.89017 53.4195 7.05807 53.2754Z" fill="#FF9C27"/>
<path fill-rule="evenodd" clip-rule="evenodd" d="M21.2949 48.6578C21.5144 48.6904 21.6657 48.8936 21.6328 49.1115L21.1254 52.4734L21.0129 52.57C20.3988 53.0973 19.5933 54.0678 19.1902 55.2386C18.7929 56.3925 18.7863 57.7315 19.7346 59.0712C19.8623 59.2515 19.8185 59.5003 19.6368 59.627C19.4552 59.7537 19.2045 59.7102 19.0769 59.5299C17.9547 57.9447 17.9648 56.3302 18.4295 54.9806C18.8639 53.7188 19.6955 52.6807 20.374 52.0662L20.8378 48.9932C20.8707 48.7753 21.0753 48.6251 21.2949 48.6578Z" fill="#FF9C27"/>
<path fill-rule="evenodd" clip-rule="evenodd" d="M9.47128 48.8441C9.63918 48.7 9.89302 48.7182 10.0382 48.8849L14.6832 54.2153C14.9378 54.5074 15.175 54.8804 15.2387 55.3288C15.3081 55.8169 15.2953 56.4369 15.0118 56.9633C14.7109 57.5221 14.1418 57.9072 13.2571 57.9542C13.0354 57.966 12.8461 57.7971 12.8342 57.5771C12.8224 57.3571 12.9924 57.1691 13.2141 57.1574C13.8535 57.1234 14.1505 56.8701 14.3029 56.5871C14.4727 56.2717 14.5005 55.8467 14.4427 55.4403C14.409 55.2031 14.277 54.969 14.0752 54.7374L9.43023 49.4069C9.285 49.2402 9.30338 48.9883 9.47128 48.8441Z" fill="#FF9C27"/>
<path fill-rule="evenodd" clip-rule="evenodd" d="M79.0675 57.3589C79.0883 57.765 78.7028 58.0948 78.2066 58.0955C77.9368 58.0959 77.4985 58.1454 77.1255 58.2818C76.755 58.4173 76.5728 58.5874 76.5203 58.7812C76.4138 59.174 75.9342 59.4091 75.4491 59.3063C74.9639 59.2035 74.6569 58.8017 74.7633 58.4088C74.9778 57.6174 75.6935 57.1707 76.3371 56.9354C76.9782 56.7009 77.67 56.6257 78.1314 56.625C78.6276 56.6243 79.0468 56.9529 79.0675 57.3589Z" fill="black"/>
<path fill-rule="evenodd" clip-rule="evenodd" d="M78.9975 60.1442C78.6736 60.4457 78.124 60.4527 77.77 60.16C77.5775 60.0009 77.2241 59.7771 76.8447 59.6539C76.4679 59.5314 76.1962 59.5449 75.9972 59.6519C75.5938 59.8687 75.0562 59.7528 74.7964 59.3929C74.5366 59.0329 74.6531 58.5654 75.0565 58.3485C75.8693 57.9116 76.7516 58.0164 77.4062 58.2291C78.0583 58.441 78.6137 58.7961 78.9429 59.0683C79.2969 59.361 79.3214 59.8427 78.9975 60.1442Z" fill="black"/>
<path d="M9.00495 21.0952C17.2701 21.2472 21.5135 31.6073 15.8205 32.6535C10.1276 33.6997 20.1942 17.9249 26.3628 32.3871" stroke="#5991FF" stroke-width="3" stroke-linecap="round"/>
<path fill-rule="evenodd" clip-rule="evenodd" d="M26.7431 22.176C26.0395 21.7387 25.8241 20.8141 26.262 20.1108L27.1487 18.6869C27.7963 17.6471 27.476 16.2797 26.434 15.6355C24.2345 14.2757 23.3653 11.5101 24.3914 9.13682L25.194 7.28066C25.5227 6.52037 26.406 6.17009 27.1667 6.49829C27.9275 6.8265 28.2777 7.7089 27.9489 8.4692L27.1463 10.3254C26.7106 11.3332 27.0797 12.5077 28.0138 13.0851C30.4674 14.6021 31.2215 17.8219 29.6966 20.2706L28.81 21.6945C28.3721 22.3977 27.4467 22.6133 26.7431 22.176Z" fill="#F97F7F"/>
<rect x="39.0918" y="12.375" width="3.80063" height="7.05831" rx="1.90031" transform="rotate(25.979 39.0918 12.375)" fill="#5991FF"/>
<rect x="33.123" y="26.7148" width="2.2876" height="4.24839" rx="1.1438" transform="rotate(101.402 33.123 26.7148)" fill="#FFC266"/>
<rect x="21.8379" y="0.364746" width="2.2876" height="4.24839" rx="1.1438" transform="rotate(10.8393 21.8379 0.364746)" fill="#FFC266"/>
<rect x="0.75" y="15.4854" width="2.2876" height="4.24839" rx="1.1438" transform="rotate(-44.5764 0.75 15.4854)" fill="#F97F7F"/>
<path d="M72.1081 99.1009H72.0871L70.6093 104.839H68.4084L70.7665 97.3257H73.6173L76.1221 104.839H73.8059L72.1081 99.1009Z" fill="white"/>
<path d="M56.6797 102.683C57.1723 102.926 57.9688 103.212 58.8282 103.212C59.52 103.212 59.8763 102.99 59.8763 102.609C59.8763 102.282 59.5304 102.07 58.6291 101.817C57.3505 101.458 56.3024 100.802 56.3024 99.4921C56.3024 98.1818 57.5182 97.1357 59.4571 97.1357C60.4737 97.1357 61.1549 97.3154 61.7314 97.5584L61.2598 99.2068C60.9034 99.0589 60.2746 98.8158 59.4256 98.8158C58.8073 98.8158 58.4509 99.0166 58.4509 99.3442C58.4509 99.7457 58.9226 99.8831 59.8973 100.19C61.3436 100.654 62.0353 101.362 62.0353 102.493C62.0353 103.751 61.0501 104.913 58.671 104.913C57.6859 104.913 56.7216 104.649 56.25 104.395L56.6797 102.683Z" fill="white"/>
<path d="M63.2096 97.2729H68.4499V98.9636H65.2952V100.263H68.2613V101.954H65.2952V104.775H63.2096V97.2729Z" fill="white"/>
<path d="M82.9748 104.553C82.6604 104.712 81.8639 104.913 80.8472 104.913C77.8288 104.913 76.4768 103.159 76.4768 101.14C76.4768 98.5304 78.5101 97.125 80.952 97.125C81.9163 97.125 82.7233 97.3046 83.0901 97.5054L82.6604 99.1327C82.2831 98.9742 81.7276 98.8157 81.0359 98.8157C79.7887 98.8157 78.6777 99.4919 78.6777 100.992C78.6777 102.282 79.5476 103.19 81.0883 103.19C81.6647 103.19 82.2936 103.074 82.6499 102.937L82.9748 104.553Z" fill="white"/>
<path d="M60.8284 111.623L62.2174 112.113L62.2179 111.051L60.8284 111.623Z" fill="white"/>
<path d="M56.2504 106.77H58.8219V113.899H62.789V116.087H56.2504V106.77Z" fill="white"/>
<path d="M77.345 109.912C77.8765 109.154 78.8489 108.801 79.912 108.801C81.1695 108.801 81.8826 109.01 82.4789 109.259L83.0234 107.22C82.4789 106.958 81.3899 106.71 79.9897 106.71C77.345 106.71 75.2188 107.821 74.4799 109.925H77.332L77.345 109.912Z" fill="white"/>
<path d="M79.4455 110.513V112.513H80.8715V114.016C80.7289 114.068 80.34 114.108 79.9122 114.108C78.9787 114.108 78.2009 113.807 77.6693 113.284H74.493C74.7134 113.859 75.0635 114.382 75.5172 114.814C76.4247 115.676 77.799 116.173 79.8214 116.173C81.1827 116.173 82.5958 115.846 83.3867 115.585V110.513H79.4325H79.4455Z" fill="white"/>
<path d="M68.0903 106.606C65.4348 106.606 63.5472 108.179 63.1177 110.485C63.7165 110.171 64.4845 109.909 65.4087 109.909H66.1117C66.4892 109.135 67.1661 108.624 68.0513 108.624C69.4441 108.624 70.3163 109.843 70.3163 111.442C70.3163 113.04 69.4832 114.233 68.0643 114.233C67.2962 114.233 66.6844 113.866 66.2939 113.276H65.4217C64.5236 113.276 63.7685 113.027 63.1828 112.726C63.6644 114.783 65.3697 116.251 67.9341 116.251C71.1234 116.251 73.089 114.193 73.089 111.376C73.089 108.559 71.2405 106.606 68.1033 106.606H68.0903Z" fill="white"/>
</svg>
