<svg width="60" height="50" viewBox="0 0 60 50" fill="none" xmlns="http://www.w3.org/2000/svg">
<g id="Group 427322747">
<path id="Union" fill-rule="evenodd" clip-rule="evenodd" d="M12.7659 0C5.71548 0 0 5.58745 0 12.4799V29.9515C0 36.844 5.71548 42.4314 12.7659 42.4314H41.6129C44.1662 45.2232 48.0595 48.0052 53.8082 49.9804C54.2352 50.1271 54.5945 49.4097 54.2506 49.1221C52.2855 47.4791 50.3162 45.0875 49.7339 42.1923C55.5874 41.0562 60 36.0076 60 29.9515V12.4799C60 5.58744 54.2845 0 47.2341 0H12.7659Z" fill="#999999"/>
<path id="Ellipse 387" d="M23.9259 21.8374C23.9259 23.4603 22.5801 24.7759 20.92 24.7759C19.2598 24.7759 17.9141 23.4603 17.9141 21.8374C17.9141 20.2144 19.2598 18.8988 20.92 18.8988C22.5801 18.8988 23.9259 20.2144 23.9259 21.8374Z" fill="white"/>
<path id="Ellipse 388" d="M32.9493 21.8374C32.9493 23.4603 31.6035 24.7759 29.9434 24.7759C28.2833 24.7759 26.9375 23.4603 26.9375 21.8374C26.9375 20.2144 28.2833 18.8988 29.9434 18.8988C31.6035 18.8988 32.9493 20.2144 32.9493 21.8374Z" fill="white"/>
<path id="Ellipse 389" d="M41.9649 21.8374C41.9649 23.4603 40.6191 24.7759 38.959 24.7759C37.2989 24.7759 35.9531 23.4603 35.9531 21.8374C35.9531 20.2144 37.2989 18.8988 38.959 18.8988C40.6191 18.8988 41.9649 20.2144 41.9649 21.8374Z" fill="white"/>
</g>
</svg>
