<svg width="24" height="25" viewBox="0 0 24 25" fill="none" xmlns="http://www.w3.org/2000/svg">
<g id="icon/kebab-black">
<path id="Vector" d="M14 12.5004C14 13.0768 13.7893 13.6297 13.4142 14.0373C13.0391 14.4449 12.5304 14.6738 12 14.6738C11.4696 14.6738 10.9609 14.4449 10.5858 14.0373C10.2107 13.6297 10 13.0768 10 12.5004C10 11.924 10.2107 11.3712 10.5858 10.9636C10.9609 10.556 11.4696 10.327 12 10.327C12.5304 10.327 13.0391 10.556 13.4142 10.9636C13.7893 11.3712 14 11.924 14 12.5004ZM14 4.67342C14 5.24985 13.7893 5.80267 13.4142 6.21027C13.0391 6.61786 12.5304 6.84685 12 6.84685C11.4696 6.84685 10.9609 6.61786 10.5858 6.21027C10.2107 5.80267 10 5.24985 10 4.67342C10 4.097 10.2107 3.54418 10.5858 3.13658C10.9609 2.72899 11.4696 2.5 12 2.5C12.5304 2.5 13.0391 2.72899 13.4142 3.13658C13.7893 3.54418 14 4.097 14 4.67342ZM14 20.3266C14 20.903 13.7893 21.4558 13.4142 21.8634C13.0391 22.271 12.5304 22.5 12 22.5C11.4696 22.5 10.9609 22.271 10.5858 21.8634C10.2107 21.4558 10 20.903 10 20.3266C10 19.7501 10.2107 19.1973 10.5858 18.7897C10.9609 18.3821 11.4696 18.1532 12 18.1532C12.5304 18.1532 13.0391 18.3821 13.4142 18.7897C13.7893 19.1973 14 19.7501 14 20.3266Z" fill="#1A1A1A"/>
</g>
</svg>
