<svg width="24" height="24" viewBox="0 0 24 24" fill="none" xmlns="http://www.w3.org/2000/svg">
<path d="M12 20C9.76667 20 7.875 19.225 6.325 17.675C4.775 16.125 4 14.2333 4 12C4 9.76667 4.775 7.875 6.325 6.325C7.875 4.775 9.76667 4 12 4C13.15 4 14.25 4.23733 15.3 4.712C16.5548 5.27927 17.7778 6.66667 18 7.75V5C18 4.44772 18.4477 4 19 4C19.5523 4 20 4.44772 20 5V9C20 10.1046 19.1046 11 18 11H14C13.4477 11 13 10.5523 13 10C13 9.44772 13.4477 9 14 9H16.4444C16.4444 8.44444 15.8464 7.40891 15.013 6.8C14.2222 6.22222 13.084 6 12 6C10.3333 6 8.91667 6.58333 7.75 7.75C6.58333 8.91667 6 10.3333 6 12C6 13.6667 6.58333 15.0833 7.75 16.25C8.91667 17.4167 10.3333 18 12 18C13.2833 18 14.4417 17.6333 15.475 16.9C16.3124 16.3057 16.9472 15.5583 17.3797 14.6576C17.564 14.2737 17.9355 14 18.3613 14H18.4515C19.1076 14 19.588 14.6245 19.326 15.226C18.795 16.4457 17.9863 17.4787 16.9 18.325C15.4667 19.4417 13.8333 20 12 20Z" fill="#1A1A1A"/>
</svg>
