<svg width="100%" height="100%" viewBox="0 0 24 24" fill="current" xmlns="http://www.w3.org/2000/svg">
<path d="M13.4615 14.8735C12.2373 15.744 10.7308 16.1227 9.24053 15.9347C7.75026 15.7466 6.38502 15.0055 5.41536 13.8582C4.44571 12.711 3.94242 11.2412 4.00525 9.74034C4.06807 8.23944 4.69242 6.81692 5.75455 5.7547C6.81669 4.69247 8.23909 4.06807 9.73986 4.00525C11.2406 3.94242 12.7102 4.44575 13.8574 5.41548C15.0046 6.38521 15.7456 7.75057 15.9337 9.24097C16.1217 10.7314 15.743 12.238 14.8726 13.4623L19.6822 18.271C19.7803 18.3624 19.859 18.4727 19.9136 18.5951C19.9681 18.7176 19.9975 18.8498 19.9998 18.9839C20.0022 19.118 19.9776 19.2511 19.9273 19.3755C19.8771 19.4998 19.8024 19.6127 19.7076 19.7076C19.6128 19.8024 19.4998 19.8771 19.3755 19.9273C19.2512 19.9775 19.118 20.0022 18.984 19.9998C18.8499 19.9975 18.7177 19.9681 18.5953 19.9136C18.4728 19.859 18.3626 19.7803 18.2712 19.6822L13.4615 14.8735ZM13.9847 9.99027C13.9847 8.93102 13.5639 7.91515 12.815 7.16614C12.0661 6.41713 11.0503 5.99634 9.99111 5.99634C8.93194 5.99634 7.91615 6.41713 7.16721 7.16614C6.41826 7.91515 5.99751 8.93102 5.99751 9.99027C5.99751 11.0495 6.41826 12.0654 7.16721 12.8144C7.91615 13.5634 8.93194 13.9842 9.99111 13.9842C11.0503 13.9842 12.0661 13.5634 12.815 12.8144C13.5639 12.0654 13.9847 11.0495 13.9847 9.99027Z" fill="current"/>
</svg>
