<svg width="24" height="24" viewBox="0 0 24 24" fill="none" xmlns="http://www.w3.org/2000/svg">
<path d="M13.9804 4.02408C14.7763 4.22118 15.538 4.53693 16.2399 4.96072C16.3806 5.04564 16.4926 5.17081 16.5614 5.32006C16.6303 5.46931 16.626 5.79795 16.626 5.79795L16.6562 7.32115L18.2019 7.3738C18.2019 7.3738 18.5305 7.36954 18.6798 7.43838C18.829 7.50722 18.9542 7.61924 19.0391 7.75996C19.4629 8.46185 19.7787 9.22353 19.9758 10.0194C20.0154 10.1791 20.0063 10.347 19.9494 10.5014C19.8926 10.6558 19.657 10.8854 19.657 10.8854L18.6798 11.9995L19.657 13.1144C19.657 13.1144 19.8923 13.3439 19.9492 13.4981C20.006 13.6523 20.0153 13.82 19.9758 13.9796C19.7786 14.7755 19.4629 15.5371 19.0391 16.239C18.9542 16.3798 18.829 16.4918 18.6798 16.5606C18.5305 16.6295 18.2019 16.6252 18.2019 16.6252L16.5617 16.5606L16.626 18.2011C16.626 18.2011 16.6305 18.53 16.5617 18.6794C16.4929 18.8288 16.3807 18.9541 16.2399 19.0391C15.538 19.4629 14.7763 19.7786 13.9804 19.9758C13.8207 20.0154 13.6528 20.0063 13.4984 19.9494C13.344 19.8926 13.1144 19.657 13.1144 19.657L12.0003 18.6794L10.8854 19.657C10.8854 19.657 10.656 19.8923 10.5017 19.9492C10.3475 20.006 10.1798 20.0152 10.0202 19.9758C9.22437 19.7786 8.46269 19.4629 7.76079 19.0391C7.61991 18.9541 7.5078 18.8288 7.43895 18.6794C7.3701 18.53 7.37463 18.2011 7.37463 18.2011V16.626H5.79877C5.79877 16.626 5.46983 16.6305 5.32041 16.5617C5.171 16.4929 5.04569 16.3807 4.96072 16.2399C4.53679 15.5374 4.22104 14.7752 4.02408 13.9788C3.98458 13.8192 3.99384 13.6515 4.05067 13.4973C4.1075 13.343 4.34286 13.1136 4.34286 13.1136L5.32041 11.9995L4.34286 10.8854C4.34286 10.8854 4.1075 10.656 4.05067 10.5017C3.99384 10.3475 3.98458 10.1798 4.02408 10.0202C4.22111 9.22408 4.53686 8.46212 4.96072 7.75996C5.04569 7.61909 5.171 7.50698 5.32041 7.43813C5.46983 7.36928 5.79877 7.3738 5.79877 7.3738L7.32292 7.32115L7.3738 5.79795C7.3738 5.79795 7.36954 5.46931 7.43838 5.32006C7.50722 5.17081 7.61924 5.04564 7.75996 4.96072C8.46211 4.53685 9.22407 4.22109 10.0202 4.02408C10.1798 3.98458 10.3475 3.99384 10.5017 4.05067C10.656 4.1075 10.8854 4.34286 10.8854 4.34286L12.0003 5.54338L13.1144 4.34286C13.1144 4.34286 13.3439 4.1075 13.4981 4.05067C13.6523 3.99384 13.8209 3.98458 13.9804 4.02408ZM12.0003 7.89142C10.9108 7.89142 9.86589 8.32424 9.09547 9.09465C8.32506 9.86507 7.89224 10.91 7.89224 11.9995C7.89224 13.089 8.32506 14.1339 9.09547 14.9044C9.86589 15.6748 10.9108 16.1076 12.0003 16.1076C13.0899 16.1076 14.1348 15.6748 14.9052 14.9044C15.6756 14.1339 16.1084 13.089 16.1084 11.9995C16.1084 10.91 15.6756 9.86507 14.9052 9.09465C14.1348 8.32424 13.0899 7.89142 12.0003 7.89142ZM12.0003 9.53466C12.654 9.53466 13.281 9.79434 13.7432 10.2566C14.2055 10.7188 14.4652 11.3458 14.4652 11.9995C14.4652 12.6532 14.2055 13.2802 13.7432 13.7424C13.281 14.2047 12.654 14.4644 12.0003 14.4644C11.3466 14.4644 10.7197 14.2047 10.2574 13.7424C9.79516 13.2802 9.53548 12.6532 9.53548 11.9995C9.53548 11.3458 9.79516 10.7188 10.2574 10.2566C10.7197 9.79434 11.3466 9.53466 12.0003 9.53466Z" fill="#1A1A1A"/>
</svg>
