<svg width="24" height="24" viewBox="0 0 24 24" fill="none" xmlns="http://www.w3.org/2000/svg">
<path d="M17.3333 21C16.5926 21 15.963 20.7375 15.4444 20.2125C14.9259 19.6875 14.6667 19.05 14.6667 18.3C14.6667 18.195 14.6741 18.0861 14.6889 17.9733C14.7037 17.8605 14.7259 17.7594 14.7556 17.67L8.48889 13.98C8.23704 14.205 7.95556 14.3814 7.64444 14.5092C7.33333 14.637 7.00741 14.7006 6.66667 14.7C5.92593 14.7 5.2963 14.4375 4.77778 13.9125C4.25926 13.3875 4 12.75 4 12C4 11.25 4.25926 10.6125 4.77778 10.0875C5.2963 9.5625 5.92593 9.3 6.66667 9.3C7.00741 9.3 7.33333 9.3639 7.64444 9.4917C7.95556 9.6195 8.23704 9.7956 8.48889 10.02L14.7556 6.33C14.7259 6.24 14.7037 6.1389 14.6889 6.0267C14.6741 5.9145 14.6667 5.8056 14.6667 5.7C14.6667 4.95 14.9259 4.3125 15.4444 3.7875C15.963 3.2625 16.5926 3 17.3333 3C18.0741 3 18.7037 3.2625 19.2222 3.7875C19.7407 4.3125 20 4.95 20 5.7C20 6.45 19.7407 7.0875 19.2222 7.6125C18.7037 8.1375 18.0741 8.4 17.3333 8.4C16.9926 8.4 16.6667 8.3364 16.3556 8.2092C16.0444 8.082 15.763 7.9056 15.5111 7.68L9.24444 11.37C9.27407 11.46 9.2963 11.5614 9.31111 11.6742C9.32593 11.787 9.33333 11.8956 9.33333 12C9.33333 12.105 9.32593 12.2139 9.31111 12.3267C9.2963 12.4395 9.27407 12.5406 9.24444 12.63L15.5111 16.32C15.763 16.095 16.0444 15.9189 16.3556 15.7917C16.6667 15.6645 16.9926 15.6006 17.3333 15.6C18.0741 15.6 18.7037 15.8625 19.2222 16.3875C19.7407 16.9125 20 17.55 20 18.3C20 19.05 19.7407 19.6875 19.2222 20.2125C18.7037 20.7375 18.0741 21 17.3333 21Z" fill="#1A1A1A"/>
</svg>
