<svg width="100%" height="100%" viewBox="0 0 24 24" fill="none" xmlns="http://www.w3.org/2000/svg">
<g id="icon/send-black" clip-path="url(#clip0_1358_20067)">
<path id="Vector" fill-rule="evenodd" clip-rule="evenodd" d="M3.33918 8.17908C3.37749 8.02562 3.46044 7.88697 3.57753 7.78064C3.69462 7.67432 3.84061 7.60509 3.99704 7.58172L19.9213 5.22069C20.0684 5.19869 20.2187 5.21814 20.3553 5.27684C20.492 5.33555 20.6096 5.43119 20.6949 5.55303C20.7802 5.67487 20.8299 5.81808 20.8383 5.96658C20.8467 6.11507 20.8136 6.26298 20.7426 6.39368L13.0776 20.55C13.0022 20.6892 12.8873 20.803 12.7473 20.8768C12.6074 20.9507 12.4486 20.9814 12.2912 20.965C12.1338 20.9486 11.9848 20.8859 11.863 20.7848C11.7412 20.6837 11.6522 20.5487 11.6072 20.397L9.76017 14.1862L13.29 11.7146C13.4638 11.5929 13.5821 11.4071 13.619 11.1982C13.6558 10.9892 13.6081 10.7742 13.4865 10.6004C13.3648 10.4266 13.179 10.3083 12.9701 10.2715C12.7611 10.2346 12.5461 10.2823 12.3724 10.404L8.84248 12.8756L3.6373 9.01625C3.51038 8.92192 3.41426 8.7921 3.36108 8.64318C3.30791 8.49425 3.30071 8.33245 3.33918 8.17908Z" fill="#B3B3B3"/>
</g>
</svg>
