<svg width="24" height="24" viewBox="0 0 24 24" fill="none" xmlns="http://www.w3.org/2000/svg">
<rect width="24" height="24" fill="white"/>
<circle cx="12" cy="12" r="10" fill="#B3B3B3"/>
<path d="M7.5 7C7.10218 7 6.72064 7.15156 6.43934 7.42135C6.15804 7.69113 6 8.05704 6 8.43858V17.6404C6.00002 17.7116 6.02204 17.7812 6.0633 17.8403C6.10455 17.8995 6.16318 17.9455 6.23175 17.9727C6.30032 17.9999 6.37577 18.007 6.44853 17.993C6.52129 17.9791 6.5881 17.9447 6.6405 17.8943L8.78025 15.8422C8.92087 15.7073 9.1116 15.6315 9.3105 15.6315H16.5C16.8978 15.6315 17.2794 15.4799 17.5607 15.2101C17.842 14.9403 18 14.5744 18 14.1929V8.43858C18 8.05704 17.842 7.69113 17.5607 7.42135C17.2794 7.15156 16.8978 7 16.5 7H7.5Z" fill="white"/>
</svg>
