<svg width="100%" height="100%" viewBox="0 0 24 24" fill="none" xmlns="http://www.w3.org/2000/svg">
<rect width="100%" height="100%" fill="white"/>
<path d="M5.25 4C4.65326 4 4.08097 4.23424 3.65901 4.65118C3.23705 5.06812 3 5.63361 3 6.22325L3 20.4443C3.00002 20.5543 3.03307 20.6618 3.09495 20.7532C3.15683 20.8446 3.24476 20.9158 3.34762 20.9578C3.45049 20.9999 3.56365 21.0108 3.67279 20.9892C3.78193 20.9676 3.88215 20.9146 3.96075 20.8367L7.17037 17.6652C7.3813 17.4568 7.66741 17.3396 7.96575 17.3395H18.75C19.3467 17.3395 19.919 17.1053 20.341 16.6884C20.7629 16.2714 21 15.7059 21 15.1163V6.22325C21 5.63361 20.7629 5.06812 20.341 4.65118C19.919 4.23424 19.3467 4 18.75 4H5.25Z" fill="#4C4C4C"/>
</svg>
