<svg width="20" height="20" viewBox="0 0 20 20" fill="none" xmlns="http://www.w3.org/2000/svg">
<g id="icon/massage-line">
<path id="Union" fill-rule="evenodd" clip-rule="evenodd" d="M4.91699 4.08398C3.53628 4.08398 2.41699 5.20328 2.41699 6.58399V13.4213C2.41699 14.802 3.53628 15.9213 4.91699 15.9213H15.0861C16.4668 15.9213 17.5861 14.802 17.5861 13.4213V6.58398C17.5861 5.20327 16.4668 4.08398 15.0861 4.08398H4.91699ZM3.43994 6.32119C3.56419 5.61807 4.17822 5.08398 4.91699 5.08398H15.0861C15.7671 5.08398 16.3421 5.53779 16.5252 6.15949L10.1985 9.81835L3.43994 6.32119ZM3.41699 7.43526V13.4213C3.41699 14.2497 4.08857 14.9213 4.91699 14.9213H15.0861C15.9145 14.9213 16.5861 14.2497 16.5861 13.4213V7.27945L10.4621 10.8211C10.3145 10.9064 10.1335 10.9107 9.98204 10.8323L3.41699 7.43526Z" fill="#1A1A1A"/>
</g>
</svg>
