<svg width="24" height="24" viewBox="0 0 24 24" fill="none" xmlns="http://www.w3.org/2000/svg">
<rect width="24" height="24" fill="white"/>
<circle cx="12" cy="12" r="10" fill="#B3B3B3"/>
<path d="M16.6519 17.0402L18.4744 11.0402C18.503 10.9462 18.5077 10.8474 18.4882 10.7514C18.4688 10.6554 18.4257 10.5649 18.3623 10.4871C18.2989 10.4092 18.217 10.3461 18.123 10.3027C18.0289 10.2593 17.9254 10.2367 17.8204 10.2368H13.9242C13.8683 10.2368 13.8132 10.2251 13.7629 10.2025C13.7126 10.18 13.6684 10.1471 13.6336 10.1064C13.5988 10.0658 13.5744 10.0183 13.562 9.96764C13.5497 9.91695 13.5498 9.86432 13.5624 9.81368L13.7321 9.13032C13.8875 8.50347 13.9374 7.85768 13.8801 7.21663L13.8488 6.86832C13.8154 6.49464 13.6407 6.14409 13.3557 5.87895C13.095 5.63636 12.7415 5.50005 12.3728 5.5H12.2914C12.0684 5.5 11.8631 5.61242 11.7551 5.79368L10.8527 7.30474C10.4481 7.98243 9.84506 8.53929 9.11365 8.91053L6.85365 10.0568C6.7465 10.1112 6.6571 10.1915 6.59486 10.2892C6.53263 10.3869 6.49986 10.4984 6.5 10.612V16.8684C6.5 17.0359 6.57151 17.1966 6.69881 17.315C6.82611 17.4335 6.99876 17.5 7.17878 17.5H15.9985C16.1463 17.5 16.2901 17.455 16.408 17.372C16.5258 17.2891 16.6117 17.1725 16.6519 17.0402Z" fill="white"/>
</svg>
