<svg width="24" height="24" viewBox="0 0 24 24" fill="none" xmlns="http://www.w3.org/2000/svg">
<rect width="24" height="24" fill="white"/>
<path d="M17.5358 19.3869L19.9659 11.3869C20.0039 11.2616 20.0103 11.1298 19.9843 11.0018C19.9584 10.8739 19.9009 10.7532 19.8164 10.6494C19.7319 10.5456 19.6227 10.4615 19.4973 10.4036C19.3719 10.3457 19.2338 10.3156 19.0939 10.3158H13.8989C13.8244 10.3158 13.7509 10.3002 13.6838 10.2701C13.6168 10.24 13.5579 10.1962 13.5115 10.1419C13.4651 10.0877 13.4325 10.0244 13.4161 9.95685C13.3996 9.88927 13.3998 9.8191 13.4165 9.75158L13.6428 8.84042C13.85 8.00463 13.9166 7.14358 13.8401 6.28884L13.7985 5.82442C13.7539 5.32619 13.5209 4.85879 13.1409 4.50526C12.7934 4.18182 12.322 4.00007 11.8304 4H11.7218C11.4245 4 11.1508 4.14989 11.0068 4.39158L9.80359 6.40632C9.26418 7.3099 8.46008 8.05238 7.48487 8.54737L4.47153 10.0758C4.32867 10.1483 4.20947 10.2554 4.12649 10.3856C4.0435 10.5159 3.99981 10.6646 4 10.816V19.1579C4 19.3812 4.09535 19.5954 4.26508 19.7534C4.43481 19.9113 4.66501 20 4.90504 20H16.6647C16.8618 19.9999 17.0535 19.94 17.2106 19.8294C17.3677 19.7187 17.4822 19.5634 17.5358 19.3869Z" fill="#1A1A1A"/>
</svg>
