<svg width="100%" height="100%" viewBox="0 0 24 24" fill="none" xmlns="http://www.w3.org/2000/svg">
<rect width="100%" height="100%" fill="white"/>
<path d="M20.3882 11.3452C20.7961 11.8565 21 12.1111 21 12.5C21 12.8889 20.7961 13.1435 20.3882 13.6548C18.8953 15.5225 15.6027 19 11.7803 19C7.95783 19 5.10469 15.5225 3.61188 13.6548C3.20398 13.1435 3.00003 12.8889 3.00003 12.5C3.00003 12.1111 3.20398 11.8565 3.61188 11.3452C5.10469 9.4775 7.95783 6 11.7803 6C15.6027 6 18.8953 9.4775 20.3882 11.3452Z" fill="#1A1A1A" stroke="#1A1A1A"/>
<path d="M12.0232 16.2918C14.0553 16.2918 15.7027 14.5942 15.7027 12.5002C15.7027 10.4061 14.0553 8.7085 12.0232 8.7085C9.99111 8.7085 8.34375 10.4061 8.34375 12.5002C8.34375 14.5942 9.99111 16.2918 12.0232 16.2918Z" fill="#1A1A1A" stroke="white" stroke-width="2"/>
</svg>
