<svg width="24" height="24" viewBox="0 0 24 24" fill="none" xmlns="http://www.w3.org/2000/svg">
<path d="M20.3882 11.3452C20.7961 11.8565 21 12.1111 21 12.5C21 12.8889 20.7961 13.1435 20.3882 13.6548C18.8953 15.5225 15.6027 19 11.7803 19C7.95783 19 5.10469 15.5225 3.61188 13.6548C3.20398 13.1435 3.00003 12.8889 3.00003 12.5C3.00003 12.1111 3.20398 11.8565 3.61188 11.3452C5.10469 9.4775 7.95783 6 11.7803 6C15.6027 6 18.8953 9.4775 20.3882 11.3452Z" fill="#196AFF" stroke="#196AFF"/>
<path d="M12.0222 16.2913C14.0544 16.2913 15.7017 14.5938 15.7017 12.4997C15.7017 10.4056 14.0544 8.70801 12.0222 8.70801C9.99013 8.70801 8.34277 10.4056 8.34277 12.4997C8.34277 14.5938 9.99013 16.2913 12.0222 16.2913Z" fill="#196AFF" stroke="white" stroke-width="2"/>
</svg>
