<svg width="100%" height="100%" viewBox="0 0 24 24" fill="none" xmlns="http://www.w3.org/2000/svg">
<path d="M12 15C13.3807 15 14.5 13.8807 14.5 12.5C14.5 11.1193 13.3807 10 12 10C10.6193 10 9.5 11.1193 9.5 12.5C9.5 13.8807 10.6193 15 12 15Z" stroke="#B3B3B3" stroke-width="2"/>
<path d="M19.4561 11.5228C19.8187 11.9555 20 12.1709 20 12.5C20 12.8291 19.8187 13.0445 19.4561 13.4772C18.1292 15.0575 15.2024 18 11.8047 18C8.40696 18 5.87084 15.0575 4.54389 13.4772C4.18132 13.0445 4.00003 12.8291 4.00003 12.5C4.00003 12.1709 4.18132 11.9555 4.54389 11.5228C5.87084 9.9425 8.40696 7 11.8047 7C15.2024 7 18.1292 9.9425 19.4561 11.5228Z" stroke="#B3B3B3" stroke-width="2"/>
<path d="M4 6L20 19" stroke="#B3B3B3" stroke-width="2" stroke-linecap="round"/>
</svg>
